<?xml version="1.0" encoding="UTF-8"?>
<svg width="128pt" height="128pt" version="1.1" viewBox="0 0 128 128" xmlns="http://www.w3.org/2000/svg">
 <g>
  <path d="m6.3984 0h115.2c3.5352 0 6.3984 3.5352 6.3984 6.3984v115.2c0 3.5352-2.8672 6.3984-6.3984 6.3984h-115.2c-3.5352 0-6.3984-3.5352-6.3984-6.3984v-115.2c0-3.5352 2.8672-6.3984 6.3984-6.3984z" fill="#4c25e0"/>
  <path d="m64 51.488c1.4688-0.003906 2.9297 0.25391 4.3125 0.75781l-2.5742 2.418-1.7422-1.6133-1.7422 1.6133-2.5742-2.418c1.3828-0.50391 2.8438-0.76172 4.3125-0.75781zm-5.5469 40.934c-0.38672-0.35547-0.92188-0.5-1.4375-0.38672l-14.371-13.355 13.621-12.664 2.2812 2.1133c-3.0469 2.832-6.0938 5.6445-9.125 8.4805h0.003906c-0.13672 0.12109-0.21484 0.28516-0.21875 0.46484-0.007812 0.19922 0.074219 0.39062 0.21875 0.52734l6.0352 5.6445c-0.18359 0.52344-0.03125 1.1016 0.37891 1.4727 0.62109 0.57812 1.582 0.57812 2.1992 0 0.28906-0.26172 0.45703-0.63281 0.45703-1.0234 0-0.39062-0.16797-0.76172-0.45703-1.0234-0.42969-0.40234-1.0508-0.53516-1.6133-0.34766l-5.5859-5.2227 8.6328-8.0156 2.2734 2.1133-5.7891 5.3789c-0.12891 0.125-0.20312 0.30078-0.20312 0.48047 0 0.17969 0.074219 0.35156 0.20312 0.48047 0.125 0.12891 0.29688 0.19922 0.47656 0.19922 0.17578 0 0.34766-0.070312 0.47656-0.19922l5.8906-5.4727 1.1953 1.0547 1.1211-1.0547 14.195 13.188c0.26562 0.23438 0.66406 0.23438 0.92578 0l14.98-13.922c0.55859 0.17578 1.1758 0.039063 1.6133-0.35547 0.28906-0.26172 0.45703-0.63281 0.45703-1.0234s-0.16797-0.76172-0.45703-1.0234c-0.62109-0.57813-1.582-0.57813-2.1992 0-0.41406 0.37109-0.55859 0.94922-0.37891 1.4766l-14.477 13.43-13.656-12.695 2.2734-2.1133 9.1836 8.5273c0.26172 0.25 0.67578 0.25 0.93359 0l6.6406-6.1445v0.003906c0.55859 0.1875 1.1797 0.054688 1.6133-0.34766 0.29297-0.26172 0.46094-0.63281 0.46094-1.0273 0-0.39062-0.16797-0.76172-0.46094-1.0234-0.61719-0.57422-1.5742-0.57422-2.1914 0-0.42578 0.36719-0.59375 0.94922-0.41797 1.4844l-6.1094 5.6445-8.6641-8.0625 2.2812-2.1133 5.8281 5.4141v0.003907c0.26562 0.26172 0.6875 0.26172 0.94922 0 0.125-0.125 0.19922-0.29688 0.19922-0.47656 0-0.17969-0.074219-0.34766-0.19922-0.47656l-5.7891-5.3828 1.1445-1.0469-1.1367-1.0547c4.707-4.375 9.4141-8.7461 14.121-13.125h0.003906c0.14453-0.13672 0.22266-0.33594 0.20703-0.54297-0.007813-0.17188-0.082032-0.33203-0.20703-0.44922-4.9141-4.5781-9.8281-9.1484-14.742-13.703h-0.003907c0.26172-0.55078 0.125-1.2109-0.33203-1.6133-0.61719-0.57812-1.582-0.57812-2.1992 0-0.28906 0.26172-0.45312 0.63281-0.45312 1.0234 0 0.39063 0.16406 0.76172 0.45312 1.0234 0.39063 0.35938 0.92969 0.50391 1.4453 0.38672l14.371 13.375-13.621 12.664-2.2812-2.1133c3.0391-2.832 6.0938-5.6445 9.125-8.4805h-0.003906c0.14062-0.125 0.22266-0.30859 0.21875-0.5-0.003907-0.1875-0.082031-0.36328-0.21875-0.49219l-6.0352-5.6445c0.15234-0.52734-0.023437-1.0938-0.44531-1.4414-0.62109-0.57812-1.582-0.57812-2.1992 0-0.29297 0.26172-0.46094 0.63281-0.46094 1.0234s0.16797 0.76562 0.46094 1.0234c0.43359 0.40234 1.0508 0.53516 1.6133 0.34766l5.5859 5.2227-8.6328 8.0156-2.2734-2.1133 5.7891-5.3789 0.003907 0.003907c0.27344-0.25781 0.28516-0.6875 0.03125-0.96094-0.25391-0.27344-0.6875-0.28906-0.96094-0.03125l-5.8516 5.4727-1.1602-1.0547-1.1602 1.0547-14.152-13.188c-0.12891-0.12109-0.30078-0.18359-0.47656-0.17578-0.16797 0-0.32812 0.0625-0.44922 0.17578l-14.84 13.766c-0.58594-0.25-1.2578-0.13281-1.7266 0.30078-0.28906 0.26172-0.45703 0.63281-0.45703 1.0234s0.16797 0.76172 0.45703 1.0234c0.62109 0.57812 1.582 0.57812 2.1992 0 0.36328-0.33203 0.52344-0.83203 0.41797-1.3125l14.371-13.383 13.703 12.695-2.2734 2.1133-9.2188-8.5273c-0.12891-0.125-0.30469-0.19531-0.48438-0.19531-0.16797 0-0.32812 0.0625-0.44922 0.17969l-6.1484 5.6445h-0.003906c-0.55859-0.1875-1.1758-0.058593-1.6133 0.34766-0.28906 0.26172-0.45312 0.63281-0.45312 1.0234s0.16406 0.76172 0.45312 1.0234c0.62109 0.57813 1.582 0.57813 2.1992 0 0.41406-0.36719 0.5625-0.94922 0.38281-1.4688l5.6445-5.1914 8.6641 8.0625-2.2812 2.1133-5.8281-5.4141h-0.003906c-0.26172-0.26172-0.6875-0.26172-0.94922 0-0.14062 0.12109-0.22266 0.29688-0.23047 0.48438-0.007812 0.1875 0.066407 0.36719 0.19922 0.49609l5.7891 5.3828-1.1055 1.0625 1.1367 1.0547-14.113 13.125c-0.14062 0.125-0.21875 0.30469-0.22656 0.49219 0.003906 0.19922 0.089843 0.38281 0.23438 0.51562l14.734 13.68c-0.25781 0.55078-0.125 1.207 0.32031 1.6133 0.62109 0.57812 1.582 0.57812 2.1992 0 0.29297-0.25781 0.46094-0.63281 0.46094-1.0234 0-0.39063-0.16797-0.76172-0.46094-1.0234zm8.375-26.812c0.1875-0.32031 0.60156-0.43359 0.92578-0.25 0.15234 0.089844 0.26953 0.23828 0.3125 0.41406 0.046875 0.17187 0.023438 0.35937-0.070312 0.51172l-1.1445 1.9844c-0.12109 0.20703-0.33984 0.33594-0.57812 0.33594h-1.6133v1.2969c0 0.375-0.30078 0.67969-0.67578 0.67969s-0.67578-0.30469-0.67578-0.67969v-1.2617h-1.6133c-0.26172-0.007813-0.49609-0.15234-0.61328-0.38672l-2.2578-3.918c-0.12109-0.21484-0.12109-0.47656 0-0.6875l2.2812-3.957h0.003906c0.12109-0.20703 0.34766-0.33594 0.58984-0.33984h1.6133v-1.2969c0-0.37109 0.30078-0.67578 0.67578-0.67578s0.67578 0.30469 0.67578 0.67578v1.2969h1.6133c0.26172 0.007813 0.49609 0.15234 0.60938 0.38672l1.1445 1.9375c0.089844 0.15234 0.11719 0.33984 0.074219 0.51172-0.046875 0.17188-0.16016 0.32031-0.31641 0.41406-0.15234 0.10156-0.34375 0.13672-0.52734 0.09375-0.17969-0.039062-0.33594-0.15234-0.42969-0.3125l-0.94922-1.6133h-3.7891l-1.9062 3.2227 1.9023 3.2812h3.7891l0.94922-1.6133zm-6.375-9.3008-3.125-2.9023h-0.003906c-0.57031 0.36328-1.1094 0.77344-1.6133 1.2266l3.2891 3.0469 1.4727-1.3711zm-3.2656 3.0391-1.4844 1.3711-2.7812-2.5781c0.32031-0.60547 0.69141-1.1797 1.1016-1.7266zm-3.2734 3.0391-1.7422 1.6133 1.7422 1.6133-1.9688 1.8281h0.003907c-0.63672-2.25-0.63672-4.6328 0-6.8828zm16.727-8.9883-3.125 2.9102 1.4727 1.3711 3.2891-3.0469h0.003906c-0.50781-0.44922-1.0469-0.86328-1.6133-1.2305zm-14.934 13.879 1.4844 1.3711-3.1602 2.9336c-0.41406-0.54297-0.78125-1.1211-1.1016-1.7266zm18.23-10.867c0.41406 0.54297 0.78516 1.1211 1.1055 1.7266l-2.7812 2.5781-1.4844-1.3711zm-14.961 13.906 1.4727 1.3711-3.125 2.9023c-0.57031-0.36328-1.1094-0.77344-1.6133-1.2266l3.2891-3.0469zm17.043-9.7617c0.63281 2.25 0.63281 4.6328 0 6.8828l-1.9688-1.8281 1.7305-1.6133-1.7305-1.6133zm-0.97656 9.3008c-0.32031 0.60547-0.69141 1.1797-1.1055 1.7266l-3.1602-2.9336 1.4844-1.3711zm-2.7656 3.5078c-0.50391 0.44922-1.043 0.85938-1.6133 1.2266l-3.125-2.9023 1.4727-1.3711 3.2891 3.0469zm-3.9844 2.3789c-1.375 0.52344-2.8359 0.79687-4.3125 0.80469-1.4688 0.003906-2.9297-0.25391-4.3125-0.75781l2.5742-2.418 1.7422 1.6133 1.7422-1.6133z" fill="#fff" fill-rule="evenodd"/>
 </g>
</svg>
