<?xml version="1.0" encoding="UTF-8"?>
<svg width=":width" height=":height" version="1.1" viewBox="0 0 512 512" xmlns="http://www.w3.org/2000/svg">
 <path d="m25.602 0h460.8c14.137 0 25.602 14.137 25.602 25.602v460.8c0 14.137-11.461 25.602-25.602 25.602h-460.8c-14.137 0-25.602-14.137-25.602-25.602v-460.8c0-14.137 11.461-25.602 25.602-25.602z" fill="#ffd65b"/>
 <path d="m261.38 132.4c0 7.1641-10.75 7.1641-10.75 0 0-7.1641 10.75-7.1641 10.75 0"/>
 <path d="m352.73 234.5c0 7.1641-10.746 7.1641-10.746 0 0-7.1641 10.746-7.1641 10.746 0"/>
 <path d="m144.08 188c-2.207-2.2617-3.8945-4.9727-4.957-7.9492-17.352 37.188-15.953 80.414 3.7617 116.4 0.91016 1.6523 0.88672 3.6602-0.0625 5.293-4.2344 7.3242-5.875 15.867-4.6484 24.242 0.17188 1.2031 0.40625 2.4023 0.70312 3.582l32.324 7.1562v0.003906c2.6875 0.58594 4.5 3.1094 4.1953 5.8438-0.30469 2.7344-2.625 4.7969-5.3789 4.7812-0.39062-0.003906-0.78125-0.042969-1.1641-0.125l-24.301-5.375c1.9297 2.668 4.1953 5.0781 6.7383 7.168 7.2148 5.8867 16.242 9.0938 25.551 9.0781 5.3164 0.007812 10.41 2.1211 14.168 5.8789 3.7578 3.7578 5.8711 8.8516 5.8789 14.168v16.016-0.003907c-0.011719 2.2969 1.4375 4.3438 3.6055 5.1016 5.8203 2 11.809 3.4805 17.891 4.4258v-13.344c0-2.9648 2.4062-5.3711 5.375-5.3711 2.9648 0 5.3711 2.4062 5.3711 5.3711v14.801c6.1758 0.65625 13.289 1.1289 21.496 1.2734v-16.074c0-2.9648 2.4062-5.3711 5.375-5.3711s5.375 2.4062 5.375 5.3711v16.074c8.207-0.14453 15.32-0.61719 21.496-1.2734v-14.801c0-2.9648 2.4062-5.3711 5.3711-5.3711 2.9688 0 5.375 2.4062 5.375 5.3711v13.344c6.0859-0.94531 12.074-2.4297 17.902-4.4258 2.1641-0.75781 3.6055-2.8086 3.5938-5.1016v-16.012c0.003907-5.3164 2.1172-10.414 5.875-14.172 3.7578-3.7578 8.8555-5.8711 14.172-5.875 12.727 0.054687 24.715-5.9844 32.242-16.25l-24.281 5.375h0.003906c-0.375 0.078125-0.75781 0.12109-1.1406 0.12891-2.7461 0.003906-5.0547-2.0625-5.3516-4.793-0.29687-2.7305 1.5117-5.2461 4.1953-5.832l32.324-7.1602c0.29688-1.1875 0.53516-2.3867 0.71094-3.5977 1.2227-8.3711-0.41797-16.906-4.6484-24.227-0.94922-1.6328-0.97656-3.6406-0.066406-5.293 19.719-35.988 21.113-79.215 3.7617-116.4-1.0508 2.9609-2.7266 5.6602-4.918 7.9102l-12.074 12.074v0.003907c-2.0312 2.0039-3.1797 4.7383-3.1875 7.5898v11.738c4.8203 1.7031 8.5469 5.5938 10.043 10.48 1.4961 4.8906 0.58594 10.195-2.4531 14.309-3.043 4.1094-7.8516 6.5312-12.961 6.5312-5.1133 0-9.9219-2.4219-12.965-6.5312-3.0391-4.1133-3.9492-9.418-2.4531-14.309 1.4961-4.8867 5.2227-8.7773 10.043-10.48v-11.738c-0.011719-5.6992 2.2578-11.172 6.3047-15.191l12.039-12.039-0.003906 0.003906c2.0156-2.0391 3.1484-4.7852 3.1562-7.6484v-9.4375c-22.828-34.473-60.797-55.914-102.11-57.656v11.602c4.8203 1.7031 8.543 5.5938 10.043 10.48 1.4961 4.8906 0.58203 10.199-2.457 14.309-3.0391 4.1094-7.8477 6.5312-12.961 6.5312s-9.9219-2.4219-12.961-6.5312c-3.0391-4.1094-3.9492-9.418-2.4531-14.309 1.4961-4.8867 5.2188-8.7773 10.039-10.48v-11.602c-41.309 1.7422-79.277 23.184-102.11 57.656v9.4375c0.011719 2.8828 1.1602 5.6445 3.1953 7.6836l12 12c4.043 4.0195 6.3164 9.4922 6.3008 15.191v11.738c4.8203 1.7031 8.5469 5.5938 10.043 10.48 1.4961 4.8906 0.58594 10.195-2.4531 14.309-3.043 4.1094-7.8516 6.5312-12.961 6.5312-5.1133 0-9.9219-2.4219-12.965-6.5312-3.0391-4.1133-3.9492-9.418-2.4531-14.309 1.4961-4.8867 5.2227-8.7773 10.043-10.48v-11.738c0-2.8477-1.1328-5.582-3.1562-7.5898zm133.42-28.734c5.1055-0.011719 9.9141 2.4062 12.953 6.5078 3.0391 4.1016 3.9531 9.4023 2.457 14.285s-5.2188 8.7656-10.035 10.461v96.109l16.121-7.0625v-54.039c0-5.8164 1.8867-11.473 5.375-16.125l7.5234-10.027c2.0938-2.7891 3.2227-6.1836 3.2227-9.6719v-15.305c-4.8203-1.7031-8.5469-5.5938-10.043-10.48-1.4961-4.8906-0.58203-10.199 2.457-14.309 3.0391-4.1094 7.8477-6.5312 12.961-6.5312s9.9219 2.4219 12.961 6.5312c3.0391 4.1094 3.9492 9.418 2.4531 14.309-1.4961 4.8867-5.2227 8.7773-10.039 10.48v15.336c0 5.8164-1.8867 11.473-5.375 16.121l-7.5234 10.027v0.003906c-2.0938 2.7891-3.2266 6.1836-3.2266 9.6719v49.344l30.887-13.531c3.0469-1.3281 6.5156-1.2773 9.5234 0.14453 2.9492 1.3945 5.1523 3.9961 6.0391 7.1367 3.3203 11.34 2.4727 23.492-2.3945 34.258-4.8672 10.77-13.426 19.438-24.133 24.438-5.8398 2.5547-12.148 3.8633-18.523 3.8516-17.43-0.16016-33.559-9.2578-42.707-24.098-1.7148-2.7852-2.1328-6.1797-1.1445-9.2969 0.81641-2.5938 2.5312-4.8125 4.8359-6.2539v-101.03c-4.8164-1.6953-8.5391-5.5781-10.035-10.461-1.4961-4.8828-0.58203-10.184 2.457-14.285 3.0391-4.1016 7.8477-6.5195 12.953-6.5078zm-8.4922 163.51 12.012 22.617c2.6016 4.8438 2.4453 10.699-0.40625 15.395-3.082 5.0742-8.6172 8.1406-14.555 8.0664h-20.109c-5.9336 0.074219-11.469-2.9922-14.551-8.0625-2.8555-4.6953-3.0117-10.551-0.41016-15.391l12.012-22.617v-0.003906c1.7227-3.1094 4.5039-5.5 7.8359-6.7383 3.3359-1.2344 7-1.2344 10.336 0 3.3359 1.2383 6.1133 3.6289 7.8359 6.7383zm-113.19-54.145c0.88672-3.1406 3.0898-5.7461 6.043-7.1406 3.0078-1.4102 6.4766-1.4531 9.5195-0.11719l30.887 13.5v-49.344c0-3.4883-1.1328-6.8828-3.2266-9.6758l-7.5234-9.9883c-3.4883-4.6523-5.3711-10.309-5.3711-16.121v-15.344c-4.8203-1.7031-8.5469-5.5938-10.043-10.48-1.4961-4.8906-0.58594-10.199 2.4531-14.309 3.0391-4.1094 7.8516-6.5312 12.961-6.5312 5.1133 0 9.9219 2.4219 12.961 6.5312 3.043 4.1094 3.9531 9.418 2.457 14.309-1.4961 4.8867-5.2227 8.7773-10.043 10.48v15.336c0 3.4883 1.1328 6.8828 3.2227 9.6758l7.5234 9.9883c3.4883 4.6523 5.375 10.309 5.375 16.121v54.059l16.121 7.0508v-96.109c-4.8164-1.7031-8.543-5.5938-10.039-10.48s-0.58594-10.195 2.4531-14.305c3.0391-4.1133 7.8477-6.5352 12.961-6.5352 5.1133 0 9.9219 2.4219 12.961 6.5352 3.0391 4.1094 3.9531 9.418 2.457 14.305s-5.2227 8.7773-10.043 10.48v101.03c2.3164 1.4375 4.0391 3.6562 4.8633 6.2539 0.97266 3.1172 0.54297 6.5-1.1758 9.2695-9.1484 14.84-25.273 23.938-42.703 24.098-6.3711 0.011719-12.676-1.2969-18.512-3.8477-10.707-4.9961-19.273-13.664-24.141-24.434-4.8672-10.766-5.7188-22.918-2.3984-34.262z"/>
 <path d="m186.68 317.49c8.5742 3.4531 18.098 3.7305 26.855 0.78125 8.7617-2.9492 16.176-8.9336 20.914-16.871 0-0.53906-0.097656-0.74219-0.35547-0.85547l-67.027-29.352c-0.089844-0.039062-0.18359-0.058594-0.28125-0.058594-0.10938 0-0.22266 0.027344-0.32031 0.074219-2.7969 8.8555-2.2891 18.426 1.4297 26.934 3.7148 8.5078 10.391 15.383 18.785 19.348z"/>
 <path d="m240.61 355.25c1.1484 1.832 3.1797 2.918 5.3398 2.8594h20.109c2.1602 0.058593 4.1914-1.0273 5.3438-2.8594 0.92187-1.4648 0.97656-3.3203 0.13281-4.8359l-12.016-22.617c-0.75781-1.2148-2.0859-1.9492-3.5156-1.9492s-2.7578 0.73438-3.5156 1.9492l-12.016 22.641c-0.83203 1.5078-0.78125 3.3516 0.13672 4.8125z"/>
 <path d="m239.88 175.39c0 7.1641-10.75 7.1641-10.75 0s10.75-7.1641 10.75 0"/>
 <path d="m196.89 159.27c0 7.1641-10.746 7.1641-10.746 0 0-7.1641 10.746-7.1641 10.746 0"/>
 <path d="m277.53 300.99c5.9648 11.066 17.094 18.387 29.617 19.484 12.52 1.0938 24.754-4.1836 32.547-14.043 7.793-9.8633 10.105-22.984 6.1445-34.914-0.17578-0.20312-0.41797-0.33594-0.67969-0.375-0.078125 0-0.14844 0.015625-0.21484 0.046875l-67.02 29.355c-0.19141 0.082031-0.33203 0.24609-0.39453 0.44531z"/>
 <path d="m282.87 175.39c0 7.1641-10.75 7.1641-10.75 0s10.75-7.1641 10.75 0"/>
 <path d="m325.86 159.27c0 7.1641-10.75 7.1641-10.75 0 0-7.1641 10.75-7.1641 10.75 0"/>
 <path d="m170.02 234.5c0 7.1641-10.746 7.1641-10.746 0 0-7.1641 10.746-7.1641 10.746 0"/>
</svg>
