<?xml version="1.0" encoding="UTF-8"?>
<svg width=":width" height=":height" version="1.1" viewBox="0 0 128 128" xmlns="http://www.w3.org/2000/svg">
 <path d="m6.3984 0h115.2c3.5352 0 6.3984 3.5352 6.3984 6.3984v115.2c0 3.5352-2.8672 6.3984-6.3984 6.3984h-115.2c-3.5352 0-6.3984-3.5352-6.3984-6.3984v-115.2c0-3.5352 2.8672-6.3984 6.3984-6.3984z" fill="#702862"/>
 <path d="m79.188 57.359c-0.16016-0.25781-0.48438-0.35547-0.77344-0.25781l-5.8672 1.8398c-1.7734-2.8359-4.9336-4.7383-8.543-4.7383s-6.8047 1.9023-8.543 4.707l-5.8672-1.8398c-0.28906-0.097656-0.61328 0.03125-0.77344 0.25781-0.16016 0.25781-0.16016 0.58203 0.066407 0.80469 0.64453 0.74219 1.3867 1.3867 2.1914 1.9023-0.12891 0.25781-0.066406 0.54688 0.097656 0.74219 0.41797 0.45312 0.87109 0.87109 1.3867 1.2266-0.066406 0.25781 0.03125 0.48438 0.22656 0.67578 0.38672 0.35547 0.80469 0.64453 1.2578 0.93359v0.35547c0 5.418 4.4805 9.8008 9.9961 9.8008s9.9961-4.3867 9.9961-9.8008v-0.35547c0.45313-0.28906 0.83984-0.61328 1.2578-0.93359 0.19531-0.16016 0.25781-0.41797 0.22656-0.67578 0.51562-0.35547 0.96875-0.77344 1.3867-1.2266 0.16016-0.19531 0.22656-0.48438 0.097656-0.74219 0.80469-0.54688 1.5781-1.1602 2.1914-1.9023 0.14844-0.22656 0.17969-0.55078-0.011719-0.77344zm-14.898 5.2227c0-0.12891 0.066407-0.22656 0.19531-0.25781l0.48438-0.16016-0.71094 0.64453zm-0.80469-0.28906c0.12891 0.03125 0.19531 0.16016 0.19531 0.25781v0.25781l-0.71094-0.64453zm10.832-1.7422-0.32422 0.097657 2.3203-0.28906c-0.77344 0.87109-1.7734 1.5469-2.9023 1.9023l-1.1602 0.38672 2.5156-0.48438c-1.0625 0.87109-2.2578 1.6445-3.5156 2.1914l-0.066406 0.03125 1.0625-0.12891c-0.67578 0.54688-1.4844 0.90234-2.3555 1.0312l-4.5469 0.61328 0.67578 2.8047-1.2891-0.45312-0.74219 2-0.74219-2-1.2891 0.45312 0.67578-2.8047-4.5469-0.61328c-0.87109-0.12891-1.6758-0.45312-2.3555-1.0312l1.0625 0.12891-0.066407-0.03125c-1.2891-0.54688-2.4492-1.3203-3.5156-2.1914l2.5156 0.48438-1.1602-0.38672c-1.1289-0.38672-2.0977-1.0625-2.9023-1.9023l2.3203 0.28906-0.32422-0.097657c-1.6758-0.54688-3.1602-1.5156-4.2891-2.8359l12.703 3.9336 1.9336 1.7734 1.9336-1.7734 12.703-3.9336c-1.1328 1.3203-2.6172 2.3203-4.3281 2.8359z" fill="#f8f8f8"/>
</svg>
