
<svg width=":width" height=":height" version="1.1" viewBox="0 0 1200 1200" xmlns="http://www.w3.org/2000/svg">
 <path d="m781.87 224.44-674.16 341.72 353.34 237.42 631.22-413.44zm-37.922 305.9c-6.0938 11.672-18.891 22.172-36.422 30.047l23.203 11.766c4.4062 2.25 6.1875 7.6875 3.9375 12.094-1.5938 3.1406-4.7344 4.9219-8.0625 4.9219-1.3594 0-2.7656-0.32812-4.0781-0.98438l-38.859-19.734c-14.672 3.75-31.125 6.0469-49.219 6.0469-14.953 0-30.938-1.4531-47.578-4.6875-4.875-0.9375-8.0625-5.6719-7.125-10.547s5.7656-8.0625 10.547-7.125c72.281 13.969 126.37-8.5312 137.63-30.141 3.2812-6.3281 2.2969-11.766-3.1406-17.016-20.625-19.922-98.438-3.6562-144.94 6.1406-15.188 3.1875-28.312 5.9062-37.922 7.2656-30.797 4.2656-81.328-5.0156-90.703-29.203-3.6562-9.4688-2.7656-24.328 22.172-41.344 4.6406-3.1406 9.6094-5.8125 14.719-8.2969l-19.266-9.7969c-4.4062-2.25-6.1875-7.6875-3.9375-12.094s7.6875-6.1875 12.094-3.9375l33.797 17.203c49.922-14.625 106.97-7.4062 110.02-6.9844 4.9219 0.65625 8.3906 5.2031 7.7344 10.125s-5.2969 8.3906-10.125 7.7344c-0.89062-0.14062-87.797-11.203-134.95 20.953-11.531 7.875-17.344 15.328-15.516 20.016 4.6875 12.094 43.312 21.797 71.391 17.859 9-1.2656 21.844-3.9375 36.703-7.0781 56.391-11.812 133.64-28.031 161.16-1.4062 11.203 10.828 13.594 24.75 6.6094 38.25zm348.37 31.688-631.22 413.53-353.39-237.47 54.609-27.656 293.76 197.39c1.5 1.0312 3.2812 1.5469 5.0156 1.5469s3.4219-0.46875 4.9219-1.4531l572.21-374.76 54.141 28.922zm-631.22 327.52-353.39-237.47 54.469-27.656 293.81 197.44c1.5 1.0312 3.2812 1.5469 5.0156 1.5469s3.4219-0.46875 4.9219-1.4531l572.06-374.72 54.281 28.969-631.22 413.39z" fill="#232f10"/>
</svg>
