<?xml version="1.0" encoding="UTF-8"?>
<svg width=":width" height=":height" version="1.1" viewBox="0 0 128 128" xmlns="http://www.w3.org/2000/svg">
 <path d="m6.3984 0h115.2c3.5352 0 6.3984 3.5352 6.3984 6.3984v115.2c0 3.5352-2.8672 6.3984-6.3984 6.3984h-115.2c-3.5352 0-6.3984-3.5352-6.3984-6.3984v-115.2c0-3.5352 2.8672-6.3984 6.3984-6.3984z" fill="#702862"/>
 <path d="m89.633 38.367c-6.8516-6.8516-15.961-10.641-25.633-10.641s-18.781 3.7891-25.633 10.641c-6.8516 6.8516-10.641 15.961-10.641 25.633s3.7891 18.781 10.641 25.633c6.8516 6.8516 15.961 10.641 25.633 10.641s18.781-3.7891 25.633-10.641c6.8516-6.8516 10.641-15.961 10.641-25.633s-3.7891-18.781-10.641-25.633zm-7.4961 8.625c1.0469 1.1289 1.293 2.7383 3.9492 2.418 2.5781-0.32031 2.5 1.3711 2.2578 1.7734-0.32031 0.5625-1.5312 0.88672-3.5469 0.16016-2.0156-0.64453-1.8555 0.96484-3.7891 0.24219-1.9336-0.72266-0.96484-1.5312-1.7734-2.2578-0.80469-0.72266-1.6953-0.082031-3.3047 0.32031-1.6133 0.40234-1.8555-0.32031-0.64453-1.5312 0.72266-0.72266 1.6133-1.1289 3.1406-2.3359 1.5352-0.96484 2.582 0.082031 3.7109 1.2109zm-18.137 49.656c-17.977 0-32.648-14.672-32.648-32.648 0-1.2109 0.082032-2.418 0.16016-3.6289 0.32031-0.082032 0.64453-0.16016 0.88672-0.24219 0.88672-0.32031 1.1289 0.64453 1.6953 0.80469 0.64453 0.082031 1.6953 0.082031 2.0156 1.4531 0.32031 1.3711 1.293 2.1758 2.7383 1.9336 1.4531-0.24219 1.6953 0.5625 0.5625 2.7383-1.1289 2.0977-0.082031 3.4688 0.64453 5.2383 0.72266 1.7734 2.5 3.1406 4.4336 4.3516 1.9336 1.1289 1.1289 8.0625 1.9336 9.5117 0.80469 1.4531 2.0156 4.3516 2.9805 5.8047 1.9336 2.9805 6.3672 3.1406 4.3516 1.6133-1.6133-1.2109-1.6133-2.0977-2.1758-3.9492-0.5625-1.8555 1.3711-3.3047 2.0156-4.1133 0.72266-0.80469 1.3711-3.4688 1.3711-4.8359 0-1.3711 3.3867-1.6953 3.0625-3.2227-0.23828-1.5273 0.32422-3.543 1.1289-4.5898 0.88672-1.0469 0.80469-3.3867-2.8203-3.8711-3.6289-0.48438-3.1406-4.1914-4.5156-4.2734-1.4531 0-2.2578 0-4.2734-1.8555-2.0156-1.8555-5.5625-1.9336-5.8867-1.0469-0.32031 0.88672-0.80469 1.1289-1.5312 0.88672-0.72266-0.24219-1.293 1.2109-2.1758 0.082031-0.88672-1.1289 1.0469-2.0156 0.40234-2.5781-0.72266-0.64453-2.418 0.24219-2.0977-0.80469 0.32031-1.0469-0.082031-2.5781-0.80469-1.6953-0.72266 0.88672-2.418 1.8555-2.8203-0.88672-0.32031-2.7383 4.0312-4.2734 5.1562-3.2227 1.1289 1.0469 2.5 1.6953 2.7383-0.16016 0.24219-1.9336 2.418-2.0156 3.0625-3.0625 0.64453-0.96484 1.0469-1.9336 2.9805-2.8203 1.9336-0.88672 3.1406-3.4688 4.1914-4.2734 1.0469-0.80469 3.9492-0.16016 4.2734-1.3711 0.32031-1.2109-1.1289-2.7383-2.418-2.6602-1.293 0.082032-1.3711-1.0469-2.5781-0.5625-1.293 0.5625-0.64453 2.1758-2.9805 2.6602-2.3359 0.48438-3.3047-2.3359-1.4531-3.3867 1.8555-1.1289 4.3516-0.64453 4.3516-1.2109 0-0.64453 1.3711-2.0977 2.3359-2.3359 0.96484-0.16016 1.9336 0.40234 1.2109 1.1289-0.72266 0.72266-0.48438 1.6953-0.48438 1.6953 1.6133 1.2109 3.4688-0.80469 4.1914-1.6133 0.72266-0.80469-0.5625-1.1289-1.6953-2.2578-0.32031-0.32031-0.32031-0.64453-0.24219-0.80469 1.2109-0.32031 2.418-0.5625 3.6289-0.80469 0.88672 0.24219 1.2109 1.0469 0.64453 3.3867 0 0.082031 0 0.082031-0.082031 0.16016-0.40234 1.8555 1.7734 3.1406 3.2227 1.9336 1.9336-1.6953 6.1289-2.2578 7.0117-3.3047 0.48438-0.48438 0.80469-1.2109 1.0469-1.8555 2.8203 0.64453 5.5625 1.6133 8.1445 2.9023-2.0977 1.7734-1.6953 3.4688-0.96484 4.6758 0.88672 1.5312-1.5312 2.5781-3.3047 2.9805-1.7734 0.40234 0 2.5-1.9336 2.8203-2.0156 0.24219-2.418 2.5781-1.2109 4.1914 1.2109 1.6133-4.5156 4.5938-4.6758 7.9805-0.16016 3.3867 1.1289 5.8047 3.2227 7.4961 2.0977 1.6953 3.4688-0.5625 5.8867 0 2.418 0.5625 1.6133 1.9336 2.5 3.6289 0.88672 1.6953 2.0977 3.4688 1.293 5.8867s-0.32031 3.1406 0.72266 4.6758c1.0469 1.6133 1.8555 5.1562 2.2578 6.3672 0 0 2.8203-0.16016 4.2734-1.9336 1.4531-1.8555 1.0469-2.9023 2.0156-3.3047 0.96484-0.40234 1.2109-1.1289 0.96484-2.5781-0.24219-1.4531 1.7734-0.80469 2.418-2.0156 0.64453-1.293-1.9336-4.2734 0.32031-6.6914 2.2578-2.5 3.3867-3.2227 3.8711-5.2383 0.40234-2.0156-2.0156-0.5625-3.6289-0.80469-0.88672-0.16016-1.7734-5.8047-4.2734-9.0273-0.082031-0.082031 0-0.16016 0.082031-0.082031 0.48438 0.24219 1.6953 0.88672 2.6602 2.1758 1.3711 1.7734 1.4531 5.5625 3.9492 4.8359 0.40234-0.082032 0.80469-0.24219 1.1289-0.40234 0.082031 1.1289 0.16016 2.2578 0.16016 3.3867 0.007812 17.984-14.66 32.652-32.637 32.652z" fill="#f8f8f8"/>
</svg>
