<?xml version="1.0" encoding="UTF-8"?>
<svg width=":width" height=":height" version="1.1" viewBox="0 0 128 128" xmlns="http://www.w3.org/2000/svg">
 <path d="m6.3984 0h115.2c3.5352 0 6.3984 3.5352 6.3984 6.3984v115.2c0 3.5352-2.8672 6.3984-6.3984 6.3984h-115.2c-3.5352 0-6.3984-3.5352-6.3984-6.3984v-115.2c0-3.5352 2.8672-6.3984 6.3984-6.3984z" fill="#702862"/>
 <path d="m47.457 56.059 14.445-25.023v20.648l-1.8398-1.7539-2.8867 3.0391 4.7266 4.5078v11.227l-6.2461-5.9375-2.8984 3.0391 9.1445 8.707v10.078c-6.4141-0.70703-12.039-4.6055-14.953-10.363-2.9141-5.7617-2.7227-12.602 0.50781-18.188zm33.082 0-14.441-25.023v20.648l1.832-1.7539 2.8984 3.0391-4.7305 4.5078v11.227l6.2461-5.9375 2.8984 3.0391-9.1445 8.707v10.078c6.4141-0.70703 12.039-4.6055 14.953-10.363 2.9141-5.7617 2.7227-12.602-0.50781-18.188zm-18.641 28.551 0.003906 12.355h4.1992l-0.003906-12.367c-1.3945 0.14453-2.8008 0.14453-4.1953 0z" fill="#f8f8f8"/>
</svg>
