<?xml version="1.0" encoding="UTF-8"?>
<svg width=":width" height=":height" version="1.1" viewBox="0 0 128 128" xmlns="http://www.w3.org/2000/svg">
 <path d="m6.3984 0h115.2c3.5352 0 6.3984 3.5352 6.3984 6.3984v115.2c0 3.5352-2.8672 6.3984-6.3984 6.3984h-115.2c-3.5352 0-6.3984-3.5352-6.3984-6.3984v-115.2c0-3.5352 2.8672-6.3984 6.3984-6.3984z" fill="#702862"/>
 <path d="m32.418 64.145c2.5977 0.51953 5.1875 2.7031 6.9297 5.8359 0.46484 0.83594 1.0117 1.6094 1.6211 2.3125-0.027344 1.3438 0.13281 2.7031 0.51172 4.0352 0.83984 2.9375 0.48047 6.8164-0.83984 9.0195-0.19531 0.32422-0.13672 0.73828 0.13672 0.99609 0.15234 0.14844 0.35547 0.22266 0.55469 0.22266 0.15625 0 0.3125-0.046875 0.44922-0.13672 2.2031-1.4688 5.5781-1.7578 9.0273-0.77734 0.92188 0.26172 1.8516 0.42578 2.7812 0.49219 0.92969 0.96875 2.0039 1.8164 3.2148 2.4883 2.6719 1.4844 5.1602 4.4844 5.7852 6.9727 0.089844 0.35938 0.41406 0.60938 0.78125 0.60938h0.019531c0.375-0.007813 0.69531-0.27734 0.76953-0.64844 0.51953-2.5977 2.7031-5.1875 5.8359-6.9297 0.83594-0.46484 1.6133-1.0117 2.3164-1.6211 1.3438 0.027344 2.6992-0.13281 4.0312-0.51172 2.9375-0.83984 6.8164-0.48047 9.0195 0.83984 0.12891 0.078125 0.27344 0.11719 0.41406 0.11719 0.21484 0 0.42578-0.085938 0.58203-0.25 0.26172-0.27344 0.29688-0.6875 0.085937-1.0039-1.4688-2.2031-1.7578-5.5781-0.77734-9.0273 0.26172-0.92188 0.42578-1.8555 0.49219-2.7852 0.96875-0.92969 1.8164-2.0039 2.4844-3.2148 1.4844-2.6719 4.4844-5.1602 6.9727-5.7852 0.36328-0.089843 0.61719-0.42578 0.60937-0.80078-0.007812-0.375-0.27734-0.69531-0.64844-0.76953-2.5977-0.51953-5.1875-2.7031-6.9297-5.832-0.46484-0.83594-1.0117-1.6094-1.6211-2.3125 0.027344-1.3438-0.13281-2.7031-0.51172-4.0312-0.83984-2.9375-0.48047-6.8164 0.83984-9.0195 0.19531-0.32422 0.13672-0.73828-0.13281-0.99609-0.27344-0.26172-0.69141-0.29687-1.0039-0.085937-2.2031 1.4688-5.5781 1.7578-9.0273 0.77344-0.92188-0.26172-1.8516-0.42578-2.7812-0.49219-0.92969-0.96875-2.0039-1.8164-3.2148-2.4883-2.6719-1.4844-5.1602-4.4844-5.7852-6.9727-0.085937-0.35938-0.41016-0.60938-0.77734-0.60938h-0.019531c-0.375 0.007813-0.69531 0.27734-0.76953 0.64844-0.51953 2.5977-2.7031 5.1875-5.8359 6.9297-0.83594 0.46484-1.6094 1.0078-2.3164 1.6211-1.3438-0.027343-2.7031 0.13281-4.0312 0.51562-2.9414 0.83984-6.8164 0.47656-9.0195-0.83984-0.32031-0.19141-0.73828-0.13672-0.99609 0.13672-0.26172 0.27344-0.29688 0.6875-0.085937 1.0039 1.4688 2.2031 1.7578 5.5781 0.77734 9.0273-0.26172 0.92188-0.42578 1.8516-0.49219 2.7812-0.96875 0.92969-1.8164 2.0039-2.4844 3.2148-1.4844 2.6719-4.4844 5.1602-6.9727 5.7852-0.36328 0.089844-0.61719 0.42578-0.60938 0.80078 0.003906 0.36719 0.26953 0.6875 0.64062 0.76172zm11.008-9.8359c2.0898-1.7969 4.7656-2.8516 7.5977-2.8984 0 0.070313-0.003907 0.14062 0 0.21094 0.078124 2.75 1 5.3008 2.4961 7.4141-2.7656 0.19922-5.3438 1.2227-7.4844 2.957-1.7539-2.1914-2.6641-4.9102-2.6094-7.6836zm12.867-11.715c2.75 0.20703 5.3867 1.3555 7.4219 3.3203-0.050782 0.050782-0.10156 0.097657-0.14844 0.14844-1.8906 2-3.043 4.457-3.4766 7.0117-2.0898-1.8047-4.6406-2.9102-7.3867-3.2031 0.3125-2.7891 1.5898-5.3516 3.5898-7.2773zm17.152 0.80859c0.078126 0 0.15625 0.007812 0.23047 0.007812 1.8008 2.0898 2.8516 4.7656 2.8984 7.5977-0.070313 0-0.14062-0.003906-0.21094-0.003906-2.75 0.078125-5.3008 1-7.418 2.5-0.19922-2.75-1.2188-5.332-2.9492-7.4766 2.1367-1.6992 4.7539-2.625 7.4492-2.625zm11.945 12.875c-0.20312 2.75-1.3516 5.3867-3.3203 7.4258-0.050781-0.046875-0.097656-0.10156-0.14844-0.14844-2.0039-1.8906-4.457-3.043-7.0117-3.4766 1.8047-2.0898 2.9102-4.6406 3.2031-7.3789 2.7891 0.30859 5.3555 1.5781 7.2773 3.5781zm-0.81641 17.387c-2.0898 1.8008-4.7656 2.8516-7.5977 2.8984 0-0.070312 0.003907-0.14062 0-0.21094-0.078124-2.7539-1.0039-5.3086-2.5078-7.4297 2.7578-0.19922 5.3477-1.2148 7.4961-2.9492 1.7539 2.1992 2.6641 4.9141 2.6094 7.6914zm-12.871 11.715c-2.75-0.20312-5.3828-1.3555-7.4219-3.3203 0.050781-0.050782 0.10156-0.097656 0.14844-0.14844 1.8906-2 3.043-4.457 3.4766-7.0117 2.0898 1.8047 4.6406 2.9102 7.3867 3.2031-0.30859 2.7891-1.5859 5.3516-3.5898 7.2773zm-17.379-0.81641c-1.7969-2.0859-2.8516-4.7617-2.9023-7.5938 0.070313 0 0.14062 0 0.21094-0.003906 2.75-0.078125 5.3008-1 7.418-2.5 0.20312 2.7578 1.2227 5.3398 2.957 7.4883-2.1953 1.7539-4.9102 2.6641-7.6836 2.6094zm-1.6914-33.07c2.7656 0.32031 5.3047 1.5703 7.2578 3.6172-0.039063 1.8672 0.3125 3.7383 1.0352 5.4922-1.6406-0.875-3.4492-1.4023-5.3477-1.5469-1.7617-2.0234-2.8633-4.6328-2.9453-7.4805v-0.082031zm23.781 1.1289h0.082032c-0.32031 2.7656-1.5703 5.3047-3.6172 7.2617-1.8672-0.039062-3.7383 0.30859-5.4922 1.0352 0.875-1.6406 1.4023-3.4492 1.5469-5.3477 2.0234-1.7656 4.6289-2.8672 7.4805-2.9492zm-1.0469 23.863c-2.7656-0.32031-5.3047-1.5703-7.2578-3.6172 0.039063-1.8672-0.30859-3.7383-1.0352-5.4922 1.6406 0.875 3.4492 1.4023 5.3477 1.5469 1.7617 2.0234 2.8633 4.6328 2.9492 7.4805-0.003906 0.027344-0.003906 0.050781-0.003906 0.082031zm-9.0625-6.0859c-0.62891-1.1289-1.0703-2.3477-1.3047-3.625 0.63281 1.1445 1.0742 2.3672 1.3047 3.625zm0.37109-5.1484c1.2578 0.35938 2.4336 0.91406 3.4844 1.6406-1.2422-0.35547-2.4141-0.90234-3.4844-1.6406zm1.9062-1.0352c1.7773-0.53906 3.4219-1.4531 4.8633-2.6953 2.6758 0.1875 5.2969 1.2539 7.3711 3.207l0.058594 0.058594c-2.1758 1.7305-4.8477 2.6406-7.6914 2.5742-1.293-1.3438-2.8555-2.418-4.6016-3.1445zm-1.7852-1.2344c1.1406-0.63281 2.3633-1.0703 3.6211-1.3008-1.1289 0.625-2.3477 1.0664-3.6211 1.3008zm-1.5352-1.6719c0.35938-1.2578 0.91406-2.4336 1.6406-3.4844-0.35156 1.2422-0.90234 2.418-1.6406 3.4844zm-3.5664-3.7344c0.62891 1.1289 1.0703 2.3477 1.3047 3.625-0.63281-1.1445-1.0742-2.3672-1.3047-3.625zm-0.37109 5.1484c-1.2578-0.35938-2.4336-0.91406-3.4883-1.6445 1.2461 0.35547 2.418 0.90625 3.4883 1.6445zm-1.8906 1.043c-1.7773 0.53906-3.4297 1.4453-4.875 2.6875-2.6758-0.1875-5.3008-1.25-7.375-3.207-0.019532-0.019532-0.035156-0.039063-0.054688-0.058594 2.1836-1.7305 4.875-2.6484 7.6914-2.5742 1.293 1.3477 2.8633 2.4258 4.6133 3.1523zm1.7969 1.2109c-1.1523 0.64063-2.3867 1.0859-3.6562 1.3164 1.1406-0.63672 2.3711-1.0859 3.6562-1.3164zm-6.1055 3.1133c0.09375 0 0.18359 0.011718 0.27734 0.011718 1.7734 0 3.5469-0.35547 5.2109-1.043-0.875 1.6406-1.4023 3.4453-1.543 5.3438-2.0234 1.7617-4.6328 2.8633-7.4805 2.9453h-0.082032c0.32031-2.7656 1.5703-5.3047 3.6211-7.2617l-0.003906 0.003906zm7.6094-1.4258c-0.35938 1.2539-0.91406 2.4297-1.6406 3.4805 0.35547-1.2422 0.90625-2.4141 1.6406-3.4805zm-2.1094 6.5039c1.3477-1.293 2.4258-2.8633 3.1523-4.6133 0.53906 1.7773 1.4453 3.4297 2.6875 4.875-0.1875 2.6758-1.25 5.3008-3.207 7.375l-0.058593 0.058593c-1.7266-2.1836-2.6367-4.8672-2.5742-7.6953zm6.75-18.363c-1.3477 1.293-2.4258 2.8633-3.1523 4.6133-0.53906-1.7773-1.4453-3.4297-2.6875-4.8711 0.1875-2.6758 1.25-5.3008 3.207-7.375 0.019531-0.019531 0.039062-0.035156 0.058593-0.054687 1.7266 2.1758 2.6367 4.8594 2.5742 7.6875zm-21.297 9.6133c2 1.8867 4.4531 3.043 7.0117 3.4805-1.8086 2.0938-2.9141 4.6445-3.2031 7.3906-2.7812-0.30469-5.3477-1.5898-7.2734-3.5977 0.20312-2.75 1.3516-5.3867 3.3203-7.4219 0.046875 0.050781 0.09375 0.10156 0.14453 0.14844zm5.1719 19.684c-1.4883-0.42187-2.9688-0.63281-4.3789-0.63281-1.4062 0-2.7383 0.20703-3.9336 0.61719 0.83594-2.7031 0.74609-5.9375 0.097656-8.207-0.18359-0.64844-0.30859-1.3047-0.38281-1.9609 2.0273 1.6523 4.5039 2.6914 7.1562 2.9688 0.027344 2.6914 0.85156 5.2617 2.3008 7.4258-0.28516-0.058594-0.57422-0.12891-0.85938-0.21094zm17.961 3.125c-2.6992 1.5-4.7812 3.6016-5.8906 5.8633-1.3203-2.5039-3.6719-4.7266-5.7344-5.8711-0.58984-0.32812-1.1406-0.70703-1.6602-1.1211 2.6016-0.26562 5.0938-1.2734 7.168-2.9531 1.9219 1.8828 4.3203 3.1133 6.875 3.6172-0.24609 0.16797-0.5 0.32031-0.75781 0.46484zm14.906-10.488c-0.84766 2.9688-0.83594 5.9258-0.015626 8.3125-2.7031-0.83594-5.9375-0.74609-8.207-0.097656-0.64844 0.1875-1.3047 0.30859-1.9648 0.38281 1.6523-2.0273 2.7031-4.5039 2.9805-7.1562 2.6875-0.027344 5.2578-0.85156 7.418-2.3008-0.058594 0.28516-0.12891 0.57422-0.21094 0.85938zm3.125-17.961c1.5 2.6992 3.6016 4.7812 5.8633 5.8867-2.5039 1.3203-4.7266 3.6719-5.8711 5.7344-0.32812 0.58984-0.70703 1.1406-1.1172 1.6562-0.26563-2.6016-1.2734-5.0938-2.957-7.168 1.8789-1.918 3.1133-4.3164 3.6172-6.8711 0.16406 0.25 0.32031 0.50391 0.46484 0.76172zm-10.492-14.91c2.9727 0.84766 5.9258 0.83594 8.3125 0.015624-0.83594 2.7031-0.74609 5.9375-0.097656 8.207 0.1875 0.65234 0.30859 1.3086 0.38281 1.9688-2.0273-1.6484-4.5-2.6914-7.1562-2.9766-0.027344-2.6914-0.85156-5.2617-2.3008-7.4258 0.28906 0.0625 0.57422 0.12891 0.85938 0.21094zm-17.957-3.125c2.6992-1.5 4.7812-3.6016 5.8906-5.8633 1.3203 2.5039 3.6719 4.7266 5.7344 5.8711 0.58984 0.32812 1.1406 0.70703 1.6602 1.1211-2.6016 0.26562-5.0938 1.2734-7.168 2.9531-1.9219-1.8828-4.3203-3.1172-6.875-3.6211 0.24219-0.16016 0.49609-0.31641 0.75781-0.46094zm-14.91 10.492c0.84766-2.9688 0.83594-5.9258 0.015626-8.3125 2.707 0.83984 5.9375 0.74609 8.207 0.097656 0.64844-0.1875 1.3047-0.30859 1.9648-0.38281-1.6523 2.0273-2.7031 4.5039-2.9805 7.1562-2.6875 0.027343-5.2578 0.85156-7.418 2.3008 0.058594-0.28516 0.12891-0.57422 0.21094-0.85938zm-3.1211 6.3359c0.32812-0.58984 0.70703-1.1406 1.1172-1.6562 0.26562 2.6016 1.2734 5.0938 2.957 7.168-1.8828 1.918-3.1172 4.3164-3.6211 6.875-0.16016-0.24609-0.31641-0.5-0.46094-0.75781-1.5-2.6992-3.6016-4.7812-5.8633-5.8906 2.5039-1.3203 4.7266-3.6719 5.8711-5.7383z" fill="#f8f8f8"/>
</svg>
