<?xml version="1.0" encoding="UTF-8"?>
<svg width=":width" height=":height" version="1.1" viewBox="0 0 1200 1200" xmlns="http://www.w3.org/2000/svg">
 <defs>
  <clipPath id="a">
   <path d="m252 222.14h696v755.71h-696z"/>
  </clipPath>
 </defs>
 <path d="m60 0h1080c33.137 0 60 33.137 60 60v1080c0 33.137-26.863 60-60 60h-1080c-33.137 0-60-33.137-60-60v-1080c0-33.137 26.863-60 60-60z" fill="#4c25e0"/>
 <g clip-path="url(#a)">
  <path d="m422.91 961.57c53.254-25.152 86.023-72.68 84.551-116.31v-412.81l407.88-97.297v343.35c-33.418-24.973-87.73-28.102-138.21-4.25-66.215 31.293-100.78 97.148-77.164 147.1 23.617 49.949 96.414 65.094 162.63 33.801 56.234-26.566 89.621-78.051 83.984-123.57v-509.43l-470.28 112.21v451.01c-33.387-25.359-88.027-28.664-138.8-4.6953-66.242 31.293-100.78 97.148-77.164 147.1 23.586 49.949 96.414 65.094 162.63 33.801z" fill="#232f10" fill-rule="evenodd"/>
 </g>
</svg>
