<?xml version="1.0" encoding="UTF-8"?>
<svg width=":width" height=":height" version="1.1" viewBox="0 0 512 512" xmlns="http://www.w3.org/2000/svg">
 <path d="m25.602 0h460.8c14.137 0 25.602 14.137 25.602 25.602v460.8c0 14.137-11.461 25.602-25.602 25.602h-460.8c-14.137 0-25.602-14.137-25.602-25.602v-460.8c0-14.137 11.461-25.602 25.602-25.602z" fill="#fff"/>
 <path d="m202.6 192.08c-2.7695 0.039063-5 2.293-5 5.0742 0 2.7695 2.2305 5.0273 5 5.0742 2.7695-0.050781 5-2.3047 5-5.0742 0-2.7852-2.2305-5.0391-5-5.0742z" fill="#70d258"/>
 <path d="m254.9 202.26c2.7695-0.039062 5-2.3047 5-5.0742-0.011719-2.7695-2.2305-5.0391-5-5.0742-2.7852 0.039063-5 2.3047-5 5.0742 0 2.7695 2.2148 5.0391 5 5.0742z" fill="#70d258"/>
 <path d="m362.34 222.23c-4.7227-3.6133-10.719-11.008-17.395-9.9141v-0.011718c-3.2617 0.27734-6.2734 1.8516-8.375 4.3594l-14.988 17.773-16.121 19.121-1.6367-1.3711h0.011719c-2.1406-1.7383-5.2656-1.4375-7.0391 0.66797-1.7773 2.0898-1.5352 5.2266 0.54297 7.0391l4.7617 4.0195-20.176 23.957c-5.2383-2.9102-10.832-5.1016-16.652-6.5234 26.953-20.543 43.164-52.156 44.109-86.027 0-5.3281-0.52734-10.656-1.5742-15.883 1.5508-0.039062 2.9961-0.78125 3.9297-2.0273 0.83203-1.0195 1.1953-2.3555 0.96875-3.6523-1.7891-7.582-4.875-14.785-9.1328-21.312-2.707-4.7227-6.2969-8.8906-10.566-12.281-1.9531-0.39062-3.9531-0.51562-5.9453-0.36719-30.027-33.148-86.605-33.148-116.63 0-1.875 0.125-5.3281-0.46484-6.8516 1.3086-3.4492 3.4141-6.5 7.2188-9.082 11.348-4.2461 6.5117-7.3438 13.715-9.1172 21.285-0.30078 1.9648 0.64062 3.918 2.3555 4.8984 0.60547 0.41406 1.2969 0.66797 2.0273 0.73047-1.082 5.2383-1.6367 10.594-1.6367 15.945 0.94531 33.93 17.219 65.609 44.25 86.125-25.719 6.5-44.262 25.996-44.262 48.82v45.684c0.40234 11.977 11.297 21.02 25.18 21.121h112.4c12.48 0 22.633-8.5391 22.633-19.031l0.011719-49.371c-0.050782-7.8086-2.2656-15.453-6.4102-22.078l21.098-25.039 4.2305 3.5664v0.011719c2.1289 1.7891 5.3164 1.5234 7.1172-0.60547 0.95703-1.2344 1.3359-2.832 1.0195-4.3711-0.31641-1.5352-1.2852-2.8594-2.6719-3.6133l31.098-36.891c4.3711-5.2266 3.7148-13-1.4727-17.406zm-49.16 37.812 8.9805-10.645 2.8477 20.617zm18.098-18.227 19.723-2.6211-17.254 20.469zm14.547-19.461c1.1719-0.59375 6.8008 5.125 8.4023 6.2344l-16.375 2.1797c1.6641-1.6484 6.6875-8.8281 7.9727-8.4141zm-131.93 107.44c-11.914-9.8359-22.207-21.477-30.531-34.484 3.6758-1.75 7.5195-3.125 11.461-4.1055 7.1797 11.699 16.148 22.207 26.59 31.109-2.4062 2.5195-4.9102 5.0117-7.5195 7.4805zm14.32-14.938c-5.5273-4.7227-10.645-9.9141-15.277-15.516-1.1328-1.9883-8.7266-9.7227-6.2109-9.9883h0.011719c6.9766 2.8984 14.445 4.4102 22.004 4.4453 5.6055-0.011719 11.184-0.85547 16.551-2.4922-5.0117 8.3242-10.73 16.211-17.078 23.555zm44.137-126.39v20.77c0.44141 4.457-2.7344 8.4531-7.1797 9.0312h-73.633c-4.4453-0.56641-7.6328-4.5703-7.1797-9.0312v-20.77c-0.39062-4.4453 2.7695-8.4141 7.1797-9.0312h19.637c10.492 5.7422 23.176 5.7422 33.656 0h20.34c4.4102 0.61719 7.5703 4.5859 7.1797 9.0312zm-115.09-19.121c2.6953-7.1797 6.7383-13.793 11.902-19.461h30.016c-2.543 6.375-1.9648 13.578 1.5625 19.461-5.9844 0-36.84 0.011719-43.477 0zm91.09-11.309c-0.74219 20.617-39.926 20.605-40.668 0 0.74219-20.617 39.926-20.605 40.668 0zm16.828 11.309h-9.8867c2.0391-3.4141 3.125-7.332 3.1367-11.309 0-2.7969-0.54297-5.5547-1.5859-8.1484h32.094c5.1641 5.668 9.1953 12.281 11.891 19.461zm-36.426-44.574c15.73 0.023438 30.996 5.3164 43.379 15.027h-22.711c-12.582-9.8125-30.23-9.8125-42.824 0h-21.223c12.383-9.7109 27.648-15 43.379-15.027zm-70.547 70.547c0.011719-5.3516 0.62891-10.68 1.875-15.883h16.336c-1.3984 2.8086-2.1289 5.8945-2.1406 9.0312v20.77c-0.46484 10.039 7.2422 18.566 17.27 19.105h73.633c10.027-0.54297 17.734-9.082 17.27-19.105v-20.77c-0.011718-3.1367-0.74219-6.2227-2.1406-9.0312h17.156c10.316 43.379-25.832 103.88-68.695 104.28-38 0-70.559-48.605-70.559-88.395zm16.512 105.2h0.011718c8.6523 13.578 19.32 25.77 31.641 36.137-14.852 12.77-30.996 23.957-48.164 33.387v-39.762c0.41406-12.004 6.5625-23.062 16.523-29.762zm-14.949 80.156c41.477-22.859 75.797-50.746 97.852-90.648h0.011719c3.9531 0.60547 7.8477 1.6133 11.602 2.9844-11.449 20.695-26.297 39.309-43.934 55.09-16.324 14.773-34.184 27.785-53.254 38.793-4.8242-0.125-9.332-2.4062-12.281-6.2227zm138.47-2.6328c0 4.8477-5.7422 8.9531-12.543 8.9531l-94.539-0.011719c14.523-9.3086 28.215-19.836 40.961-31.449 18.59-16.637 34.219-36.301 46.227-58.164 11.727 6.1445 19.309 18.062 19.914 31.301zm-2.5938-79.641c-1.6641-1.7266-3.4375-3.3516-5.3164-4.8477l19.484-23.137 5.5039 4.6367z" fill="#70d258"/>
</svg>
