<?xml version="1.0" encoding="UTF-8"?>
<svg width=":width" height=":height" version="1.1" viewBox="0 0 512 512" xmlns="http://www.w3.org/2000/svg">
 <path d="m25.602 0h460.8c14.137 0 25.602 14.137 25.602 25.602v460.8c0 14.137-11.461 25.602-25.602 25.602h-460.8c-14.137 0-25.602-14.137-25.602-25.602v-460.8c0-14.137 11.461-25.602 25.602-25.602z" fill="#676767"/>
 <path d="m217.77 388.35-0.88281-0.42969c-3.0352-1.5-16.891-42.082-17.156-52.824-0.23828-9.5234-1.5859-15.039-2.8984-20.367-0.66797-2.7344-1.2969-5.3008-1.7891-8.3516-0.074219-0.50391-0.16406-0.89453-0.23828-1.1836-0.50391 0.70703-1.1328 1.7383-1.5977 2.5195-1.3594 2.2539-2.7578 4.5859-4.4219 5.5781-3.4766 2.0781-50.996 45.281-59.691 54.688-9.7852 10.605-13.754 11.574-15.883 11.359-1.2461-0.11328-2.2656-0.75391-2.9492-1.8281-0.51562-0.83203-0.62891-1.8398-0.33984-3.0234 3.1484-12.695 63.656-58.996 74.465-66.754-2.0156-0.57812-6.5742-1.5117-16.879-2.6445-7.7969-0.86719-22.547-11.41-34.41-19.887-5.0508-3.6133-9.4219-6.7383-11.473-7.7578-1.75-0.88281-4.1562-2.0781-3.5391-3.9922 0.52734-1.5977 1.875-2.1797 12.004-0.49219 4.9102 0.82031 22.105 9.7109 37.27 17.547 8.1094 4.1953 15.102 7.8086 18.578 9.332 0.35156 0.16406 0.67969 0.30078 0.99609 0.42969-1.3242-1.9766-11.902-12.508-18.969-19.523-4.0547-4.0312-7.7461-7.6953-9.875-9.8984-5.9844-6.2109-32.52-50.434-32.52-52.965v-1.1445l1.1328-0.48047c3.1094-1.0312 21.035 16.879 25.605 22.547 3.3516 4.1562 10 13.844 17.043 24.094 9.6094 13.992 20.504 29.863 24.031 33.113 1.6758 1.5508 2.543 2.0547 2.9492 2.2148 0.0625-0.15234 0.125-0.32812 0.17578-0.46484 0.16406-0.45312 0.35156-0.96875 0.66797-1.4219-0.74219-1.7773-4.1055-6.75-6.8633-10.82-3.2734-4.8359-6.9766-10.316-9.3086-14.547-5.2891-9.6211-14.234-29.84-16.035-35.23-1.3359-4.0195-13.664-52.297-10.289-59.312 0.66797-1.3867 1.7617-1.4492 2.2422-1.4727 3.1992 0.125 7.2305 8.2109 17.938 36.023 1.7383 4.4961 3.0977 8.0625 3.7148 9.332 2.6953 5.6289 23.375 70.785 24.445 74.512 0.011718 0.050781 0.023437 0.10156 0.039062 0.13672 0.54297-0.20313 1.5-0.91797 2.0547-1.3242 0.60547-0.44141 1.1836-0.86719 1.6875-1.1445 0.13672-0.69141-0.25-2.6719-0.52734-4.1445-0.41406-2.1016-0.86719-4.4844-0.86719-6.8125 0-2.0547-1.5117-5.8203-3.0977-9.8008-2.1797-5.4297-4.875-12.191-5.5664-18.715-0.62891-5.8945-4.1562-15.102-7.2656-23.215-2.832-7.3945-5.2773-13.777-5.5156-17.355-0.11328-1.7891-0.65625-6.2109-1.3359-11.801-5-41.348-4.3594-45.418-1.3867-45.848 1.4727-0.1875 5.3398-0.75391 16.262 43.895 2.6211 10.719 11.539 53.797 12.559 59.414 0.88281 4.8477 2.1797 24.988 2.4062 31.199 2.1289-1.3984 6.0469-5.0625 7.4922-6.4219 0.57812-0.55469 1.0703-1.0078 1.4219-1.3242 0.10156-0.64062-1.5-3.375-2.4688-5.0117-1.7148-2.9102-3.4766-5.918-3.6133-8.6641-0.10156-2.0547-1.0078-3.3633-2.0781-4.8867-1.1719-1.6758-2.5078-3.5898-2.5078-6.5234 0-2.0391-0.22656-4.2812-0.49219-6.8633-0.33984-3.3125-0.71875-7.0664-0.71875-11.461 0-4.0312-2.3164-14.133-4.3594-23.023-1.8008-7.8594-3.3633-14.648-3.3633-17.242 0-0.51562 0.61719-51.73 4.457-54.742l0.61719-0.48047 1.0195 0.125c4.9883 1.2461 11.539 61.602 11.586 62.207 0.21484 3.0469 1.6484 17.23 3.1602 32.23 2.2305 22.016 3.8398 38.152 4.0547 41.793 1.3711-0.65625 3.8281-2.6328 4.7344-3.3633l0.88281-0.70703c0.46484-0.35156-0.20312-3.0469-0.54297-4.4844-0.49219-2.0039-1.0469-4.2695-1.0469-6.5352 0-5 0-6.6758-2.0547-11.688-1.5352-3.7773-1.4219-11.121-1.2852-18.906 0.0625-3.9531 0.125-7.6836-0.039062-10.809-0.1875-3.5-0.61719-9.1172-1.082-15.141-0.74219-9.6211-1.5742-20.531-1.5742-25.203 0-4.2812 2.7578-16.488 5.1133-25.633 5.3789-20.832 6.75-20.832 8.0742-20.832 2.0547 0 3.5391 0 3.5391 65.031 0 4.5977-1.2227 53.266-2.1797 64.512-0.33984 3.9805-0.20312 5.5781-0.050782 6.2109 0.25-0.10156 0.57813-0.23828 0.82031-0.35156 0.61719-0.28906 1.2969-0.59375 2.0156-0.79297 2.6211-0.74219 4.3711-3.918 4.3711-6.4102 0-1.0195-0.16406-3.793-0.36719-7.5195-0.42969-7.7227-1.082-19.383-1.082-28.164 0-12.543 2.5586-35.77 5.1758-42.309 0.76953-1.9258 2.9492-8.8672 5.4531-16.902 12.684-40.531 13.402-40.531 15.328-40.531h0.76953l0.65625 0.69141c2.6562 3.2617-4.5859 44.965-4.6602 45.379-1.3711 6.6641-6.9531 37.008-6.9531 44.031 0 5.918-4.4102 30.328-6.5234 42.07-0.20312 1.082-0.36719 2.0391-0.51562 2.8477 1.8398-1.4727 4.8359-4.168 8.8281-8.1484 0.74219-1.7148 2.0039-18.262 2.4805-24.496l0.22656-2.9961c0.49219-6.2227 15.051-59.285 18.957-67.586 3.8164-8.125 10.594-24.105 12.723-30 0.54297-1.5 1.6641-4.5859 3.8906-4.2812 1.7773 0.26562 2.6211 2.332 2.8594 6.9141 0.26562 5.3164-8.1602 35.012-11.398 45.406-0.90625 2.8828-2.7852 8.8281-5.1133 16.184-6.0078 18.992-15.645 49.41-18.148 58.012 1.0312-0.91797 2.168-2.0273 2.7578-2.6055 0.66797-0.65625 1.2227-1.1953 1.5352-1.4609 0.71875-0.95703 2.3789-7.3164 4.8867-18.793l0.125-0.56641c0.89453-4.1055 11.16-22.984 23.465-45.395 2.9609-5.4023 5.5664-10.125 7.3047-13.375 2.9844-5.5781 6.2969-14.422 9.4961-22.973 5.5938-14.965 8.1367-21.172 10.691-22.305 0.60547-0.26562 1.2578-0.28906 1.8398-0.050781 2.8984 1.1602 2.6445 6.8008-4.5586 37.887-1.2227 5.2266-2.2656 9.75-2.3945 11.035-0.25 2.5938-7.0547 14.168-23.227 40.871-5.1758 8.5508-10.844 17.898-13.957 23.363 4.8984-4.1445 12.66-11.602 15.555-15.039 4.1445-4.9102 41.363-26.992 46.414-28.25 2.3789-0.59375 15.09-3.1484 27.887-5.543 25.406-4.75 25.582-4.4219 26.273-3.0234l0.30078 0.60547-0.22656 0.66797c-0.39062 1.1211-0.51562 1.4609-53.656 26.047-16.02 7.418-31.148 14.41-33.148 15.555-0.67969 0.39062-1.7266 0.98438-3.0234 1.6992-3.8164 2.1289-13.113 7.332-18.742 10.934 2.5938-0.89453 5.8047-2.0898 8.9531-3.2734 11.398-4.2578 27.016-10.078 39.234-12.117 16.676-2.7852 50.215-4.9258 53.855-2.1406 0.46484 0.35156 0.75391 0.85547 0.80469 1.3984 0.22656 2.3438 0.32812 3.3008-87.109 19.824-2.6953 0.50391-5.1758 0.98438-7.4062 1.3984 4.1445 0 8.8789-0.023437 13.16-0.050781 11.488-0.0625 23.352-0.13672 28.035 0.27734 6.1836 0.55469 42.938 9.2695 42.938 14.145v0.70703l-0.55469 0.55469c-1.4609 1.3594-11.211 1.1328-72.887-3.0234-7.5703-0.50391-15.242-1.0195-21.902-1.4492 12.316 3.1094 41.703 14.422 50.758 18.641 9.2188 4.2812 26.574 19.008 24.953 23.465l-0.23828 0.65625-0.74219 0.36719c-1.1836 0.49219-3.9297 1.6758-92.637-37.812l-0.89453-0.39062c-6.1602-2.7461-8.1602-1.0469-13 3.0469-1.0977 0.93359-2.3047 1.9531-3.6914 3.0234-0.54297 0.42969-0.82031 0.71875-0.95703 0.89453 1.1445 0.80469 5.6445 1.5 8.6797 1.9531 4.168 0.62891 8.4883 1.2969 11.461 2.5938 4.4102 1.9258 68.719 43.895 68.719 51.148 0 0.86719-0.41406 1.5977-1.1445 1.9766-2.418 1.3086-7.6562-1.8008-25.758-13.93-8.6914-5.8203-17.672-11.852-21.574-13.312-5.6797-2.1289-17.508-9.1055-27.938-15.254-7.457-4.3945-14.484-8.5508-17.469-9.8477-5.8945-2.5703-9.6367 2.6445-11.172 5.5156 2.3945 2.9727 20.555 11.613 30.457 16.336 5.1406 2.4453 9.5742 4.5586 12.016 5.8828 8.3516 4.5078 49.551 43.617 49.551 48.43v0.98438l-1.0078 0.69141c-1.5117 0.80469-3.2617 1.6992-49.41-30.543l-1.3086-0.90625c-9.5859-6.6875-41.828-33.492-47.52-38.227-6.1836 3.1484-11.586 6.9023-12.117 8.4531 2.332 3.2617 25.555 17.723 38.152 25.57 6.8516 4.2578 12.758 7.9492 15.367 9.7617 8.6641 6.0195 33.73 40.656 33.73 45.207v1.0469l-1.0977 0.69141c-1.9648 0.86719-4.9883-1.1445-28.035-21.688-5.918-5.2773-11.5-10.254-14.41-12.543-4.5469-3.5898-15.922-13.664-26.93-23.402-10.531-9.3203-20.48-18.125-23.262-20.215-1.9414-1.4609-2.6211-1.3359-2.6211-1.3477-0.22656 0.16406-0.49219 1.1836-0.61719 1.6758-0.11328 0.42969-0.22656 0.83203-0.36719 1.2109 1.2344 1.9766 8.125 8.3125 12.316 12.168 3.6133 3.3242 6.7383 6.1953 8.1602 7.8086 4.0664 4.5703 24.773 38.516 31.879 55.922l0.79297 1.9414c3.6914 9.0195 3.918 9.5586 2.5078 10.578-1.2852 0.91797-2.3789-0.023438-4.3711-1.7383-1.5508-1.3242-3.8672-3.3242-6.8281-5.1875-10.656-6.75-39.133-54.688-44.031-67.07-2.5078-6.3242-4.5352-9.7617-6.0312-10.238-0.52734-0.17578-1.1836 0.0625-2.4453 0.88281-1.2852 0.83203 3.1758 8.8438 4.6367 11.473 1.0078 1.8125 1.9766 3.5508 2.6953 5.0391 3.1094 6.4883 5.957 23.113 6.4219 33.656 0.28906 6.4219 1.6133 17.949 3.7422 32.445l0.23828 1.6367-1.5742 1.1953zm-14.07-89.602c0.42969 0 0.86719 0.0625 1.3359 0.21484 2.6719 0.85547 4.9258 4.2578 8.0469 12.129 5.1641 13.035 33.566 59.715 42.762 65.547 2.1914 1.3984 4.043 2.832 5.5156 4.043-0.44141-1.0977-0.95703-2.3555-1.5234-3.7422l-0.79297-1.9414c-6.8281-16.727-27.434-50.645-31.301-55.004-1.3242-1.4844-4.5352-4.4453-7.9492-7.5703-12.594-11.574-14.32-13.602-13.227-15.516 0.050782-0.089844 0.10156-0.23828 0.16406-0.44141-1.5 1.0977-3.1602 2.2031-4.8242 1.6484-0.44141-0.15234-0.96875-0.45313-1.4102-1.082 0 0.023438-0.011719 0.050782-0.011719 0.074219l-0.125 0.65625-0.66797 0.55469c0.039063 0-0.074218 0.33984-0.16406 0.56641-0.30078 0.83203-0.80469 2.2305-2.293 2.5938-0.36719 0.089843-0.75391 0.10156-1.1602 0.039062 1.3594 0.62891 1.8516 2.5312 2.1406 4.3711 0.46484 2.9102 1.082 5.4297 1.7383 8.0859 1.3477 5.5039 2.7461 11.184 2.9844 21.059 0.22656 9.0312 6.7266 27.598 11.375 39.551-1.2227-9.2812-1.9648-16.551-2.1797-21.348-0.49219-11.148-3.4648-26.891-6.1094-32.41-0.69141-1.4375-1.625-3.1094-2.6055-4.8633-3.8047-6.8398-7.4062-13.289-3.5664-15.758 1.1211-0.71875 2.3945-1.4492 3.8398-1.4492zm-90.688 77.055c0.15234 0.23828 0.30078 0.30078 0.50391 0.32812 0.75391 0.0625 4.082-0.44141 13.211-10.328 8.0977-8.7773 56.074-52.672 60.395-55.27 0.98438-0.59375 2.2812-2.7461 3.3242-4.4844 0.21484-0.35156 0.42969-0.70703 0.62891-1.0312-1.1094-0.011719-2.9219-0.69141-6.4219-2.2305-3.5664-1.5625-10.605-5.2031-18.754-9.4219-13.465-6.9648-31.902-16.488-36.312-17.23-2.1016-0.35156-3.7266-0.57812-4.9766-0.73047 2.4297 1.4727 6.0312 4.0547 10.391 7.168 10.328 7.3828 25.922 18.527 32.887 19.309 20.277 2.2539 20.594 3.7656 20.906 5.2266 0.074219 0.33984 0.20312 1.5234-1.2227 2.3555-8.0117 4.7227-77.008 59.473-74.551 66.363zm100.27-83.305c0.70703 0.36719 1.3594 0.83203 1.9141 1.2461 2.8984 2.168 12.887 11.008 23.465 20.379 10.969 9.7109 22.32 19.75 26.789 23.289 2.9844 2.3555 8.6016 7.3555 14.547 12.672 7.0898 6.3242 16.992 15.152 22.168 19.07-5.4531-9.3438-23.34-34.133-30.746-39.273-2.543-1.7773-8.4258-5.4297-15.242-9.6719-31.363-19.535-39.523-25.277-39.699-27.961-0.0625-0.95703 0.41406-1.9883 1.2461-3.0352-1.9258 1.6641-3.3359 2.7188-4.4453 3.2891zm19.02-12.871 0.80469 0.66797c0.37891 0.31641 37.926 31.625 48.113 38.73l1.3086 0.91797c26.121 18.238 38.137 25.922 43.34 28.754-8.125-9.6211-38.191-38.691-45.859-42.836-2.3789-1.2852-6.7773-3.375-11.879-5.8047-21.461-10.215-31.223-15.305-32.297-18.441-0.20312-0.60547-0.17578-1.2344 0.089844-1.7617 0.94531-1.875 2.1914-3.6914 3.6914-5.1406-0.76953 0.1875-1.5625 0.16406-2.3164-0.35156-1.4844-1.0312-1.8125-3.4023-1.2969-9.3438 0.95703-11.184 2.168-59.664 2.168-64.25 0-22.859-0.32812-47.961-1.0312-58.113-3.2734 9.8008-9.2305 33.656-9.2305 39.551 0 4.5469 0.83203 15.391 1.5625 24.965 0.46484 6.0586 0.89453 11.699 1.082 15.227 0.17578 3.2383 0.10156 7.1914 0.039062 11.02-0.11328 6.7773-0.23828 14.461 1.0469 17.621 2.293 5.5938 2.293 7.7344 2.293 12.91 0 1.875 0.50391 3.9414 0.94531 5.7695 0.76953 3.1602 1.5 6.1602-0.60547 7.7969l-0.84375 0.66797c-1.2344 0.99609-2.3555 1.875-3.3867 2.582 0.45312-0.22656 0.89453-0.45312 1.3242-0.65625l0.94531-0.46484zm14.863-8.25c1.3711 0 2.832 0.30078 4.3711 0.95703 3.1602 1.3711 9.9609 5.3789 17.836 10.027 10.316 6.0977 22.016 12.984 27.434 15.012 4.2578 1.5859 12.984 7.457 22.23 13.641 7.1055 4.7734 16.387 10.984 20.707 13-8.4141-9.0938-57.973-43.227-65.621-46.562-2.5938-1.1328-6.8789-1.7891-10.656-2.3555-6.2344-0.95703-10.73-1.6367-11.449-4.3711-0.28906-1.1328 0.1875-2.1289 0.80469-2.8984-0.96875 0.39062-1.3984 0.17578-1.8008-0.039063-0.28906-0.15234-1.2227-0.74219-1.0078-2.1914 0.10156-0.62891 0.46484-2.6445 0.98438-5.5156 1.9414-10.73 6.4727-35.859 6.4727-41.488 0-7.3828 5.5781-37.723 7.0273-44.688 1.3477-6.5234 4.3945-27.445 5.1523-37.57-2.9492 7.9492-7.7852 23.402-10.996 33.656-2.6445 8.4375-4.7227 15.102-5.543 17.141-2.2656 5.668-4.9492 27.949-4.9492 41.109 0 8.6914 0.64062 20.305 1.082 27.988 0.21484 3.8164 0.36719 6.6484 0.36719 7.6953 0 2.543-1.1719 5.4922-3.25 7.4805 0.26562-0.023438 0.52734-0.039062 0.80469-0.039062zm-115.68-48.656c6.7773 12.078 23.992 40.746 28.93 45.875 2.1172 2.1914 5.7812 5.8438 9.8242 9.8477 11.184 11.109 18.602 18.539 19.609 20.391 0.31641 0.57812 0.95703 1.3086 1.4844 1.9023 0.55469 0.62891 1.1328 1.2734 1.3477 1.9531 0.80469-0.93359 1.6367-1.4492 2.6328-1.3867-1.1094-0.41406-2.418-1.3477-4.1172-2.9102-3.793-3.5-14.32-18.828-24.496-33.656-7.0039-10.203-13.617-19.836-16.891-23.906-5.1133-6.3477-13.211-13.844-18.312-18.098zm136.33 35.734c1.8125 0 3.8789 0.48047 6.3867 1.5859l0.89453 0.40234c55.191 24.562 81.277 35.141 88.508 37.281-2.9492-3.9297-13.629-13.98-22.508-18.113-11.02-5.125-47.738-18.918-53.871-19.145-0.17578-0.011719-16.398-0.79297-18.164-3.9688-1.1836 0.75391-2.0781 0.91797-2.9219 0.44141-0.23828-0.125-0.49219-0.32812-0.67969-0.61719-0.22656 0.71875-0.44141 1.0312-0.67969 1.2578-0.95703 0.95703-1.8516 1.8398-2.6719 2.6328 1.7266-1.0977 3.5273-1.7773 5.6914-1.7773zm-110.51-79.551c-1.1328 8.6133 8.7422 49.891 10.719 55.82 1.5859 4.7617 10.441 24.965 15.793 34.699 2.2539 4.1055 5.918 9.5234 9.1562 14.297 3.0469 4.5078 4.9883 7.418 6.1328 9.4102-4.0039-12.859-21.172-66.629-23.465-71.414-0.66797-1.3867-1.9766-4.8125-3.8164-9.5742-3.4258-8.918-11.082-28.805-14.535-33.238zm67.195 103.07c-0.0625 0.74219-0.36719 1.4102-0.99609 1.9648-0.33984 0.30078-0.80469 0.74219-1.3711 1.2734-0.23828 0.22656-0.48047 0.45312-0.70703 0.65625 1.7617-1.2852 3.8047-2.5195 5.7695-3.6133-0.85547 0.27734-1.625 0.28906-2.3164-0.050781-0.11328-0.0625-0.25-0.13672-0.39062-0.23828zm-42.371-122.54c-0.41406 7.0664 2.2812 29.41 3.6641 40.82 0.67969 5.6445 1.2227 10.102 1.3477 11.977 0.20312 3.0859 2.6836 9.5586 5.3164 16.426 3.1758 8.3008 6.7891 17.707 7.457 24.02 0.64062 6.082 3.1484 12.344 5.3516 17.859 1.8633 4.6602 3.3359 8.3398 3.3359 10.996 0 1.3477 0.1875 2.7852 0.42969 4.168-0.42969-8.1367-1.4492-23-2.1914-27.031-1.0195-5.5938-9.8984-48.531-12.52-59.223-4.5977-18.781-9.5586-34.953-12.203-40.027zm25.48-10.77c-1.5977 10.367-2.6211 41.348-2.6211 49.199 0 2.2148 1.6641 9.4844 3.2734 16.512 2.1797 9.5078 4.4336 19.348 4.4336 23.742 0 4.2305 0.36719 7.8984 0.70703 11.133 0.27734 2.6719 0.50391 4.9883 0.50391 7.1914 0 1.9141 0.85547 3.1367 1.9258 4.6719 1.1719 1.6875 2.5078 3.5898 2.6445 6.5742 0.089844 1.9531 1.7266 4.7227 3.1758 7.1797 0.60547 1.0312 1.2109 2.0664 1.6992 3.0352-0.45312-5.7305-2.3047-24.008-3.9531-40.379-1.5234-15.039-2.9609-29.234-3.1758-32.332-0.46484-6.7891-5.6289-45.004-8.6289-56.539zm65.082 105.18c4.4844 0 18.527 0.93359 41.125 2.457 23.832 1.5977 55.004 3.7031 66.555 3.8164-8.3516-3.375-28.137-9.0039-36.566-9.75-4.5352-0.40234-16.336-0.33984-27.746-0.26562-27.332 0.16406-27.344 0.074219-27.57-1.9648-0.089844-0.79297 0.28906-1.2852 0.78125-1.6133-0.20312 0-0.35156 0-0.50391-0.023438-1.1211-0.13672-1.6484-0.88281-1.7773-1.5352-0.35156-1.8398 0.57812-3.4258 24.699-16.902 1.2852-0.71875 2.332-1.2969 3.0117-1.6875 2.1172-1.2109 16.613-7.9102 33.387-15.68 15.254-7.0547 34.523-15.969 44.949-21.008-13.578 2.2656-39.32 7.2812-43.402 8.3008-4.4453 1.1094-41.109 22.91-44.727 27.207-0.17578 0.20312-18.578 19.824-22.18 19.008l-0.95703-0.22656-0.39062-1.1094c-0.31641-1.2578 0.20312-2.4688 16.727-29.75 9.4219-15.555 22.332-36.879 22.785-39.539 0.15234-1.4609 1.1211-5.6445 2.457-11.41 2.1406-9.2188 6.3477-27.344 6.2734-33.062-2.0391 3.2383-5.4648 12.418-8.0859 19.398-3.2383 8.6523-6.5859 17.609-9.6719 23.375-1.7383 3.25-4.3438 8-7.3164 13.402-8.8789 16.148-22.281 40.543-23.148 44.527l-0.125 0.56641c-3.4766 16.02-4.7852 19.598-5.9688 20.582-0.27734 0.22656-0.75391 0.70703-1.3359 1.2734-0.60547 0.59375-1.1602 1.1328-1.6758 1.625h0.41406zm27.469-123.16c-0.074219 0.20312-0.17578 0.44141-0.26562 0.69141-2.1914 6.082-8.9062 21.93-12.836 30.277-3.7422 7.9609-18.199 60.773-18.652 66.477l-0.22656 2.9727c-0.64062 8.4258-1.1445 14.105-1.5625 17.961 3.2891-10.945 11.562-37.066 17.406-55.535 2.332-7.3438 4.207-13.277 5.1016-16.172 3.9922-12.77 11.473-39.953 11.262-44.285-0.050782-0.99609-0.13672-1.7891-0.22656-2.3945zm85.383 95.484c-10.758 0-28.652 1.1445-42.281 3.4258-11.914 1.9883-27.355 7.7461-38.629 11.953-4.3945 1.6367-7.6836 2.8594-10.141 3.6758 3.4375-0.66797 8.7266-1.6641 15.227-2.8984 22.406-4.2305 65.367-12.355 80.105-16.086-1.2344-0.050782-2.6719-0.074219-4.2578-0.074219z" fill="#00bac2"/>
</svg>
