<?xml version="1.0" encoding="UTF-8"?>
<svg width=":width" height=":height" version="1.1" viewBox="0 0 128 128" xmlns="http://www.w3.org/2000/svg">
 <path d="m6.3984 0h115.2c3.5352 0 6.3984 3.5352 6.3984 6.3984v115.2c0 3.5352-2.8672 6.3984-6.3984 6.3984h-115.2c-3.5352 0-6.3984-3.5352-6.3984-6.3984v-115.2c0-3.5352 2.8672-6.3984 6.3984-6.3984z" fill="#702862"/>
 <path d="m59.656 47.902c1.3125-1.3125 1.3125-3.4375 0-4.75-1.3086-1.3125-3.4375-1.3125-4.75 0l-14.129 14.129 14.129 14.133c1.3125 1.3125 3.4414 1.3125 4.75 0 1.3125-1.3125 1.3125-3.4375 0-4.75l-6.0195-6.0234h15.402c4.6367 0 8.3945 3.7617 8.3945 8.3984 0 4.6367-3.7578 8.3945-8.3945 8.3945h-8.3984c-1.8555 0-3.3594 1.5039-3.3594 3.3594s1.5039 3.3594 3.3594 3.3594h8.3984c8.3477 0 15.113-6.7656 15.113-15.113 0-8.3477-6.7656-15.113-15.113-15.113h-15.402z" fill="#f8f8f8"/>
 <path d="m100.95 64c0 20.406-16.539 36.945-36.945 36.945s-36.945-16.539-36.945-36.945 16.539-36.945 36.945-36.945 36.945 16.539 36.945 36.945zm-6.7148 0c0 16.695-13.535 30.23-30.23 30.23s-30.227-13.535-30.227-30.23 13.531-30.227 30.227-30.227 30.23 13.531 30.23 30.227z" fill="#f8f8f8" fill-rule="evenodd"/>
</svg>
