<?xml version="1.0" encoding="UTF-8"?>
<svg width=":width" height=":height" version="1.1" viewBox="0 0 128 128" xmlns="http://www.w3.org/2000/svg">
 <path d="m6.3984 0h115.2c3.5352 0 6.3984 3.5352 6.3984 6.3984v115.2c0 3.5352-2.8672 6.3984-6.3984 6.3984h-115.2c-3.5352 0-6.3984-3.5352-6.3984-6.3984v-115.2c0-3.5352 2.8672-6.3984 6.3984-6.3984z" fill="#702862"/>
 <path d="m76.988 96.18h-3.2891c-0.96875-0.003907-1.793-0.71875-1.9297-1.6797l-0.41797-3.0469h-0.003906c-0.066406-0.37891-0.32422-0.69141-0.67969-0.83594l-2.9219-1.2109c-0.36328-0.15234-0.77734-0.10156-1.0898 0.14062l-2.4531 1.8477c-0.76953 0.5625-1.832 0.49609-2.5195-0.17188l-2.3281-2.3281v0.003907c-0.66406-0.6875-0.73828-1.75-0.17578-2.5195l1.8555-2.4531h0.003906c0.23438-0.31641 0.28516-0.73047 0.13281-1.0938l-1.2109-2.9219c-0.14453-0.35156-0.46094-0.60938-0.83594-0.67969l-3.0391-0.41797h-0.003907c-0.96484-0.13672-1.6797-0.95703-1.6797-1.9297v-3.3594c0-0.97266 0.71484-1.7969 1.6797-1.9297l3.0391-0.41797 0.003906-0.003906c0.37891-0.066406 0.69141-0.32422 0.83594-0.67969l1.2109-2.9219c0.15234-0.36328 0.10156-0.77344-0.13281-1.0898l-1.8906-2.4766c-0.5625-0.76953-0.49219-1.8359 0.17578-2.5195l2.3281-2.3281h-0.003906c0.6875-0.66016 1.7461-0.73828 2.5195-0.17578l2.4531 1.8555v0.003906c0.3125 0.23828 0.72656 0.29688 1.0938 0.14062l2.9219-1.2109c0.35156-0.14453 0.60938-0.46094 0.67969-0.83984l0.41797-3.0469c0.13672-0.96094 0.96094-1.6758 1.9297-1.6797h3.293c0.96875 0.003906 1.793 0.71875 1.9297 1.6797l0.41797 3.0469c0.066406 0.37891 0.31641 0.69531 0.67578 0.83984l2.9219 1.2109c0.36719 0.15234 0.78516 0.097656 1.0977-0.14062l2.4766-1.875c0.76953-0.55859 1.8281-0.48047 2.5195 0.17578l2.3672 2.3438c0.65625 0.6875 0.73047 1.7461 0.17578 2.5195l-1.8594 2.5195c-0.23828 0.3125-0.29688 0.72656-0.14063 1.0938l1.2109 2.9219c0.14844 0.35156 0.46094 0.60938 0.83984 0.67969l3.0469 0.41797c0.96484 0.13672 1.6797 0.95703 1.6797 1.9297v3.2852c0 0.97266-0.71484 1.7969-1.6797 1.9297l-3.0469 0.41797v0.003906c-0.37891 0.070313-0.69141 0.32812-0.83984 0.67969l-1.2109 2.9219c-0.15234 0.36328-0.097656 0.77734 0.14063 1.0898l1.8555 2.4531h0.003906c0.55469 0.76953 0.48047 1.832-0.17578 2.5195l-2.3281 2.3281c-0.6875 0.65625-1.75 0.73047-2.5195 0.16797l-2.4453-1.8477c-0.31641-0.23828-0.73437-0.29297-1.0977-0.14062l-2.9219 1.2109c-0.35547 0.14453-0.60938 0.46094-0.67578 0.83984l-0.41797 3.0469c-0.12109 0.98828-0.97656 1.7305-1.9727 1.7148zm-9.6289-7.7344c0.25391 0 0.50781 0.050782 0.74609 0.14063l2.9219 1.2109c0.63672 0.26953 1.082 0.85156 1.1836 1.5352l0.41797 3.0469c0.074219 0.54688 0.54688 0.95703 1.1016 0.95703h3.2891c0.55469-0.003907 1.0195-0.41016 1.0977-0.95703l0.41797-3.0469h0.003906c0.09375-0.6875 0.54297-1.2695 1.1836-1.5352l2.9219-1.2109c0.64062-0.26172 1.3711-0.16797 1.9219 0.25l2.4531 1.8555c0.44531 0.32812 1.0586 0.28516 1.4531-0.10156l2.3281-2.3281v0.003906c0.38281-0.39844 0.41406-1.0195 0.066407-1.4531l-1.8555-2.4531v0.003906c-0.40625-0.54297-0.49609-1.2617-0.24219-1.8906l1.2109-2.9219c0.26562-0.64062 0.85156-1.0977 1.5352-1.1953l3.0391-0.41797c0.54687-0.074219 0.95703-0.54688 0.95703-1.1016v-3.3164c0.011719-0.5625-0.39844-1.0469-0.95703-1.125l-3.0391-0.41797v-0.003906c-0.6875-0.097656-1.2734-0.55078-1.5352-1.1914l-1.2109-2.8984c-0.26953-0.64062-0.17578-1.3711 0.24219-1.9258l1.8555-2.4453c0.33594-0.44531 0.29297-1.0664-0.10156-1.4609l-2.3281-2.3281h0.003906c-0.39844-0.38281-1.0117-0.42578-1.4531-0.10156l-2.4492 1.8477c-0.55078 0.41797-1.2852 0.51172-1.9258 0.25l-2.9219-1.2109c-0.64453-0.27344-1.0977-0.86719-1.1836-1.5625l-0.41797-3.0469c-0.078125-0.54688-0.54688-0.95313-1.1016-0.95703h-3.2891c-0.55469 0-1.0234 0.41016-1.0977 0.95703l-0.42187 3.0469c-0.097657 0.68359-0.54688 1.2656-1.1836 1.5352l-2.9219 1.2109c-0.64062 0.26172-1.375 0.16797-1.9297-0.25l-2.4453-1.8242c-0.44531-0.33203-1.0625-0.28516-1.4609 0.10156l-2.3281 2.3281c-0.38672 0.39453-0.43359 1.0156-0.10547 1.4609l1.8555 2.4453c0.41797 0.55078 0.51172 1.2812 0.25 1.9258l-1.2109 2.9219c-0.26953 0.63672-0.85156 1.0898-1.5352 1.1914l-3.0469 0.41797v0.003906c-0.54688 0.074219-0.95703 0.54297-0.95703 1.0977v3.2852c0 0.55469 0.41016 1.0234 0.95703 1.0977l3.0469 0.41797c0.68359 0.10547 1.2656 0.55469 1.5352 1.1953l1.2188 2.957c0.26172 0.64062 0.16406 1.3711-0.25 1.9219l-1.8633 2.4102c-0.32813 0.44531-0.28516 1.0625 0.10156 1.4609l2.3281 2.3281-0.003906-0.003907c0.39844 0.38672 1.0156 0.42969 1.4609 0.10156l2.4453-1.8555c0.35156-0.26562 0.78516-0.40234 1.2266-0.39453zm-11.891-1.0273h-19.945c-1.0312 0-2.0195-0.41016-2.7461-1.1367-0.72656-0.73047-1.1328-1.7188-1.1328-2.75v-47.863c0-2.1445 1.7383-3.8789 3.8789-3.8789h47.863c2.1445 0 3.8867 1.7344 3.8906 3.8789v17.055c0 0.23047-0.1875 0.41797-0.41797 0.41797-0.23438 0-0.42188-0.1875-0.42188-0.41797v-9.4727h-53.949v40.305c0 1.6797 1.3594 3.043 3.0391 3.0469h19.945c0.23047 0 0.41797 0.1875 0.41797 0.41797 0 0.23438-0.1875 0.41797-0.41797 0.41797zm-22.984-45.008h53.918v-6.7148c-0.007813-1.6797-1.3711-3.043-3.0469-3.043h-47.863c-1.6797 0.007812-3.0352 1.3633-3.043 3.043zm42.824 43.707c-4.4102 0-8.3867-2.6562-10.078-6.7305-1.6953-4.0742-0.76953-8.7656 2.3477-11.891 3.1133-3.125 7.8047-4.0703 11.879-2.3945 4.082 1.6758 6.75 5.6445 6.7695 10.055-0.007812 6.0195-4.8633 10.91-10.883 10.957zm0-21.07c-4.0742 0-7.75 2.457-9.3086 6.2227-1.5625 3.7656-0.69922 8.0977 2.1836 10.98 2.8828 2.8828 7.2188 3.7422 10.984 2.1836 3.7617-1.5625 6.2188-5.2344 6.2188-9.3125-0.027344-5.5391-4.5039-10.027-10.043-10.078zm-2.0742 13.973c-0.1875 0-0.37109-0.046875-0.53516-0.13672-0.36719-0.19531-0.59375-0.57812-0.59766-0.99219v-5.4961c0.003907-0.41406 0.23438-0.79688 0.59766-0.99219 0.36719-0.19531 0.80859-0.17578 1.1602 0.050781l4.1992 2.7305c0.32031 0.20703 0.51172 0.55859 0.51172 0.94531 0 0.38281-0.19141 0.73828-0.51172 0.94531l-4.1992 2.7305v-0.003907c-0.18359 0.13672-0.39844 0.21094-0.625 0.21875zm0-6.8789c-0.042969-0.011719-0.089844-0.011719-0.13281 0-0.097656 0.042969-0.16016 0.14062-0.16016 0.25v5.4648c0 0.10547 0.058594 0.20312 0.15234 0.25391s0.20703 0.042969 0.30078-0.011719l4.1992-2.7305c0.089844-0.054688 0.13672-0.14844 0.13672-0.25 0-0.097657-0.050781-0.1875-0.13672-0.24219l-4.1992-2.7305c-0.050781-0.015625-0.10547-0.019531-0.16016-0.007812zm-22.453 2.25h-8.6172c-0.23437 0-0.42187-0.1875-0.42187-0.41797 0.007812-0.23047 0.19141-0.41406 0.42187-0.41797h8.6172c0.23047 0.003906 0.41406 0.1875 0.41797 0.41797 0 0.10938-0.042969 0.21875-0.12109 0.29688s-0.1875 0.12109-0.29688 0.12109zm-11.855 0h-2.75c-0.23047 0-0.41797-0.1875-0.41797-0.41797 0-0.23438 0.1875-0.41797 0.41797-0.41797h2.7461c0.23047 0.003906 0.41406 0.1875 0.42188 0.41797 0 0.10938-0.042969 0.21875-0.12109 0.29688s-0.1875 0.12109-0.30078 0.12109zm16.359-4.1328h-2.75c-0.23438 0-0.41797-0.1875-0.41797-0.41797 0-0.23438 0.1875-0.41797 0.41797-0.41797h2.7461c0.23438 0 0.41797 0.1875 0.41797 0.41797 0 0.23438-0.1875 0.41797-0.41797 0.41797zm-5.707 0h-5.418c-0.23438 0-0.42188-0.1875-0.42188-0.41797 0-0.23438 0.1875-0.41797 0.42188-0.41797h5.4141c0.23047 0 0.41797 0.1875 0.41797 0.41797 0 0.23438-0.1875 0.41797-0.41797 0.41797zm-8.6836 0h-2.7539c-0.23047 0-0.41797-0.1875-0.41797-0.41797 0-0.23438 0.1875-0.41797 0.41797-0.41797h2.7461c0.23438 0 0.42188 0.1875 0.42188 0.41797 0 0.23438-0.1875 0.41797-0.42188 0.41797zm14.395-4.375h-2.7539c-0.23438 0-0.41797-0.1875-0.41797-0.41797 0-0.23438 0.1875-0.42188 0.41797-0.42188h2.7461c0.23047 0.007812 0.41406 0.19141 0.41797 0.42188 0 0.10938-0.042969 0.21875-0.12109 0.29688s-0.1875 0.12109-0.29688 0.12109zm-5.707 0h-5.4219c-0.23438 0-0.42188-0.1875-0.42188-0.41797 0.007813-0.23047 0.19141-0.41406 0.42188-0.42188h5.4141c0.23047 0.007812 0.41406 0.19141 0.41797 0.42188 0 0.10938-0.042969 0.21875-0.12109 0.29688s-0.1875 0.12109-0.29688 0.12109zm-8.6836 0h-2.7539c-0.23047 0-0.41797-0.1875-0.41797-0.41797 0-0.23438 0.1875-0.42188 0.41797-0.42188h2.7461c0.23047 0.007812 0.41406 0.19141 0.42188 0.42188 0 0.10938-0.042969 0.21875-0.12109 0.29688s-0.1875 0.12109-0.30078 0.12109zm15.113-4.3672h-13.844c-0.23047-0.003906-0.41406-0.1875-0.42188-0.41797 0-0.23438 0.1875-0.41797 0.42188-0.41797h13.828c0.10938 0 0.21875 0.042968 0.29688 0.12109s0.12109 0.1875 0.12109 0.29688c-0.003906 0.23047-0.1875 0.41406-0.41797 0.41797zm-17.07 0h-2.7656c-0.23047 0-0.41797-0.1875-0.41797-0.41797 0-0.23438 0.1875-0.41797 0.41797-0.41797h2.7461c0.11328 0 0.21875 0.042968 0.30078 0.12109 0.078125 0.078125 0.12109 0.1875 0.12109 0.29688-0.007812 0.23047-0.19141 0.41406-0.42188 0.41797zm4.1992-3.7188h-0.007813c-0.050781 0.007813-0.10547 0.007813-0.15625 0-0.10547-0.042969-0.1875-0.125-0.23047-0.23047-0.042969-0.10547-0.039063-0.21875 0.003906-0.32422l4.1992-10.188c0.035156-0.11328 0.11719-0.20313 0.22266-0.25391s0.23047-0.054687 0.33594-0.007812c0.10938 0.042969 0.19531 0.13672 0.23438 0.24609 0.039062 0.10938 0.03125 0.23438-0.023438 0.33984l-4.1992 10.188v-0.003906c-0.074219 0.16797-0.25 0.26562-0.42969 0.23438zm6.8945-0.67969h-0.007812c-0.11328 0-0.22266-0.042969-0.30078-0.125-0.13672-0.16016-0.13672-0.39453 0-0.55469l4.1172-4.1055-4.1172-4.1562c-0.16016-0.16797-0.16016-0.42969 0-0.59375 0.078126-0.082031 0.1875-0.125 0.29688-0.125 0.11328 0 0.21875 0.042969 0.30078 0.125l4.4102 4.4102c0.078125 0.078124 0.12109 0.1875 0.12109 0.29687 0 0.11328-0.042969 0.21875-0.12109 0.30078l-4.4102 4.4102c-0.089844 0.089844-0.21094 0.13672-0.33594 0.125zm-9.5742 0h-0.007813c-0.11328-0.003907-0.21875-0.046876-0.29688-0.125l-4.4102-4.4102c-0.078125-0.078125-0.12109-0.1875-0.12109-0.30078 0-0.10938 0.042969-0.21875 0.12109-0.29688l4.4102-4.4102c0.078125-0.082031 0.1875-0.125 0.30078-0.125s0.21875 0.042969 0.30078 0.125c0.16016 0.16406 0.16016 0.42969 0 0.59375l-4.1172 4.1172 4.0703 4.1484c0.16016 0.16797 0.16016 0.42969 0 0.59375-0.085938 0.066406-0.19141 0.097656-0.30078 0.085937zm9.9492-17.332c-0.89844 0-1.7109-0.54297-2.0547-1.3711-0.34375-0.83203-0.15234-1.7891 0.48438-2.4258 0.63672-0.63672 1.5938-0.82812 2.4258-0.48438 0.83203 0.34766 1.3711 1.1602 1.3711 2.0547 0 1.2305-0.99609 2.2266-2.2266 2.2266zm0-3.6133c-0.55859 0-1.0625 0.33984-1.2773 0.85547-0.21484 0.51562-0.097656 1.1133 0.30078 1.5078 0.39844 0.39844 0.99219 0.51562 1.5117 0.30078 0.51563-0.21484 0.85156-0.72266 0.85156-1.2812 0-0.76563-0.62109-1.3867-1.3867-1.3867zm-6.1797 3.6133h0.003906c-0.90234 0-1.7148-0.54297-2.0547-1.3711-0.34766-0.83203-0.15234-1.7891 0.48047-2.4258 0.63672-0.63672 1.5938-0.82812 2.4258-0.48438 0.83203 0.34766 1.3711 1.1602 1.3711 2.0547 0 1.2305-0.99609 2.2266-2.2227 2.2266zm0-3.6133h0.003906c-0.55859 0-1.0664 0.33984-1.2812 0.85547s-0.09375 1.1133 0.30078 1.5078c0.39453 0.39844 0.99219 0.51562 1.5078 0.30078 0.51562-0.21484 0.85547-0.72266 0.85547-1.2812 0-0.76563-0.62109-1.3867-1.3867-1.3867zm-6.1797 3.6133h0.003907c-0.90234 0-1.7109-0.54297-2.0547-1.3711-0.34375-0.83203-0.15234-1.7891 0.48047-2.4258 0.63672-0.63672 1.5938-0.82812 2.4258-0.48438 0.83203 0.34766 1.375 1.1602 1.375 2.0547 0 1.2305-1 2.2266-2.2266 2.2266zm0-3.6133h0.003907c-0.55859 0-1.0625 0.33984-1.2812 0.85547-0.21484 0.51562-0.09375 1.1133 0.30078 1.5078 0.39844 0.39844 0.99219 0.51562 1.5078 0.30078 0.51953-0.21484 0.85547-0.72266 0.85547-1.2812 0-0.76563-0.62109-1.3867-1.3867-1.3867zm44.578 3.6016h-15.066c-1.2266 0-2.2148-0.99219-2.2148-2.2148s0.99219-2.2148 2.2148-2.2148h15.07c0.23438 0 0.42188 0.1875 0.42188 0.42188 0 0.23047-0.1875 0.41797-0.42188 0.41797h-15.07c-0.76172 0-1.3789 0.61719-1.3789 1.375 0 0.76172 0.61719 1.3789 1.3789 1.3789h15.07c0.11328 0 0.21875 0.042969 0.30078 0.12109 0.078125 0.078125 0.12109 0.1875 0.12109 0.29688s-0.042969 0.21875-0.12109 0.29688-0.1875 0.12109-0.30078 0.12109z" fill="#f8f8f8"/>
</svg>
