<?xml version="1.0" encoding="UTF-8"?>
<svg width=":width" height=":height" version="1.1" viewBox="0 0 128 128" xmlns="http://www.w3.org/2000/svg">
 <path d="m6.3984 0h115.2c3.5352 0 6.3984 3.5352 6.3984 6.3984v115.2c0 3.5352-2.8672 6.3984-6.3984 6.3984h-115.2c-3.5352 0-6.3984-3.5352-6.3984-6.3984v-115.2c0-3.5352 2.8672-6.3984 6.3984-6.3984z" fill="#702862"/>
 <path d="m85.48 59.215c-0.97266-1.3594-1.8906-2.7578-2.8594-4.1211-0.82422-1.168-2.0078-1.6953-3.4102-1.7891-0.48047-0.027344-0.96484-0.074219-1.4414-0.03125-2.1641 0.19922-4.3242 0.51172-6.4922 0.62109-3.0391 0.15625-6.0859 0.24609-9.125 0.22266-2.3086-0.023438-4.6211-0.23438-6.9219-0.42969-1.8008-0.16016-3.5938-0.42969-5.3867-0.65234-0.003906 0.027344-0.007812 0.054688-0.007812 0.082032-0.34375-0.007813-0.6875-0.015626-1.0312-0.023438-1.7422-0.054688-3.1094 0.65625-4.0977 2.0781-0.79688 1.1406-1.5586 2.3164-2.3555 3.4648-0.49609 0.70703-0.89453 1.4492-0.90234 2.332-0.011719 1.0547-0.039063 2.1133 0.085937 3.1523 0.66406 5.2812 3.1484 9.7227 6.582 13.656 1.6953 1.9414 3.8867 3.043 6.543 2.5508 1.2695-0.23047 2.4922-0.75 3.7109-1.1992 2.4766-0.91016 4.9961-1.4062 7.5977-0.70703 1.6094 0.42969 3.168 1.0312 4.7461 1.5742 1.5078 0.51172 3.0078 0.88281 4.6328 0.51562 2.418-0.54297 4.0664-2.125 5.5586-3.9258 3.1797-3.832 5-8.2344 5.3828-13.203 0.10938-1.4492 0.097657-2.8906-0.80859-4.168zm-26.164 11.02c-0.007812 0.042969-0.046875 0.078125-0.12109 0.18359-1.3164-0.17969-2.6719-0.33594-4.0234-0.55469-0.85547-0.14062-1.707-0.32812-2.5391-0.55859-2.7031-0.75781-4.3359-2.7344-5.8125-5.0938 2.2969-0.74219 4.3398-1.9375 6.8047-1.6289 3.8125 0.47656 6.3945 3.8984 5.6914 7.6523zm18.738-2.4336c-1.2109 1.1016-2.6797 1.6719-4.2539 1.9453-1.8633 0.32422-3.75 0.53125-5.6641 0.79688-0.76562-3.7695 1.5469-7.0781 5.4141-7.7148 1.0039-0.16797 2.1055-0.050781 3.1016 0.1875 1.3867 0.33594 2.7109 0.91406 4.1602 1.4258-0.81641 1.3242-1.707 2.4062-2.7578 3.3594z" fill="#f8f8f8" fill-rule="evenodd"/>
</svg>
