<?xml version="1.0" encoding="UTF-8"?>
<svg width=":width" height=":height" version="1.1" viewBox="0 0 512 512" xmlns="http://www.w3.org/2000/svg">
 <path d="m25.602 0h460.8c14.137 0 25.602 14.137 25.602 25.602v460.8c0 14.137-11.461 25.602-25.602 25.602h-460.8c-14.137 0-25.602-14.137-25.602-25.602v-460.8c0-14.137 11.461-25.602 25.602-25.602z" fill=":bgcolor"/>
 <path d="m235.39 370.2v-18.648h27.059v-31.633c5.6992-0.73047 11.172-2.207 16.293-4.3555l7.75 13.422-23.43 13.527 15.699 27.195c-7.4297 1.4961-15.113 2.2852-22.977 2.2852-6.957 0-13.77-0.61719-20.395-1.793zm-88.188-73 16.023-9.25 13.527 23.43 27.41-15.824c3.4258 4.4805 7.4375 8.4922 11.918 11.918l-7.7656 13.449-23.43-13.527-15.211 26.348c-9.6016-10.594-17.273-22.961-22.473-36.543zm126.18-156.31v22.066h-27.059v31.629c-5.6992 0.73047-11.172 2.207-16.297 4.3555l-7.75-13.422 23.434-13.527-16.895-29.266c8.6562-2.0664 17.684-3.168 26.969-3.168 5.9805 0 11.855 0.45703 17.598 1.332zm91.398 74.559-19.234 11.105-13.527-23.434-27.414 15.828c-3.4258-4.4844-7.4336-8.4922-11.914-11.918l7.7617-13.449 23.434 13.527 17.336-30.027c10.172 11.035 18.238 24.039 23.559 38.367zm-38.23 105.4 13.527-23.434-27.383-15.809c2.1484-5.125 3.6289-10.594 4.3555-16.297h15.512v27.059h33.531c-4.7695 14.332-12.258 27.434-21.855 38.691zm-50.141-41.578 14.09 8.1367c-1.8047 2.1562-3.7969 4.1484-5.957 5.9531zm-13.961 8.0625 8.1484 14.113c-2.6133 0.96484-5.3438 1.6875-8.1484 2.1758zm-16.125 0v16.289c-2.8047-0.48828-5.5352-1.2109-8.1484-2.1758zm-38.309-22.023h16.285l-14.113 8.1484c-0.96094-2.6133-1.6875-5.3398-2.1719-8.1484zm-25.793-71.66-13.531 23.43 27.387 15.812c-2.1523 5.125-3.6289 10.594-4.3594 16.297h-15.508v-27.059h-31.672c4.2969-14.18 11.234-27.219 20.238-38.551zm42.082 55.539h-16.289c0.48438-2.8086 1.2109-5.5352 2.1719-8.1523zm8.0586-13.961-14.09-8.1367c1.8047-2.1562 3.7969-4.1523 5.957-5.957zm13.961-8.0625-8.1484-14.113c2.6133-0.96484 5.3438-1.6875 8.1484-2.1758zm16.125 0v-16.285c2.8047 0.48438 5.5352 1.207 8.1484 2.1719zm38.309 38.145c-0.48828 2.8086-1.2109 5.5352-2.1719 8.1484l-14.117-8.1484zm-16.289-16.121 14.117-8.1484c0.96094 2.6133 1.6836 5.3398 2.1719 8.1484zm6.0312-22.098-14.09 8.1367 8.1328-14.094c2.1602 1.8047 4.1523 3.8008 5.957 5.957zm-0.99609-82.539c14.648 4.4492 28.078 11.719 39.66 21.172l-11.18 19.359-23.43-13.527-15.812 27.383c-5.1211-2.1484-10.594-3.625-16.293-4.3555v-15.508h27.055zm-65.816 21.535-23.43 13.527 15.824 27.414c-4.4805 3.4258-8.4922 7.4336-11.918 11.918l-13.449-7.7656 13.527-23.434-28.301-16.34c10.668-10.102 23.242-18.211 37.125-23.715zm-84.121 89.688c0-5.9531 0.45312-11.805 1.3203-17.52h19.203v27.055h31.629c0.73047 5.7031 2.207 11.172 4.3555 16.297l-13.422 7.75-13.527-23.434-26.715 15.426c-1.8555-8.2344-2.8438-16.789-2.8438-25.574zm78.707 31.633 14.09-8.1367-8.1328 14.09c-2.1602-1.8047-4.1523-3.7969-5.957-5.9531zm0.99609 78.699c-13.871-4.6016-26.594-11.75-37.605-20.891l9.1211-15.801 23.434 13.527 15.809-27.383c5.125 2.1484 10.598 3.625 16.297 4.3555v15.508h-27.055zm65.812-17.695 23.434-13.531-15.824-27.41c4.4805-3.4258 8.4883-7.4375 11.918-11.918l13.449 7.7656-13.527 23.43 28.031 16.188c-10.953 9.6641-23.738 17.297-37.762 22.309zm86.918-92.637c0 6.9805-0.62109 13.824-1.8047 20.469h-21.512v-27.055h-31.633c-0.72656-5.7031-2.207-11.172-4.3555-16.297l13.422-7.75 13.527 23.434 29.773-17.188c1.6875 7.8672 2.582 16.023 2.582 24.387zm-116.21-132.34c-72.973 0-132.34 59.367-132.34 132.34 0 72.969 59.367 132.34 132.34 132.34s132.34-59.367 132.34-132.34c0-72.973-59.363-132.34-132.34-132.34z" fill=":fgcolor"/>
</svg>
