<?xml version="1.0" encoding="UTF-8"?>
<svg width=":width" height=":height" version="1.1" viewBox="0 0 128 128" xmlns="http://www.w3.org/2000/svg">
 <path d="m6.3984 0h115.2c3.5352 0 6.3984 3.5352 6.3984 6.3984v115.2c0 3.5352-2.8672 6.3984-6.3984 6.3984h-115.2c-3.5352 0-6.3984-3.5352-6.3984-6.3984v-115.2c0-3.5352 2.8672-6.3984 6.3984-6.3984z" fill="#702862"/>
 <path d="m68.684 44.766 3.2734-6.543-5.9531-11.91-5.9531 11.906 3.2734 6.543v0.003906c-0.41406 0.38281-0.65234 0.91797-0.65234 1.4844v7.7578c0 0.77344 0.44531 1.4844 1.1445 1.8203v43.664c0 0.58203 0.23047 1.1406 0.64062 1.5508 0.41016 0.41406 0.96484 0.64062 1.5469 0.64062 1.2109 0 2.1914-0.98047 2.1914-2.1875v-43.668c0.69922-0.33594 1.1445-1.0469 1.1445-1.8203v-7.7578c0-0.5625-0.23438-1.1016-0.65234-1.4844z" fill="#f8f8f8"/>
</svg>
