<?xml version="1.0" encoding="UTF-8"?>
<svg width=":width" height=":height" version="1.1" viewBox="0 0 128 128" xmlns="http://www.w3.org/2000/svg">
 <path d="m6.3984 0h115.2c3.5352 0 6.3984 3.5352 6.3984 6.3984v115.2c0 3.5352-2.8672 6.3984-6.3984 6.3984h-115.2c-3.5352 0-6.3984-3.5352-6.3984-6.3984v-115.2c0-3.5352 2.8672-6.3984 6.3984-6.3984z" fill="#702862"/>
 <path d="m64 102.52c10.219 0 20.016-4.0586 27.238-11.285 7.2266-7.2227 11.285-17.02 11.285-27.238s-4.0586-20.016-11.285-27.238c-7.2227-7.2266-17.02-11.285-27.238-11.285s-20.016 4.0586-27.238 11.285c-7.2266 7.2227-11.285 17.02-11.285 27.238 0.011719 10.215 4.0742 20.004 11.297 27.227 7.2227 7.2227 17.012 11.285 27.227 11.297zm0-69.527c8.2188 0 16.102 3.2656 21.914 9.0781s9.0781 13.695 9.082 21.914c0 8.2227-3.2656 16.105-9.0781 21.918-5.8086 5.8125-13.691 9.0781-21.914 9.082-8.2188 0-16.102-3.2656-21.914-9.0742-5.8164-5.8125-9.082-13.695-9.0859-21.914 0.011719-8.2188 3.2773-16.098 9.0898-21.906 5.8086-5.8125 13.688-9.0781 21.906-9.0898zm3.5078 49.883c0 1.6094-0.97266 3.0625-2.4609 3.6797-1.4883 0.61719-3.1992 0.27344-4.3398-0.86328-1.1367-1.1406-1.4766-2.8516-0.86328-4.3398 0.61719-1.4883 2.0703-2.457 3.6797-2.457 1.0586 0 2.0742 0.41797 2.8203 1.168 0.74609 0.74609 1.1641 1.7617 1.1641 2.8203zm-16.406-31.035c-0.34766-0.98828-0.28516-2.0781 0.17188-3.0234 2.2227-4.668 6.918-7.6523 12.09-7.6797h0.082031c7.3438 0.027344 13.359 5.8438 13.637 13.188 0.1875 5.9531-3.5508 11.324-9.1953 13.219 0 0-0.39453 0.13672-0.39453 0.37109v3.1602c0 2.1875-1.7773 3.9609-3.9648 3.9609s-3.9609-1.7734-3.9609-3.9609v-3.1602c0.035156-3.5898 2.3594-6.7578 5.7734-7.875 2.3516-0.79688 3.9062-3.0391 3.8281-5.5234-0.16016-3.0352-2.6484-5.4297-5.6914-5.4727-2.1562 0.023437-4.1133 1.2734-5.0391 3.2227-0.6875 1.4648-2.1953 2.3633-3.8125 2.2695-1.6133-0.09375-3.0078-1.1602-3.5234-2.6953z" fill="#f8f8f8"/>
</svg>
