<?xml version="1.0" encoding="UTF-8"?>
<svg width=":width" height=":height" version="1.1" viewBox="0 0 128 128" xmlns="http://www.w3.org/2000/svg">
 <path d="m6.3984 0h115.2c3.5352 0 6.3984 3.5352 6.3984 6.3984v115.2c0 3.5352-2.8672 6.3984-6.3984 6.3984h-115.2c-3.5352 0-6.3984-3.5352-6.3984-6.3984v-115.2c0-3.5352 2.8672-6.3984 6.3984-6.3984z" fill="#702862"/>
 <path d="m89.082 59.496c0.84766 0.70312 1.6328 1.4922 2.2578 2.4141-0.46094-0.95312-1.1094-1.793-1.8164-2.5625 0.039062 0.003906 0.0625 0.003906 0.082031 0.007813 0.33203 0.0625 0.67188 0.10547 0.98828 0.20312 1.4414 0.43359 2.2656 1.4609 2.3867 2.8711 0.027343 0.32812 0.003906 0.66016-0.019531 0.98828-0.011719 0.18359-0.058594 0.36328-0.097657 0.55859l-0.14453-0.16406c-0.26562-0.28906-0.59375-0.50391-0.9375-0.70312-0.45703-0.26562-0.92578-0.50781-1.3828-0.75391-0.41406-0.22266-0.78125-0.47656-1.0664-0.79688-0.33594-0.37891-0.45703-0.79297-0.42188-1.2617 0.015625-0.26562 0.078125-0.52344 0.17188-0.80078zm-0.28125 2.1055c-0.11328 0.64844-0.47656 1.207-0.94531 1.7109 0.58594-0.48828 1.0352-1.0664 1.2305-1.7734 0.023437 0.039063 0.039062 0.058594 0.046874 0.078126 0.25391 0.55469 0.16016 1.1055-0.30078 1.582-0.40625 0.42188-0.95703 0.68359-1.5703 0.86719-0.039063 0.011719-0.082031 0.019532-0.125 0.03125-0.003907-0.007812-0.007813-0.015625-0.007813-0.019531 0.13672-0.31641 0.16797-0.64453 0.22656-0.97266 0.039062-0.23828 0.085937-0.47656 0.19531-0.71094 0.19141-0.39453 0.5625-0.6875 1.25-0.79297z" fill="#f8f8f8"/>
 <path d="m89.082 59.496c-0.09375 0.27734-0.15625 0.53516-0.17188 0.79688-0.03125 0.46484 0.089844 0.88281 0.42188 1.2617 0.28516 0.32031 0.65234 0.57422 1.0664 0.79687 0.45703 0.24609 0.92578 0.48828 1.3828 0.75391 0.33984 0.19922 0.67188 0.41406 0.9375 0.70312l0.14453 0.16406c0.039063-0.19922 0.082031-0.375 0.097657-0.55859 0.023437-0.32812 0.046874-0.66016 0.019531-0.98828-0.12109-1.4102-0.94141-2.4375-2.3867-2.8711-0.31641-0.097657-0.65625-0.14063-0.98828-0.20313-0.019531-0.003906-0.039063-0.003906-0.082031-0.007812 0.70703 0.76953 1.3555 1.6094 1.8164 2.5625-0.625-0.91797-1.4102-1.707-2.2578-2.4102z" fill="#f8f8f8"/>
 <path d="m88.801 61.602c-0.6875 0.10547-1.0625 0.39844-1.25 0.79297-0.10938 0.23438-0.15625 0.47266-0.19531 0.71094-0.054688 0.32812-0.089844 0.66016-0.22656 0.97266 0 0.003906 0.003906 0.007813 0.007813 0.019531 0.042969-0.011718 0.085937-0.019531 0.125-0.03125 0.61328-0.17969 1.1641-0.44531 1.5703-0.86719 0.46484-0.47656 0.55469-1.0273 0.30078-1.582-0.007812-0.019532-0.023437-0.035157-0.046874-0.078126-0.19531 0.70703-0.64453 1.2852-1.2305 1.7734 0.46875-0.50391 0.83203-1.0664 0.94531-1.7109z" fill="#f8f8f8"/>
 <path d="m87.816 54.988c0.96094 0.53516 1.8789 1.1641 2.6641 1.957-0.62891-0.85547-1.4219-1.5586-2.2578-2.1836 0.039063-0.003907 0.0625-0.007813 0.082032-0.007813 0.33594 0 0.67969-0.019531 1.0078 0.015625 1.4961 0.16016 2.4961 1.0156 2.875 2.3828 0.085938 0.31641 0.125 0.64844 0.16406 0.97656 0.019532 0.17969 0.007813 0.36719 0.007813 0.57031-0.070313-0.054688-0.12109-0.097657-0.17188-0.13672-0.3125-0.23828-0.67578-0.39062-1.0508-0.52344-0.49609-0.17578-1.0039-0.32812-1.4961-0.48828-0.44922-0.14062-0.85547-0.32422-1.1953-0.58594-0.39844-0.30859-0.59375-0.69531-0.64844-1.1602-0.035156-0.25781-0.023437-0.52344 0.019531-0.81641zm0.11328 2.1211c0.007812 0.65625-0.24609 1.2734-0.61328 1.8516 0.48438-0.58594 0.82422-1.2344 0.88281-1.9648 0.03125 0.035156 0.046875 0.050781 0.058593 0.066406 0.35547 0.5 0.36328 1.0586-0.007812 1.6094-0.32422 0.48828-0.81641 0.84766-1.3867 1.1367-0.039062 0.019531-0.078125 0.035156-0.11719 0.054687-0.003906-0.007812-0.011719-0.011719-0.007813-0.015625 0.078125-0.33203 0.050781-0.66406 0.042969-0.99609-0.003906-0.24219-0.003906-0.48437 0.0625-0.73047 0.11719-0.42578 0.42969-0.78125 1.0859-1.0117z" fill="#f8f8f8"/>
 <path d="m87.816 54.988c-0.039062 0.28906-0.054687 0.55469-0.023437 0.81641 0.054687 0.46484 0.25 0.85156 0.64844 1.1602 0.33984 0.26172 0.75 0.44531 1.1953 0.58594 0.49609 0.15625 1 0.30859 1.4961 0.48828 0.37109 0.13281 0.73828 0.28516 1.0508 0.52344 0.050781 0.039062 0.10156 0.082031 0.17188 0.13672 0-0.20312 0.011719-0.38672-0.007813-0.57031-0.035156-0.32812-0.074218-0.66016-0.16406-0.97656-0.37891-1.3672-1.3789-2.2266-2.875-2.3828-0.33203-0.035156-0.67188-0.019531-1.0078-0.015625-0.019531 0-0.039062 0.003906-0.082031 0.007813 0.83984 0.625 1.6289 1.332 2.2578 2.1836-0.78125-0.79297-1.6992-1.4219-2.6602-1.957z" fill="#f8f8f8"/>
 <path d="m87.93 57.109c-0.65625 0.23047-0.96875 0.58984-1.082 1.0078-0.066406 0.25-0.066406 0.49219-0.0625 0.73047 0.003906 0.33203 0.03125 0.66406-0.042968 0.99609 0 0.003906 0.003906 0.007812 0.007812 0.015625 0.039062-0.019531 0.078125-0.035156 0.11719-0.054687 0.57031-0.28906 1.0625-0.65234 1.3867-1.1367 0.36719-0.55078 0.35938-1.1094 0.007813-1.6094-0.011719-0.015625-0.027344-0.03125-0.058594-0.066406-0.0625 0.73047-0.39844 1.3828-0.88281 1.9648 0.35938-0.57422 0.61719-1.1914 0.60938-1.8477z" fill="#f8f8f8"/>
 <path d="m85.734 50.793c1.043 0.34766 2.0625 0.79688 2.9805 1.4297-0.77734-0.72266-1.6836-1.2695-2.6211-1.7305 0.039062-0.011719 0.058594-0.019532 0.078125-0.023438 0.32812-0.0625 0.66406-0.14453 0.99609-0.16797 1.5-0.12109 2.6406 0.53516 3.2656 1.8125 0.14453 0.29688 0.24609 0.61328 0.33984 0.92969 0.054687 0.17578 0.074218 0.35938 0.11328 0.55859-0.078125-0.042968-0.13672-0.074218-0.19531-0.10156-0.35156-0.17578-0.73828-0.25781-1.1289-0.32031-0.52344-0.082032-1.0469-0.13672-1.5625-0.20313-0.46484-0.054687-0.90234-0.16016-1.2852-0.35547-0.44922-0.23047-0.71094-0.57422-0.85156-1.0195-0.078125-0.25-0.11328-0.51562-0.12891-0.80859zm0.50391 2.0625c0.12891 0.64453-0.007812 1.3008-0.25781 1.9336 0.37109-0.66406 0.57812-1.3672 0.50391-2.0977 0.039063 0.027344 0.054687 0.039063 0.070313 0.054688 0.4375 0.42578 0.55078 0.97266 0.29297 1.582-0.22656 0.53906-0.64453 0.98438-1.1523 1.375-0.035156 0.027344-0.070312 0.050781-0.10547 0.074219-0.007813-0.007813-0.011719-0.011719-0.011719-0.015625 0.011719-0.33984-0.074219-0.66016-0.14062-0.98828-0.050781-0.23438-0.089844-0.47266-0.074219-0.73047 0.03125-0.42969 0.27344-0.83984 0.875-1.1875z" fill="#f8f8f8"/>
 <path d="m85.734 50.793c0.015625 0.29297 0.050781 0.55469 0.12891 0.80859 0.14062 0.44531 0.40234 0.78906 0.85156 1.0195 0.38281 0.19531 0.81641 0.29688 1.2852 0.35547 0.51562 0.0625 1.0391 0.11719 1.5625 0.20313 0.39062 0.0625 0.77734 0.14453 1.1289 0.32031 0.058594 0.027344 0.11719 0.0625 0.19531 0.10156-0.039063-0.19922-0.058594-0.38281-0.11328-0.55859-0.097657-0.31641-0.19531-0.63281-0.33984-0.92969-0.625-1.2734-1.7656-1.9297-3.2656-1.8125-0.33203 0.023438-0.66406 0.10547-0.99609 0.16797-0.019531 0.003906-0.039063 0.011719-0.078125 0.023438 0.9375 0.46094 1.8477 1.0078 2.6211 1.7305-0.91797-0.63281-1.9336-1.082-2.9805-1.4297z" fill="#f8f8f8"/>
 <path d="m86.238 52.855c-0.60156 0.34766-0.84375 0.75781-0.875 1.1914-0.019531 0.25781 0.023438 0.49609 0.074219 0.73047 0.066406 0.32422 0.15625 0.64453 0.14062 0.98828 0 0.003906 0.003906 0.007813 0.011719 0.015625 0.035156-0.023438 0.070312-0.050781 0.10547-0.074219 0.50781-0.39062 0.92188-0.83594 1.1523-1.375 0.25781-0.60938 0.14844-1.1562-0.29297-1.582-0.015626-0.015625-0.035157-0.027344-0.070313-0.054688 0.074219 0.73047-0.13672 1.4297-0.50391 2.0977 0.25391-0.63672 0.38672-1.293 0.25781-1.9375z" fill="#f8f8f8"/>
 <path d="m82.922 47.051c1.0898 0.14844 2.1719 0.40625 3.1914 0.85938-0.89453-0.56641-1.8867-0.9375-2.8945-1.2188 0.035156-0.019531 0.054688-0.03125 0.070312-0.039062 0.3125-0.12109 0.625-0.26172 0.94531-0.34766 1.4531-0.39453 2.6914 0.042968 3.543 1.1797 0.19922 0.26172 0.35156 0.55859 0.50391 0.84766 0.085938 0.16016 0.14062 0.33984 0.21484 0.52734l-0.21094-0.066406c-0.375-0.10547-0.77344-0.11719-1.168-0.10547-0.52734 0.015625-1.0547 0.054688-1.5742 0.089844-0.46875 0.03125-0.91797 0.011718-1.3281-0.11328-0.48438-0.14453-0.80859-0.43359-1.0273-0.84766-0.11328-0.22656-0.19922-0.48047-0.26562-0.76562zm0.87109 1.9375c0.24609 0.60938 0.23438 1.2773 0.10156 1.9492 0.24219-0.72266 0.31641-1.4492 0.10938-2.1523 0.042969 0.019532 0.0625 0.027344 0.082032 0.039063 0.50781 0.33984 0.72266 0.85547 0.57812 1.5039-0.125 0.57031-0.45312 1.0859-0.87891 1.5625-0.027344 0.03125-0.058594 0.0625-0.089844 0.09375-0.007812-0.007813-0.015624-0.007813-0.015624-0.011719-0.050782-0.33984-0.19531-0.63672-0.32031-0.94531-0.089844-0.22266-0.17969-0.44922-0.20703-0.70703-0.050782-0.43359 0.11328-0.87891 0.64062-1.332z" fill="#f8f8f8"/>
 <path d="m82.922 47.051c0.066406 0.28516 0.15234 0.53516 0.27344 0.76953 0.21875 0.41406 0.54297 0.70313 1.0273 0.84766 0.41016 0.12109 0.85938 0.14062 1.3281 0.11328 0.51953-0.035156 1.043-0.074219 1.5742-0.089844 0.39453-0.011718 0.78906-0.003906 1.168 0.10547l0.21094 0.066406c-0.074218-0.1875-0.12891-0.36328-0.21484-0.52734-0.15234-0.28906-0.30859-0.58594-0.50391-0.84766-0.84766-1.1367-2.0859-1.5742-3.543-1.1797-0.32031 0.085937-0.63281 0.22656-0.94531 0.34766-0.019531 0.007812-0.035156 0.019531-0.070313 0.039062 1.0078 0.28125 2 0.65234 2.8945 1.2188-1.0273-0.45703-2.1094-0.71094-3.1992-0.86328z" fill="#f8f8f8"/>
 <path d="m83.793 48.988c-0.52734 0.45312-0.69141 0.89844-0.64062 1.332 0.027344 0.25781 0.11719 0.48047 0.20703 0.70703 0.125 0.30859 0.26953 0.60547 0.32031 0.94531 0 0.003906 0.007812 0.003906 0.015624 0.011719 0.03125-0.03125 0.0625-0.0625 0.089844-0.09375 0.42578-0.47656 0.75391-0.99219 0.87891-1.5625 0.14453-0.64844-0.070312-1.1641-0.57812-1.5039-0.019532-0.011719-0.039063-0.019531-0.082032-0.039063 0.20703 0.70312 0.13281 1.4297-0.10938 2.1523 0.13281-0.67188 0.14453-1.3398-0.10156-1.9492z" fill="#f8f8f8"/>
 <path d="m79.469 43.887c1.0977-0.050781 2.2109 0 3.2969 0.26172-0.98438-0.39453-2.0273-0.57813-3.0703-0.66797 0.03125-0.027344 0.046876-0.039063 0.0625-0.050781 0.28516-0.17578 0.56641-0.37109 0.86719-0.51563 1.3594-0.65234 2.6562-0.44922 3.6992 0.51172 0.24219 0.22266 0.44922 0.48438 0.65234 0.74219 0.11328 0.14453 0.19922 0.30859 0.30469 0.48047l-0.21875-0.027344c-0.39062-0.035156-0.78125 0.027344-1.168 0.10938-0.51562 0.11328-1.0234 0.24609-1.5312 0.375-0.45312 0.11328-0.89844 0.17578-1.3242 0.13281-0.50391-0.054687-0.87109-0.27734-1.1641-0.64453-0.16016-0.20703-0.28906-0.4375-0.40625-0.70703zm1.2109 1.7422c0.35156 0.55469 0.46094 1.2148 0.45703 1.8984 0.10547-0.75391 0.046875-1.4844-0.28516-2.1367 0.046876 0.011719 0.066407 0.015625 0.085938 0.023437 0.5625 0.23828 0.86328 0.71094 0.84375 1.3711-0.019531 0.58594-0.24609 1.1523-0.57812 1.6992-0.023437 0.035156-0.046875 0.070313-0.070313 0.10938-0.007812-0.003906-0.015624-0.003906-0.015624-0.007812-0.10938-0.32422-0.30859-0.58984-0.48828-0.87109-0.12891-0.20312-0.25781-0.41016-0.33203-0.65625-0.12891-0.41797-0.054687-0.88672 0.38281-1.4297z" fill="#f8f8f8"/>
 <path d="m79.469 43.887c0.11719 0.26562 0.24609 0.5 0.41016 0.70703 0.28906 0.36719 0.66016 0.59375 1.1641 0.64453 0.42578 0.046875 0.87109-0.015625 1.3242-0.13281 0.50391-0.12891 1.0117-0.26562 1.5312-0.375 0.38672-0.082031 0.77734-0.14844 1.168-0.10938l0.21875 0.027344c-0.10547-0.17188-0.19141-0.33594-0.30469-0.48047-0.20312-0.25781-0.41016-0.51953-0.65234-0.74219-1.043-0.96094-2.3398-1.1641-3.6992-0.51172-0.30078 0.14453-0.58203 0.33984-0.86719 0.51563-0.015625 0.011718-0.03125 0.023437-0.0625 0.050781 1.043 0.09375 2.0859 0.27344 3.0703 0.66797-1.0898-0.26172-2.2031-0.3125-3.3008-0.26172z" fill="#f8f8f8"/>
 <path d="m80.68 45.629c-0.4375 0.54297-0.51563 1.0117-0.38672 1.4297 0.074219 0.24609 0.20312 0.45312 0.33203 0.65625 0.17969 0.28125 0.37891 0.54688 0.48828 0.87109 0 0.003906 0.007813 0.003906 0.015625 0.007812 0.023438-0.035156 0.050782-0.070312 0.070313-0.10938 0.33203-0.54688 0.55859-1.1133 0.57812-1.6992 0.019531-0.66406-0.28125-1.1328-0.84375-1.3711-0.019532-0.007812-0.039063-0.011718-0.085938-0.023437 0.33203 0.65234 0.39062 1.3828 0.28516 2.1367 0.011719-0.68359-0.097656-1.3438-0.45312-1.8984z" fill="#f8f8f8"/>
 <path d="m75.496 41.41c1.0703-0.25391 2.1719-0.40625 3.2891-0.34766-1.0391-0.20703-2.0977-0.19531-3.1406-0.09375 0.027344-0.03125 0.039063-0.046875 0.054688-0.0625 0.24609-0.22656 0.48828-0.47266 0.75781-0.66406 1.2148-0.89063 2.5273-0.92969 3.7305-0.17188 0.27734 0.17578 0.53125 0.39453 0.77734 0.60938 0.13672 0.12109 0.25391 0.26562 0.38672 0.41406-0.089843 0.003906-0.15234 0.007812-0.21875 0.015625-0.39062 0.035156-0.76172 0.16797-1.125 0.32422-0.48828 0.20312-0.96484 0.43359-1.4336 0.64844-0.42578 0.19531-0.85156 0.33984-1.2773 0.37109-0.50391 0.039063-0.91016-0.11328-1.2617-0.42188-0.20312-0.17578-0.37109-0.38281-0.53906-0.62109zm1.5117 1.4883c0.44922 0.48047 0.67578 1.1094 0.79688 1.7812-0.035157-0.76172-0.22656-1.4688-0.67188-2.0508 0.046876 0.003906 0.070313 0.003906 0.089844 0.007813 0.59766 0.13281 0.98047 0.53906 1.0781 1.1953 0.089844 0.57812-0.03125 1.1758-0.25781 1.7734-0.015625 0.039062-0.035157 0.078125-0.050781 0.12109-0.011719-0.003906-0.015626-0.003906-0.019532-0.007812-0.16797-0.29688-0.41016-0.52344-0.64062-0.76562-0.16797-0.17578-0.32812-0.35547-0.44531-0.58203-0.19922-0.38281-0.21094-0.85938 0.12109-1.4727z" fill="#f8f8f8"/>
 <path d="m75.496 41.41c0.16406 0.24219 0.33594 0.44531 0.53516 0.61719 0.35547 0.30469 0.75781 0.46094 1.2617 0.42188 0.42969-0.035157 0.85156-0.17578 1.2773-0.37109 0.47266-0.21875 0.94922-0.44531 1.4336-0.64844 0.36328-0.15234 0.73828-0.28516 1.125-0.32422 0.066406-0.003907 0.12891-0.007813 0.21875-0.015625-0.13672-0.14844-0.25-0.29688-0.38672-0.41406-0.24609-0.21875-0.5-0.4375-0.77734-0.60938-1.1992-0.75391-2.5156-0.71875-3.7305 0.17188-0.26953 0.19531-0.51172 0.44141-0.75781 0.66406-0.015624 0.011718-0.027343 0.03125-0.054687 0.0625 1.043-0.10156 2.1016-0.11328 3.1406 0.09375-1.1133-0.054688-2.2148 0.097656-3.2852 0.35156z" fill="#f8f8f8"/>
 <path d="m77.008 42.898c-0.33203 0.61328-0.32031 1.0898-0.12109 1.4766 0.12109 0.22656 0.28125 0.41016 0.44531 0.58203 0.23047 0.24219 0.47266 0.46875 0.64062 0.76562 0 0.003906 0.007813 0.003906 0.019532 0.007813 0.015624-0.039063 0.035156-0.078125 0.050781-0.12109 0.22656-0.59766 0.34375-1.1953 0.25781-1.7734-0.10156-0.65625-0.48438-1.0625-1.0781-1.1953-0.019531-0.003906-0.042968-0.003906-0.089844-0.007813 0.44531 0.58203 0.63672 1.2891 0.67188 2.0508-0.12109-0.67578-0.34766-1.3047-0.79688-1.7852z" fill="#f8f8f8"/>
 <path d="m71.137 39.707c1.0039-0.44531 2.0586-0.80078 3.168-0.94922-1.0586-0.011718-2.0977 0.19531-3.1055 0.48438 0.019531-0.035157 0.03125-0.054688 0.042969-0.070313 0.20312-0.26562 0.39453-0.55469 0.62109-0.79297 1.0312-1.1016 2.3125-1.3789 3.6367-0.85938 0.30859 0.12109 0.59375 0.28906 0.87891 0.45703 0.15625 0.09375 0.29688 0.21484 0.45703 0.33594l-0.21094 0.054688c-0.375 0.10547-0.71875 0.30859-1.0469 0.52344-0.44141 0.28906-0.86719 0.60156-1.293 0.90234-0.38281 0.26953-0.77344 0.49219-1.1875 0.60156-0.48828 0.13281-0.91406 0.054688-1.3164-0.17969-0.23438-0.13281-0.4375-0.30078-0.64453-0.50781zm1.7578 1.1836c0.52734 0.39062 0.87109 0.96484 1.1094 1.6055-0.17578-0.74219-0.49219-1.4023-1.0391-1.8906 0.046875-0.003907 0.070312-0.007813 0.089844-0.007813 0.60937 0.019532 1.0625 0.34766 1.2812 0.97656 0.19531 0.55078 0.1875 1.1641 0.074218 1.793-0.007812 0.042968-0.019531 0.085937-0.027344 0.12891-0.011718 0-0.015624 0-0.019531-0.003906-0.21875-0.26172-0.5-0.4375-0.76953-0.63281-0.19531-0.14062-0.38672-0.28906-0.54688-0.49219-0.26562-0.34766-0.36328-0.8125-0.15234-1.4766z" fill="#f8f8f8"/>
 <path d="m71.137 39.707c0.20703 0.20703 0.41016 0.375 0.64062 0.50781 0.40234 0.23438 0.82812 0.3125 1.3164 0.17969 0.41406-0.10938 0.80469-0.33203 1.1875-0.60156 0.42578-0.30078 0.84766-0.61328 1.293-0.90234 0.32812-0.21875 0.67188-0.41797 1.0469-0.52344l0.21094-0.054688c-0.16016-0.12109-0.30078-0.24219-0.45703-0.33594-0.28516-0.16797-0.57031-0.33594-0.87891-0.45703-1.3203-0.51953-2.6055-0.24219-3.6367 0.85938-0.22656 0.24219-0.41797 0.52734-0.62109 0.79297-0.011719 0.015625-0.019531 0.035156-0.042969 0.070313 1.0039-0.29297 2.043-0.5 3.1055-0.48438-1.1055 0.14844-2.1602 0.5-3.1641 0.94922z" fill="#f8f8f8"/>
 <path d="m72.895 40.891c-0.21094 0.66406-0.11328 1.1289 0.15625 1.4727 0.16016 0.20312 0.35156 0.34766 0.54688 0.49219 0.26953 0.19531 0.55078 0.375 0.76953 0.63281 0.003906 0.003907 0.007812 0 0.019531 0.003907 0.007812-0.042969 0.019531-0.085938 0.027343-0.12891 0.11328-0.62891 0.12109-1.2383-0.074218-1.793-0.21875-0.625-0.67188-0.95312-1.2812-0.97656-0.019532 0-0.042969 0.003906-0.089844 0.007812 0.54688 0.48828 0.86328 1.1484 1.0391 1.8906-0.24219-0.63672-0.58203-1.2109-1.1133-1.6016z" fill="#f8f8f8"/>
 <path d="m66.535 38.84c0.90625-0.625 1.875-1.168 2.9375-1.5195-1.043 0.18359-2.0273 0.57813-2.9609 1.0508 0.015625-0.039063 0.019531-0.058594 0.027343-0.074219 0.14844-0.30078 0.28516-0.61719 0.46484-0.89453 0.80859-1.2734 2.0195-1.7812 3.4141-1.5156 0.32422 0.0625 0.63672 0.17578 0.94531 0.28906 0.17188 0.0625 0.33203 0.15625 0.51172 0.24609l-0.19922 0.09375c-0.35156 0.17578-0.64844 0.43359-0.93359 0.70703-0.37891 0.36719-0.74219 0.75-1.1016 1.125-0.32422 0.33594-0.67188 0.625-1.0547 0.8125-0.45703 0.21875-0.88672 0.22266-1.3281 0.066406-0.25-0.09375-0.48047-0.22656-0.72266-0.38672zm1.9492 0.83984c0.58984 0.28516 1.0312 0.78516 1.3867 1.3711-0.30859-0.69531-0.74219-1.2852-1.3711-1.6641 0.046875-0.011719 0.066406-0.019531 0.085938-0.023438 0.60547-0.09375 1.1094 0.14453 1.4414 0.71875 0.29297 0.50781 0.39844 1.1094 0.40234 1.7461 0 0.042969-0.003907 0.085937-0.003907 0.12891-0.011719 0-0.015625 0.003907-0.019531 0-0.26562-0.21484-0.57422-0.33984-0.87109-0.48047-0.21875-0.10547-0.43359-0.21094-0.62891-0.38281-0.32422-0.28516-0.50781-0.72656-0.42188-1.4141z" fill="#f8f8f8"/>
 <path d="m66.535 38.84c0.24219 0.16406 0.47266 0.29688 0.72266 0.38281 0.44141 0.15625 0.87109 0.15234 1.3281-0.066406 0.38672-0.1875 0.73047-0.47266 1.0547-0.8125 0.35938-0.375 0.72266-0.75781 1.1016-1.125 0.28516-0.27344 0.58203-0.53516 0.93359-0.70703l0.19922-0.09375c-0.17969-0.089844-0.33984-0.18359-0.51172-0.24609-0.30859-0.10938-0.625-0.22656-0.94531-0.28906-1.3945-0.26562-2.6055 0.24219-3.4141 1.5156-0.17969 0.27734-0.31641 0.59375-0.46484 0.89453-0.007812 0.019531-0.015624 0.039062-0.027343 0.074219 0.93359-0.47266 1.918-0.86719 2.9609-1.0508-1.0586 0.35547-2.0312 0.89844-2.9375 1.5234z" fill="#f8f8f8"/>
 <path d="m68.484 39.68c-0.085937 0.69141 0.097656 1.1328 0.42578 1.418 0.19531 0.16797 0.41016 0.27734 0.62891 0.38281 0.30078 0.14062 0.60938 0.26562 0.87109 0.48047 0.003906 0.003906 0.007813 0 0.019532 0 0-0.042969 0.003906-0.085938 0.003906-0.12891-0.007813-0.64062-0.10938-1.2422-0.40234-1.7461-0.33203-0.57422-0.83594-0.8125-1.4414-0.71875-0.019532 0.003906-0.042969 0.011718-0.085938 0.023437 0.62891 0.37891 1.0625 0.96875 1.3711 1.6641-0.35938-0.58984-0.80078-1.0898-1.3906-1.375z" fill="#f8f8f8"/>
 <path d="m61.852 38.824c0.77734-0.77734 1.6328-1.4883 2.6094-2.0273-0.99219 0.37109-1.8867 0.9375-2.7188 1.5742 0.007812-0.039063 0.007812-0.0625 0.011718-0.078125 0.09375-0.32422 0.16797-0.65625 0.29297-0.96484 0.56641-1.3945 1.6602-2.1211 3.0742-2.1133 0.32812 0 0.65625 0.054687 0.98047 0.10938 0.17969 0.027343 0.35547 0.09375 0.55078 0.14844l-0.17969 0.12891c-0.3125 0.23438-0.55859 0.54688-0.78516 0.86719-0.30469 0.42969-0.58984 0.875-0.875 1.3086-0.25781 0.39062-0.54297 0.73828-0.89062 0.99219-0.40625 0.30078-0.83203 0.38281-1.293 0.30469-0.25781-0.046875-0.50781-0.12891-0.77734-0.25zm2.0703 0.47266c0.63281 0.17188 1.1602 0.58594 1.6172 1.0938-0.43359-0.62891-0.96484-1.1289-1.6523-1.3867 0.042969-0.019531 0.0625-0.03125 0.082031-0.039062 0.57812-0.20312 1.1172-0.058594 1.5469 0.44531 0.38281 0.44531 0.59375 1.0156 0.71875 1.6445 0.007813 0.042968 0.011719 0.085937 0.019531 0.12891-0.011718 0.003906-0.015625 0.007812-0.019531 0.003906-0.30078-0.16406-0.625-0.22656-0.94922-0.3125-0.23438-0.0625-0.46484-0.12891-0.6875-0.25781-0.375-0.22656-0.63281-0.625-0.67578-1.3203z" fill="#f8f8f8"/>
 <path d="m61.852 38.824c0.26953 0.12109 0.51953 0.20312 0.78125 0.24609 0.46094 0.074219 0.88672-0.007812 1.293-0.30469 0.34766-0.25391 0.63281-0.59766 0.89062-0.99219 0.28516-0.43359 0.57031-0.87891 0.875-1.3086 0.23047-0.32422 0.47266-0.63281 0.78516-0.86719l0.17969-0.12891c-0.19531-0.054688-0.36719-0.11719-0.55078-0.14844-0.32422-0.054687-0.65234-0.10547-0.98047-0.10937-1.4141-0.007813-2.5117 0.71484-3.0742 2.1133-0.125 0.30859-0.20312 0.64062-0.29297 0.96484-0.003906 0.019532-0.007812 0.039063-0.011718 0.078126 0.83203-0.63281 1.7266-1.2031 2.7188-1.5742-0.98047 0.54688-1.8359 1.2539-2.6133 2.0312z" fill="#f8f8f8"/>
 <path d="m63.922 39.297c0.042969 0.69531 0.30078 1.0938 0.67578 1.3164 0.22266 0.12891 0.45312 0.19922 0.6875 0.25781 0.32422 0.085937 0.64844 0.14844 0.94922 0.3125 0.003906 0 0.007813 0 0.019531-0.003906-0.007812-0.042969-0.011718-0.085938-0.019531-0.12891-0.125-0.62891-0.33984-1.1992-0.71875-1.6445-0.43359-0.50391-0.97266-0.64844-1.5469-0.44531-0.019531 0.007812-0.039062 0.019531-0.082031 0.039062 0.6875 0.25781 1.2227 0.75781 1.6523 1.3867-0.45703-0.50391-0.98437-0.91797-1.6172-1.0898z" fill="#f8f8f8"/>
 <path d="m57.246 39.668c0.62109-0.91016 1.332-1.7617 2.1953-2.4727-0.91016 0.54688-1.6836 1.2695-2.3867 2.043 0-0.039062-0.003907-0.0625 0-0.082031 0.03125-0.33203 0.042968-0.67969 0.10937-1.0039 0.29688-1.4766 1.2422-2.3906 2.6406-2.6406 0.32422-0.058594 0.65625-0.066407 0.98828-0.070313 0.18359-0.003906 0.36719 0.027344 0.56641 0.046875l-0.15234 0.15625c-0.26562 0.28906-0.44922 0.64062-0.61719 0.99609-0.22266 0.48047-0.42188 0.96875-0.625 1.4453-0.18359 0.42969-0.40234 0.82422-0.69531 1.1367-0.34766 0.36719-0.75 0.52734-1.2148 0.53906-0.26172 0.011719-0.52344-0.023438-0.80859-0.09375zm2.1211 0.085937c0.65625 0.054688 1.2461 0.36328 1.7891 0.78125-0.53906-0.53906-1.1562-0.93359-1.875-1.0625 0.039062-0.027344 0.054688-0.042968 0.070312-0.054687 0.53125-0.30469 1.0859-0.26172 1.6016 0.15625 0.45703 0.36719 0.76953 0.89062 1.0039 1.4844 0.015625 0.039062 0.027344 0.082031 0.042969 0.12109-0.007812 0.003906-0.011719 0.007812-0.015625 0.007812-0.32422-0.10938-0.65625-0.10938-0.98828-0.13672-0.24219-0.019531-0.48047-0.042969-0.72266-0.12891-0.41016-0.14844-0.73828-0.49219-0.90625-1.168z" fill="#f8f8f8"/>
 <path d="m57.246 39.668c0.28516 0.066406 0.54688 0.10547 0.8125 0.097656 0.46875-0.011719 0.87109-0.16797 1.2148-0.53906 0.29297-0.3125 0.51172-0.70703 0.69531-1.1367 0.20312-0.48047 0.40234-0.96484 0.625-1.4453 0.16797-0.35938 0.35156-0.70703 0.61719-0.99609l0.15234-0.15625c-0.19922-0.019532-0.38281-0.046876-0.56641-0.046876-0.32812 0.007813-0.66406 0.011719-0.98828 0.070313-1.3984 0.25-2.3438 1.1641-2.6406 2.6406-0.066407 0.32422-0.078125 0.66797-0.10938 1.0039v0.082032c0.70312-0.77734 1.4766-1.5 2.3867-2.043-0.86719 0.70703-1.5781 1.5625-2.1992 2.4688z" fill="#f8f8f8"/>
 <path d="m59.367 39.754c0.16797 0.67578 0.49609 1.0195 0.90625 1.1719 0.24219 0.089844 0.48437 0.11328 0.72266 0.12891 0.33203 0.023437 0.66406 0.027343 0.98828 0.13672 0.003906 0 0.007813-0.003906 0.015625-0.007812-0.015625-0.042969-0.027344-0.082032-0.042969-0.12109-0.23438-0.59375-0.55078-1.1172-1.0039-1.4844-0.51562-0.41797-1.0742-0.46094-1.6016-0.15625-0.019531 0.011719-0.035156 0.027344-0.070312 0.054687 0.72266 0.12891 1.3398 0.52344 1.875 1.0625-0.54297-0.42187-1.1367-0.73047-1.7891-0.78516z" fill="#f8f8f8"/>
 <path d="m52.875 41.352c0.44141-1.0078 0.98438-1.9805 1.6992-2.8359-0.79297 0.70312-1.4219 1.5586-1.9648 2.4492-0.007813-0.039063-0.015625-0.058594-0.015625-0.078125-0.03125-0.33594-0.082031-0.67188-0.078125-1.0078 0.019531-1.5078 0.78125-2.5781 2.1055-3.082 0.30859-0.11719 0.63281-0.18359 0.95703-0.25391 0.17969-0.035157 0.36328-0.042969 0.56641-0.058594l-0.12109 0.18359c-0.20703 0.33203-0.32422 0.71094-0.42188 1.0938-0.12891 0.51172-0.23437 1.0273-0.34375 1.5391-0.10156 0.45703-0.24219 0.88281-0.47266 1.2461-0.27344 0.42578-0.63672 0.65625-1.0938 0.75391-0.25781 0.050781-0.52344 0.0625-0.81641 0.050781zm2.1016-0.3125c0.65234-0.066406 1.293 0.125 1.9023 0.4375-0.62891-0.42969-1.3047-0.70312-2.0391-0.69531 0.03125-0.035156 0.046875-0.050781 0.0625-0.066406 0.46484-0.39844 1.0195-0.45703 1.6016-0.14453 0.51562 0.27734 0.92188 0.73438 1.2617 1.2734 0.023437 0.035156 0.042969 0.074219 0.066406 0.11328-0.007812 0.007813-0.011719 0.011719-0.015625 0.011719-0.33984-0.046875-0.66406 0.011719-0.99609 0.050781-0.23828 0.027344-0.48047 0.046875-0.73437 0.003907-0.43359-0.070313-0.82031-0.35156-1.1094-0.98438z" fill="#f8f8f8"/>
 <path d="m52.875 41.352c0.29297 0.015626 0.55859 0 0.81641-0.054687 0.45703-0.097656 0.82422-0.32812 1.0938-0.75391 0.23047-0.35938 0.37109-0.78906 0.47266-1.2461 0.10938-0.50781 0.21484-1.0234 0.34375-1.5391 0.097657-0.38281 0.21484-0.76172 0.42188-1.0938l0.12109-0.18359c-0.19922 0.019531-0.38672 0.023437-0.56641 0.058593-0.32422 0.070313-0.64844 0.13672-0.95703 0.25391-1.3281 0.50391-2.0859 1.5781-2.1055 3.082-0.003906 0.33203 0.046875 0.67188 0.078125 1.0078 0 0.019532 0.007812 0.039063 0.015625 0.078126 0.54688-0.89453 1.1719-1.7461 1.9648-2.4492-0.71484 0.85938-1.2539 1.832-1.6992 2.8398z" fill="#f8f8f8"/>
 <path d="m54.977 41.039c0.28906 0.63281 0.67578 0.91016 1.1055 0.98438 0.25391 0.042968 0.49609 0.019531 0.73438-0.003907 0.33203-0.035156 0.65625-0.09375 0.99609-0.050781 0.003906 0 0.007812-0.003906 0.015625-0.011719-0.023437-0.039062-0.042969-0.074219-0.066406-0.11328-0.33984-0.53906-0.74609-0.99609-1.2617-1.2734-0.58203-0.3125-1.1367-0.25391-1.6016 0.14453-0.015626 0.015625-0.027344 0.03125-0.0625 0.066406 0.73437-0.007812 1.4102 0.26562 2.0391 0.69531-0.60547-0.30859-1.2461-0.50391-1.8984-0.4375z" fill="#f8f8f8"/>
 <path d="m48.891 43.809c0.25-1.0703 0.60156-2.125 1.1484-3.1016-0.64844 0.83984-1.1055 1.793-1.4805 2.7695-0.015625-0.039062-0.023438-0.054687-0.03125-0.074218-0.09375-0.32422-0.20312-0.64844-0.26172-0.97656-0.25781-1.4844 0.28906-2.6758 1.5-3.418 0.28125-0.17187 0.58984-0.30078 0.89453-0.42578 0.16797-0.070312 0.35156-0.10938 0.54297-0.16406l-0.085937 0.20312c-0.14063 0.36719-0.1875 0.75781-0.21094 1.1523-0.03125 0.52734-0.042969 1.0547-0.054688 1.5742-0.011718 0.46875-0.074218 0.91406-0.23437 1.3125-0.1875 0.46875-0.50781 0.76172-0.9375 0.94141-0.23828 0.10547-0.5 0.16406-0.78906 0.20703zm2.0078-0.69141c0.62891-0.1875 1.293-0.11328 1.9492 0.078124-0.69531-0.30469-1.4141-0.44922-2.1328-0.30859 0.023437-0.039063 0.035156-0.058594 0.046875-0.078125 0.38281-0.47656 0.91797-0.63672 1.5508-0.4375 0.55859 0.17578 1.0391 0.55078 1.4766 1.0195 0.027344 0.03125 0.054688 0.066406 0.085938 0.097656-0.007812 0.007813-0.007812 0.011719-0.011719 0.011719-0.34375 0.019531-0.65234 0.13672-0.96875 0.23438-0.23047 0.070313-0.46484 0.13672-0.72266 0.14062-0.44141 0.011719-0.87109-0.19141-1.2734-0.75781z" fill="#f8f8f8"/>
 <path d="m48.891 43.809c0.28906-0.039063 0.54688-0.10156 0.79297-0.20312 0.43359-0.17969 0.75-0.47266 0.9375-0.94141 0.16016-0.39844 0.22266-0.84375 0.23438-1.3125 0.015625-0.51953 0.023437-1.0469 0.054687-1.5742 0.023438-0.39453 0.070313-0.78516 0.21094-1.1523l0.085937-0.20312c-0.19531 0.054687-0.375 0.09375-0.54297 0.16406-0.30469 0.125-0.61328 0.25391-0.89453 0.42578-1.2109 0.74219-1.7578 1.9336-1.5 3.418 0.054688 0.32812 0.16797 0.65234 0.26172 0.97656 0.003906 0.019531 0.015625 0.039062 0.03125 0.074219 0.37109-0.97656 0.83203-1.9336 1.4805-2.7695-0.55078 0.96875-0.90234 2.0273-1.1523 3.0977z" fill="#f8f8f8"/>
 <path d="m50.898 43.117c0.40234 0.57031 0.83203 0.76953 1.2695 0.76172 0.25781-0.003906 0.49219-0.070312 0.72266-0.14062 0.31641-0.097656 0.62891-0.21484 0.96875-0.23438 0.003906 0 0.007813-0.007812 0.011719-0.011718-0.027344-0.03125-0.054688-0.066407-0.085938-0.097657-0.4375-0.46875-0.91797-0.83984-1.4766-1.0195-0.63281-0.19922-1.168-0.039062-1.5508 0.4375-0.011718 0.015625-0.023437 0.035156-0.046874 0.078125 0.71875-0.14453 1.4375 0 2.1328 0.30859-0.65234-0.19531-1.3164-0.26953-1.9453-0.082031z" fill="#f8f8f8"/>
 <path d="m45.422 46.953c0.050781-1.0977 0.20312-2.1992 0.5625-3.2578-0.48438 0.94141-0.76172 1.9648-0.94922 2.9961-0.023437-0.035156-0.035156-0.050781-0.042968-0.066406-0.14844-0.30078-0.32031-0.60156-0.43359-0.91016-0.52344-1.4102-0.20312-2.6836 0.84766-3.6328 0.24609-0.21875 0.52344-0.40234 0.80078-0.58203 0.15234-0.10156 0.32422-0.17188 0.50391-0.26172-0.019532 0.085938-0.035157 0.14844-0.046876 0.21484-0.070312 0.38672-0.042968 0.77734 0.003907 1.1719 0.0625 0.52344 0.15234 1.043 0.23438 1.5586 0.074218 0.46484 0.09375 0.91016 0.011718 1.332-0.097656 0.49609-0.35937 0.84375-0.75 1.0977-0.21875 0.14062-0.46484 0.24609-0.74219 0.33984zm1.8477-1.0469c0.58594-0.30078 1.2539-0.34766 1.9336-0.28125-0.74219-0.17188-1.4727-0.18359-2.1562 0.089844 0.015625-0.042969 0.023437-0.066406 0.03125-0.082032 0.28906-0.53906 0.78516-0.79687 1.4414-0.71484 0.58203 0.070312 1.125 0.34766 1.6367 0.73047 0.035156 0.027343 0.066406 0.054687 0.10156 0.082031-0.003906 0.007812-0.007812 0.015625-0.011718 0.015625-0.33203 0.082031-0.61719 0.25391-0.91016 0.40625-0.21484 0.11328-0.42969 0.21875-0.68359 0.27344-0.42188 0.085938-0.88281-0.03125-1.3828-0.51953z" fill="#f8f8f8"/>
 <path d="m45.422 46.953c0.27734-0.09375 0.51953-0.19922 0.74219-0.34375 0.39063-0.25781 0.65234-0.60156 0.75-1.0977 0.082032-0.42188 0.0625-0.86719-0.011718-1.332-0.078125-0.51172-0.17188-1.0352-0.23438-1.5586-0.046875-0.39453-0.074219-0.78516-0.003907-1.1719 0.011719-0.0625 0.027344-0.12891 0.046876-0.21484-0.17969 0.089844-0.35156 0.16016-0.50391 0.26172-0.27734 0.17969-0.55469 0.36328-0.80078 0.58203-1.0547 0.94922-1.375 2.2227-0.84766 3.6328 0.11328 0.3125 0.28516 0.60937 0.43359 0.91016 0.007812 0.019531 0.019531 0.035156 0.042968 0.066406 0.1875-1.0273 0.46484-2.0508 0.94922-2.9961-0.35547 1.0625-0.51172 2.1641-0.5625 3.2617z" fill="#f8f8f8"/>
 <path d="m47.27 45.906c0.5 0.48438 0.96094 0.60547 1.3867 0.51562 0.25-0.054687 0.46875-0.16016 0.68359-0.27344 0.29688-0.15234 0.57812-0.32422 0.91016-0.40625 0.003906 0 0.003906-0.007813 0.011719-0.015626-0.035157-0.027343-0.066407-0.054687-0.10156-0.082031-0.51562-0.38281-1.0586-0.65625-1.6367-0.73047-0.66016-0.082031-1.1523 0.17578-1.4414 0.71484-0.011719 0.019532-0.015625 0.039063-0.03125 0.082032 0.68359-0.27344 1.4141-0.26172 2.1562-0.089844-0.68359-0.0625-1.3516-0.011719-1.9375 0.28516z" fill="#f8f8f8"/>
 <path d="m42.59 50.684c-0.15234-1.0898-0.20312-2.1992-0.042969-3.3047-0.30469 1.0156-0.39062 2.0703-0.38281 3.1172-0.027343-0.03125-0.042968-0.042969-0.054687-0.058594-0.20312-0.26953-0.42188-0.53125-0.59375-0.81641-0.77344-1.293-0.69141-2.6016 0.17188-3.7305 0.19922-0.26172 0.44141-0.49219 0.67969-0.71875 0.13281-0.125 0.28906-0.22656 0.44922-0.34766l-0.007812 0.21875c0 0.39062 0.097656 0.77344 0.21875 1.1523 0.16016 0.50391 0.33984 1 0.51562 1.4883 0.15625 0.44141 0.25781 0.87891 0.25391 1.3086-0.007813 0.50781-0.19922 0.89453-0.53516 1.2188-0.19922 0.17969-0.41797 0.32812-0.67188 0.47266zm1.6211-1.3672c0.51953-0.40234 1.168-0.57422 1.8477-0.62891-0.76172-0.035156-1.4805 0.089844-2.1016 0.48047 0.007813-0.046875 0.011719-0.066407 0.015625-0.089844 0.1875-0.58203 0.625-0.92578 1.2891-0.96484 0.58594-0.035156 1.168 0.14062 1.7461 0.41797 0.039063 0.019531 0.074219 0.039062 0.11328 0.0625-0.003906 0.007812-0.003906 0.015625-0.007813 0.015625-0.3125 0.14062-0.55859 0.36328-0.82031 0.56641-0.19141 0.14844-0.38281 0.29297-0.62109 0.39062-0.40625 0.16797-0.87891 0.13281-1.4609-0.25z" fill="#f8f8f8"/>
 <path d="m42.59 50.684c0.25781-0.14062 0.47656-0.29297 0.66406-0.47266 0.33984-0.32422 0.52734-0.71094 0.53516-1.2188 0.007813-0.42969-0.097656-0.86719-0.25391-1.3086-0.17188-0.49219-0.35547-0.98438-0.51562-1.4883-0.11719-0.375-0.21875-0.76172-0.21875-1.1523l0.007813-0.21875c-0.16016 0.12109-0.31641 0.22266-0.44922 0.34766-0.23828 0.22656-0.48047 0.45703-0.67969 0.71875-0.86328 1.125-0.94531 2.4375-0.17188 3.7305 0.17188 0.28516 0.39063 0.54688 0.59375 0.81641 0.011719 0.015625 0.027344 0.03125 0.054688 0.058594-0.003906-1.0469 0.082031-2.1016 0.38281-3.1172-0.15234 1.1016-0.10156 2.2148 0.050782 3.3047z" fill="#f8f8f8"/>
 <path d="m44.211 49.316c0.57812 0.38672 1.0547 0.41797 1.457 0.25391 0.23828-0.097656 0.43359-0.24219 0.62109-0.39062 0.26172-0.20703 0.50781-0.42578 0.82031-0.56641 0.003906 0 0.003906-0.007812 0.007813-0.015625-0.039063-0.019531-0.078126-0.042968-0.11328-0.0625-0.57422-0.27734-1.1602-0.45312-1.7461-0.41797-0.66406 0.039062-1.1016 0.38281-1.2891 0.96484-0.007812 0.019531-0.007812 0.042969-0.015625 0.089844 0.62109-0.39062 1.3398-0.51562 2.1016-0.48047-0.67578 0.050782-1.3203 0.22266-1.8438 0.625z" fill="#f8f8f8"/>
 <path d="m40.488 54.867c-0.35156-1.043-0.60547-2.125-0.65234-3.2422-0.11328 1.0547 0 2.1094 0.19531 3.1367-0.03125-0.023438-0.050781-0.035157-0.066406-0.046875-0.25-0.22656-0.51172-0.44531-0.73438-0.69141-1-1.125-1.1562-2.4336-0.51562-3.6992 0.14844-0.29297 0.34375-0.5625 0.53516-0.83203 0.10938-0.14844 0.24219-0.27734 0.37891-0.42578 0.011719 0.089844 0.019532 0.15234 0.035156 0.21484 0.070313 0.38672 0.23828 0.74219 0.42578 1.0938 0.25 0.46875 0.51953 0.91797 0.77734 1.3711 0.23437 0.40625 0.41406 0.81641 0.48828 1.2383 0.085937 0.5-0.03125 0.91406-0.30469 1.293-0.14844 0.21484-0.33594 0.40234-0.5625 0.58984zm1.3438-1.6406c0.4375-0.49219 1.043-0.77734 1.6992-0.95703-0.75391 0.10547-1.4414 0.35938-1.9766 0.85938v-0.089844c0.074218-0.60547 0.44531-1.0234 1.0898-1.1836 0.57031-0.14062 1.1719-0.078125 1.793 0.09375 0.042969 0.011719 0.082031 0.027343 0.125 0.039062-0.003906 0.011719 0 0.015625-0.003906 0.019531-0.28125 0.19531-0.48438 0.45703-0.70312 0.70703-0.16016 0.17969-0.32422 0.35938-0.53906 0.5-0.37109 0.22656-0.84375 0.28125-1.4844 0.011718z" fill="#f8f8f8"/>
 <path d="m40.488 54.867c0.22656-0.1875 0.41406-0.375 0.56641-0.58984 0.27344-0.37891 0.39062-0.79688 0.30469-1.293-0.074219-0.42188-0.25391-0.83203-0.48828-1.2383-0.26172-0.44922-0.53125-0.90234-0.77734-1.3711-0.1875-0.34766-0.35156-0.70703-0.42578-1.0938-0.011719-0.0625-0.019531-0.12891-0.035157-0.21484-0.13672 0.14844-0.26953 0.27734-0.37891 0.42578-0.19531 0.26562-0.38672 0.53906-0.53516 0.83203-0.64062 1.2656-0.48047 2.5703 0.51562 3.6992 0.21875 0.25 0.48438 0.46484 0.73438 0.69141 0.015625 0.011718 0.03125 0.023437 0.066406 0.046875-0.19531-1.0273-0.30859-2.082-0.19531-3.1367 0.042968 1.1172 0.29688 2.1992 0.64844 3.2422z" fill="#f8f8f8"/>
 <path d="m41.832 53.227c0.64062 0.27344 1.1133 0.21875 1.4805-0.015624 0.21484-0.14063 0.37891-0.31641 0.53906-0.5 0.21875-0.25 0.42188-0.51172 0.70313-0.70703 0.003906-0.003906 0.003906-0.007812 0.003906-0.019531-0.042969-0.011719-0.082032-0.027344-0.125-0.039063-0.61719-0.17187-1.2227-0.23437-1.793-0.09375-0.64453 0.16016-1.0156 0.57813-1.0898 1.1836-0.003906 0.019532 0 0.042969 0 0.089844 0.53906-0.5 1.2266-0.75391 1.9766-0.85938-0.65234 0.18359-1.2578 0.46875-1.6953 0.96094z" fill="#f8f8f8"/>
 <path d="m39.199 59.367c-0.53906-0.96094-0.98828-1.9766-1.2383-3.0664 0.085937 1.0586 0.39062 2.0742 0.77344 3.0469-0.035156-0.015625-0.054687-0.023437-0.074219-0.035156-0.28516-0.17578-0.58594-0.33984-0.84766-0.54688-1.1914-0.92188-1.5898-2.1758-1.1914-3.5391 0.09375-0.31641 0.23438-0.61719 0.375-0.91797 0.078125-0.16406 0.1875-0.31641 0.29297-0.48828 0.027344 0.082032 0.050782 0.14453 0.074219 0.20703 0.14062 0.36719 0.37109 0.6875 0.61719 0.99609 0.32812 0.41406 0.67969 0.80859 1.0195 1.2031 0.30469 0.35547 0.55859 0.72656 0.71094 1.125 0.17578 0.47266 0.14062 0.90625-0.058594 1.3281-0.11719 0.24219-0.26953 0.46094-0.45312 0.6875zm1.0156-1.8633c0.33594-0.5625 0.87891-0.95312 1.4961-1.2539-0.72266 0.24219-1.3477 0.61719-1.7852 1.207-0.007812-0.046875-0.015625-0.066406-0.015625-0.089843-0.039062-0.60938 0.25-1.0898 0.85156-1.3672 0.53125-0.24609 1.1367-0.29297 1.7773-0.23828 0.042969 0.003906 0.085938 0.011719 0.12891 0.015625v0.019531c-0.23828 0.24219-0.39062 0.53906-0.5625 0.82422-0.12109 0.20703-0.25 0.41016-0.4375 0.58984-0.32031 0.30078-0.77344 0.44141-1.4531 0.29297z" fill="#f8f8f8"/>
 <path d="m39.199 59.367c0.1875-0.22656 0.33594-0.44531 0.44922-0.68359 0.19922-0.42188 0.23437-0.85547 0.058593-1.3281-0.15234-0.40234-0.40234-0.77344-0.71094-1.125-0.33984-0.39453-0.6875-0.78906-1.0195-1.2031-0.24609-0.30859-0.47656-0.62891-0.61719-0.99609-0.023437-0.0625-0.042969-0.12109-0.074219-0.20703-0.10547 0.17188-0.21484 0.32031-0.29297 0.48828-0.14063 0.29688-0.28125 0.60156-0.375 0.91797-0.39844 1.3633 0.003906 2.6172 1.1914 3.5391 0.26172 0.20312 0.5625 0.36719 0.84766 0.54688 0.015625 0.011719 0.035156 0.019532 0.074219 0.035156-0.38281-0.97266-0.6875-1.9883-0.77344-3.0469 0.25391 1.0859 0.70312 2.1016 1.2422 3.0625z" fill="#f8f8f8"/>
 <path d="m40.215 57.504c0.67969 0.14844 1.1328 0.007813 1.4492-0.28906 0.1875-0.17578 0.31641-0.38281 0.4375-0.58984 0.16797-0.28516 0.32031-0.58203 0.5625-0.82422 0.003907-0.003906 0-0.007812 0-0.019531-0.042968-0.003906-0.085937-0.011719-0.12891-0.015625-0.63672-0.054687-1.2461-0.003906-1.7773 0.23828-0.60156 0.27734-0.89062 0.75391-0.85156 1.3672 0 0.019531 0.007812 0.042968 0.015625 0.089844 0.4375-0.58984 1.0625-0.96484 1.7852-1.207-0.61328 0.29688-1.1562 0.6875-1.4922 1.25z" fill="#f8f8f8"/>
 <path d="m38.758 64.027c-0.70312-0.84766-1.332-1.7617-1.7812-2.7852 0.27734 1.0234 0.76172 1.9648 1.3203 2.8516-0.039063-0.011719-0.058594-0.011719-0.078125-0.019531-0.3125-0.12109-0.64062-0.22656-0.93359-0.37891-1.3398-0.6875-1.9609-1.8438-1.8242-3.2578 0.03125-0.32812 0.11328-0.64844 0.19922-0.96875 0.046875-0.17578 0.125-0.34375 0.19531-0.53516 0.042969 0.078125 0.074219 0.13281 0.10938 0.19141 0.20703 0.33203 0.49219 0.60547 0.79297 0.86328 0.40234 0.34375 0.81641 0.66797 1.2227 0.99219 0.36719 0.29297 0.68359 0.60938 0.90625 0.97656 0.26172 0.43359 0.30469 0.86328 0.1875 1.3164-0.066407 0.25781-0.17188 0.5-0.31641 0.75391zm0.65625-2.0156c0.22656-0.61719 0.69141-1.1016 1.2383-1.5078-0.66406 0.37109-1.2109 0.85938-1.5312 1.5195-0.015625-0.042969-0.027344-0.0625-0.03125-0.085938-0.15234-0.59375 0.042968-1.1172 0.58594-1.5 0.47656-0.33984 1.0664-0.5 1.7031-0.56641 0.042969-0.003906 0.085938-0.003906 0.12891-0.007813 0 0.011719 0.003907 0.015625 0.003907 0.019531-0.19141 0.28516-0.28516 0.60156-0.39844 0.91406-0.082031 0.22656-0.17188 0.45312-0.32031 0.66016-0.26172 0.35156-0.67969 0.57422-1.3789 0.55469z" fill="#f8f8f8"/>
 <path d="m38.758 64.027c0.14063-0.25781 0.25-0.5 0.31641-0.75391 0.11719-0.45313 0.074219-0.88281-0.1875-1.3164-0.22266-0.36719-0.53906-0.68359-0.90625-0.97656-0.40625-0.32422-0.82031-0.64844-1.2227-0.99219-0.30078-0.25781-0.58594-0.53125-0.79297-0.86328-0.035156-0.054688-0.066406-0.11328-0.10938-0.19141-0.074219 0.1875-0.15234 0.35547-0.19531 0.53516-0.085937 0.32031-0.16406 0.64062-0.19922 0.96875-0.13672 1.4141 0.48437 2.5664 1.8242 3.2578 0.29297 0.15234 0.62109 0.25781 0.93359 0.37891 0.019531 0.007812 0.039062 0.011719 0.078125 0.019531-0.55469-0.88672-1.0391-1.8281-1.3203-2.8516 0.44922 1.0234 1.0781 1.9414 1.7812 2.7852z" fill="#f8f8f8"/>
 <path d="m39.414 62.012c0.69531 0.023437 1.1172-0.19922 1.3711-0.55469 0.15234-0.21094 0.23828-0.43359 0.32031-0.66016 0.11328-0.3125 0.20703-0.63281 0.39844-0.91406 0.003906-0.003906 0-0.007812-0.003906-0.019531-0.042969 0.003907-0.085938 0.003907-0.12891 0.007813-0.63672 0.066406-1.2227 0.22656-1.7031 0.56641-0.53906 0.38281-0.73438 0.90625-0.58594 1.5 0.003907 0.019531 0.015625 0.039062 0.03125 0.085938 0.32031-0.66016 0.86719-1.1445 1.5312-1.5195-0.53906 0.40625-1 0.89062-1.2305 1.5078z" fill="#f8f8f8"/>
 <path d="m39.172 68.695c-0.84766-0.70312-1.6328-1.4922-2.2578-2.4141 0.46094 0.95312 1.1094 1.793 1.8164 2.5625-0.039063-0.003906-0.0625-0.003906-0.082031-0.007812-0.33203-0.0625-0.67188-0.10547-0.98828-0.20313-1.4414-0.43359-2.2656-1.4609-2.3867-2.8711-0.027344-0.32812-0.003907-0.66016 0.019531-0.98828 0.011719-0.18359 0.058593-0.36328 0.097656-0.55859l0.14453 0.16406c0.26562 0.28906 0.59375 0.50391 0.9375 0.70312 0.45703 0.26562 0.92578 0.50781 1.3828 0.75391 0.41406 0.22266 0.78125 0.47656 1.0664 0.79687 0.33594 0.37891 0.45703 0.79297 0.42188 1.2617-0.015625 0.26172-0.078125 0.52344-0.17188 0.80078zm0.28125-2.1055c0.11328-0.64844 0.47656-1.207 0.94531-1.7109-0.58594 0.48828-1.0352 1.0664-1.2305 1.7734-0.023438-0.039063-0.039063-0.058594-0.046875-0.078125-0.25391-0.55469-0.16016-1.1055 0.30078-1.582 0.40625-0.42188 0.95703-0.68359 1.5703-0.86719 0.039062-0.011719 0.082031-0.019531 0.125-0.03125 0.003906 0.011719 0.007812 0.015625 0.007812 0.019531-0.13672 0.31641-0.16797 0.64453-0.22656 0.97266-0.039063 0.23828-0.085938 0.47656-0.19531 0.71094-0.1875 0.39453-0.5625 0.6875-1.25 0.79297z" fill="#f8f8f8"/>
 <path d="m39.172 68.695c0.09375-0.27734 0.15625-0.53516 0.17188-0.79687 0.03125-0.46875-0.089844-0.88281-0.42188-1.2617-0.28516-0.32031-0.65234-0.57422-1.0664-0.79688-0.45703-0.24609-0.92578-0.48828-1.3828-0.75391-0.33984-0.19922-0.67188-0.41406-0.9375-0.70313l-0.14453-0.16797c-0.039063 0.19922-0.082031 0.37891-0.097656 0.55859-0.023438 0.32812-0.046875 0.66016-0.019531 0.98828 0.12109 1.4102 0.94141 2.4375 2.3867 2.8711 0.31641 0.097657 0.65625 0.14063 0.98828 0.20313 0.019531 0.003906 0.039062 0.003906 0.082031 0.007812-0.70703-0.76953-1.3555-1.6094-1.8164-2.5625 0.62891 0.92188 1.4141 1.7109 2.2578 2.4141z" fill="#f8f8f8"/>
 <path d="m39.453 66.59c0.6875-0.10547 1.0625-0.39844 1.25-0.79297 0.10938-0.23438 0.15625-0.47266 0.19531-0.71094 0.054687-0.32813 0.089843-0.66016 0.22656-0.97266 0-0.003906-0.003906-0.007812-0.007812-0.019531-0.042969 0.011719-0.085938 0.019531-0.125 0.03125-0.61328 0.17969-1.1641 0.44531-1.5703 0.86719-0.46484 0.47656-0.55469 1.0273-0.30078 1.582 0.007812 0.019531 0.023437 0.035156 0.046875 0.078125 0.19531-0.70703 0.64453-1.2852 1.2305-1.7734-0.46875 0.50391-0.83203 1.0625-0.94531 1.7109z" fill="#f8f8f8"/>
 <path d="m40.441 73.199c-0.96094-0.53516-1.8789-1.1641-2.6641-1.957 0.62891 0.85547 1.4219 1.5586 2.2578 2.1836-0.039062 0.003907-0.0625 0.007813-0.082031 0.007813-0.33594 0-0.67969 0.019531-1.0078-0.015625-1.4961-0.16016-2.4961-1.0156-2.875-2.3828-0.085937-0.31641-0.125-0.64844-0.16406-0.97656-0.019531-0.17969-0.007812-0.36719-0.007812-0.57031 0.070312 0.054688 0.12109 0.097657 0.17187 0.13672 0.3125 0.23828 0.67578 0.39062 1.0508 0.52344 0.49609 0.17969 1.0039 0.32812 1.4961 0.48828 0.44922 0.14062 0.85547 0.32422 1.1953 0.58594 0.39844 0.30859 0.59375 0.69531 0.64844 1.1602 0.03125 0.26172 0.019531 0.52734-0.019532 0.81641zm-0.11328-2.1172c-0.007813-0.65625 0.24609-1.2734 0.61328-1.8516-0.48438 0.58594-0.82422 1.2344-0.88281 1.9648-0.03125-0.035156-0.046875-0.050781-0.058594-0.066406-0.35547-0.5-0.36328-1.0586 0.007812-1.6094 0.32422-0.48828 0.81641-0.84766 1.3867-1.1367 0.039063-0.019531 0.078125-0.035156 0.11719-0.054687 0.003906 0.007813 0.011719 0.011719 0.007812 0.015625-0.078125 0.33203-0.050781 0.66406-0.042969 0.99609 0.003907 0.24219 0.003907 0.48438-0.0625 0.73047-0.11719 0.42188-0.42969 0.78125-1.0859 1.0117z" fill="#f8f8f8"/>
 <path d="m40.441 73.199c0.039063-0.28906 0.054688-0.55469 0.023438-0.81641-0.054688-0.46484-0.25-0.85156-0.64844-1.1602-0.33984-0.26172-0.75-0.44531-1.1953-0.58594-0.49609-0.15625-1-0.30859-1.4961-0.48828-0.37109-0.13281-0.73828-0.28516-1.0508-0.52344-0.050781-0.039062-0.10156-0.082031-0.17188-0.13672 0 0.20312-0.011719 0.38672 0.007812 0.57031 0.035156 0.32812 0.074219 0.66016 0.16406 0.97656 0.37891 1.3672 1.3789 2.2266 2.875 2.3828 0.33203 0.035156 0.67188 0.019531 1.0078 0.015625 0.019531 0 0.039063-0.003906 0.082031-0.007813-0.83984-0.625-1.6289-1.332-2.2578-2.1836 0.78125 0.79687 1.6992 1.4258 2.6602 1.957z" fill="#f8f8f8"/>
 <path d="m40.328 71.082c0.65625-0.23047 0.96875-0.58984 1.082-1.0078 0.066406-0.25 0.066406-0.49219 0.0625-0.73047-0.007812-0.33203-0.03125-0.66406 0.042969-0.99609 0-0.003906-0.003906-0.007812-0.007813-0.015625-0.039062 0.019531-0.078124 0.035157-0.11719 0.054688-0.57031 0.28906-1.0625 0.65234-1.3867 1.1367-0.36719 0.55078-0.35938 1.1094-0.007812 1.6094 0.011718 0.015626 0.027344 0.03125 0.058594 0.066407 0.0625-0.73047 0.39844-1.3828 0.88281-1.9648-0.36328 0.57422-0.61719 1.1914-0.60938 1.8477z" fill="#f8f8f8"/>
 <path d="m42.52 77.395c-1.043-0.34766-2.0625-0.79688-2.9805-1.4297 0.77344 0.72266 1.6836 1.2695 2.6211 1.7305-0.039062 0.011719-0.058594 0.019532-0.078125 0.023438-0.32812 0.0625-0.66406 0.14453-0.99609 0.16797-1.5 0.12109-2.6406-0.53516-3.2656-1.8125-0.14453-0.29688-0.24609-0.61328-0.33984-0.92969-0.054688-0.17578-0.074219-0.35938-0.11328-0.55859 0.078124 0.042968 0.13672 0.074218 0.19531 0.10156 0.35156 0.17578 0.73828 0.25781 1.1289 0.31641 0.52344 0.082032 1.0469 0.13672 1.5625 0.20312 0.46484 0.054688 0.90234 0.16016 1.2852 0.35547 0.44922 0.23047 0.71094 0.57422 0.85156 1.0195 0.078125 0.25781 0.11328 0.52344 0.12891 0.8125zm-0.50391-2.0586c-0.12891-0.64453 0.007813-1.3008 0.25781-1.9336-0.37109 0.66406-0.57813 1.3672-0.50391 2.0977-0.039062-0.027344-0.054687-0.039062-0.070312-0.054688-0.4375-0.42578-0.55078-0.97266-0.29297-1.582 0.23047-0.53906 0.64453-0.98438 1.1523-1.375 0.035156-0.027343 0.070312-0.050781 0.10547-0.074219 0.007813 0.007813 0.011719 0.011719 0.011719 0.015626-0.011719 0.34375 0.074219 0.66016 0.14062 0.98828 0.050782 0.23438 0.089844 0.47266 0.074219 0.73047-0.03125 0.42969-0.26953 0.83594-0.875 1.1875z" fill="#f8f8f8"/>
 <path d="m42.52 77.395c-0.015625-0.29297-0.050781-0.55469-0.12891-0.80859-0.14062-0.44531-0.40234-0.78906-0.85156-1.0195-0.38281-0.19531-0.81641-0.29688-1.2852-0.35547-0.51562-0.0625-1.0391-0.11719-1.5625-0.20313-0.39062-0.0625-0.77734-0.14453-1.1289-0.31641-0.058594-0.027344-0.11719-0.0625-0.19531-0.10156 0.039062 0.19922 0.058593 0.38281 0.11328 0.55859 0.097656 0.31641 0.19531 0.63281 0.33984 0.92969 0.625 1.2734 1.7656 1.9297 3.2656 1.8125 0.33203-0.023437 0.66406-0.10547 0.99609-0.16797 0.019531-0.003906 0.039063-0.011718 0.078125-0.023437-0.9375-0.46094-1.8477-1.0078-2.6211-1.7305 0.91797 0.63281 1.9375 1.0781 2.9805 1.4258z" fill="#f8f8f8"/>
 <path d="m42.016 75.336c0.60156-0.34766 0.84375-0.75781 0.875-1.1914 0.019531-0.25781-0.023437-0.49609-0.074219-0.73047-0.066406-0.32422-0.15625-0.64453-0.14062-0.98828 0-0.003906-0.003906-0.007812-0.011719-0.015625-0.035156 0.023438-0.070312 0.050782-0.10547 0.074219-0.50781 0.39062-0.92188 0.83594-1.1523 1.375-0.25781 0.60938-0.14844 1.1562 0.29297 1.582 0.015625 0.015625 0.035156 0.027344 0.070312 0.054688-0.074219-0.73047 0.13672-1.4297 0.50391-2.0977-0.25 0.63672-0.38672 1.293-0.25781 1.9375z" fill="#f8f8f8"/>
 <path d="m45.336 81.137c-1.0898-0.14844-2.1719-0.40625-3.1914-0.85938 0.89453 0.56641 1.8867 0.9375 2.8945 1.2188-0.035156 0.019531-0.054687 0.03125-0.070312 0.039062-0.3125 0.12109-0.625 0.26172-0.94531 0.34766-1.4531 0.39453-2.6914-0.042968-3.543-1.1797-0.19922-0.26172-0.35156-0.55859-0.50391-0.85156-0.085937-0.16016-0.14062-0.33984-0.21484-0.52734l0.21094 0.066406c0.375 0.10547 0.77344 0.11719 1.168 0.10547 0.52734-0.015625 1.0547-0.054688 1.5742-0.089844 0.46875-0.03125 0.91797-0.011719 1.3281 0.11328 0.48438 0.14453 0.80469 0.43359 1.0273 0.84766 0.11328 0.23437 0.19922 0.48437 0.26563 0.76953zm-0.875-1.9336c-0.24609-0.60938-0.23438-1.2773-0.10156-1.9492-0.24219 0.72266-0.31641 1.4492-0.10938 2.1523-0.042969-0.019531-0.0625-0.027344-0.082031-0.039062-0.50781-0.33984-0.72266-0.85547-0.57812-1.5039 0.125-0.57031 0.45312-1.0859 0.87891-1.5625 0.027344-0.03125 0.058594-0.0625 0.089844-0.09375 0.007812 0.007813 0.015625 0.007813 0.015625 0.011719 0.050781 0.33984 0.19531 0.63672 0.32031 0.94531 0.089844 0.22266 0.17969 0.44922 0.20703 0.70703 0.050782 0.43359-0.11328 0.87891-0.64062 1.332z" fill="#f8f8f8"/>
 <path d="m45.336 81.137c-0.066407-0.28516-0.15234-0.53516-0.27344-0.76953-0.21875-0.41406-0.53906-0.70313-1.0273-0.84766-0.41016-0.12109-0.85938-0.14062-1.3281-0.11328-0.51953 0.035156-1.043 0.074219-1.5742 0.089844-0.39453 0.011718-0.78906 0.003906-1.168-0.10547l-0.21094-0.066406c0.074219 0.1875 0.12891 0.36328 0.21484 0.52734 0.15234 0.28906 0.30859 0.58594 0.50391 0.85156 0.84766 1.1367 2.0859 1.5742 3.543 1.1797 0.32031-0.085937 0.63281-0.22656 0.94531-0.34766 0.019531-0.007812 0.035156-0.019531 0.070312-0.039062-1.0078-0.28125-2-0.65234-2.8945-1.2188 1.0234 0.45703 2.1094 0.71094 3.1992 0.85938z" fill="#f8f8f8"/>
 <path d="m44.461 79.203c0.52734-0.45312 0.69141-0.89844 0.64062-1.332-0.027343-0.25781-0.11719-0.48047-0.20703-0.70703-0.125-0.30859-0.27344-0.60547-0.32031-0.94531 0-0.003906-0.007813-0.003906-0.015625-0.011719-0.03125 0.03125-0.0625 0.0625-0.089844 0.09375-0.42578 0.47656-0.75391 0.99219-0.87891 1.5625-0.14062 0.64844 0.070312 1.1641 0.57812 1.5039 0.015625 0.011718 0.039062 0.019531 0.082031 0.039062-0.20703-0.70312-0.13281-1.4297 0.10938-2.1523-0.13281 0.67188-0.14453 1.3398 0.10156 1.9492z" fill="#f8f8f8"/>
 <path d="m48.785 84.301c-1.0977 0.050781-2.2109 0-3.2969-0.26172 0.98438 0.39453 2.0273 0.57813 3.0703 0.66797-0.03125 0.027344-0.046875 0.039063-0.0625 0.050781-0.28516 0.17578-0.56641 0.37109-0.86719 0.51563-1.3594 0.65234-2.6562 0.44922-3.6992-0.51172-0.24219-0.22266-0.44922-0.48438-0.65234-0.74219-0.11328-0.14453-0.19922-0.30859-0.30469-0.48047l0.21875 0.027344c0.39062 0.035156 0.78125-0.027344 1.168-0.10938 0.51562-0.11328 1.0273-0.25 1.5312-0.375 0.45312-0.11328 0.89844-0.17578 1.3242-0.13281 0.50391 0.054687 0.87109 0.27734 1.1641 0.64453 0.16016 0.20703 0.28906 0.44141 0.40625 0.70703zm-1.2109-1.7422c-0.35156-0.55469-0.46094-1.2148-0.45703-1.8984-0.10156 0.75391-0.046876 1.4844 0.28516 2.1367-0.046875-0.011719-0.066406-0.015625-0.085938-0.023437-0.5625-0.23828-0.86328-0.71094-0.84375-1.3711 0.019532-0.58594 0.24609-1.1523 0.57812-1.6992 0.023438-0.035156 0.046875-0.070313 0.070313-0.10938 0.007812 0.003906 0.015625 0.003906 0.015625 0.007812 0.10938 0.32422 0.30859 0.58984 0.48828 0.87109 0.12891 0.20312 0.25781 0.41016 0.33203 0.65625 0.13281 0.42188 0.054688 0.89062-0.38281 1.4297z" fill="#f8f8f8"/>
 <path d="m48.785 84.301c-0.11719-0.26562-0.24609-0.5-0.41016-0.70703-0.28906-0.36719-0.66016-0.59375-1.1641-0.64453-0.42578-0.046875-0.87109 0.015625-1.3242 0.13281-0.50391 0.12891-1.0117 0.26562-1.5312 0.375-0.38672 0.082031-0.77734 0.14844-1.168 0.10938l-0.21875-0.027344c0.10547 0.17188 0.19141 0.33594 0.30469 0.48047 0.20312 0.25781 0.41016 0.51953 0.65234 0.74219 1.043 0.96094 2.3398 1.1641 3.6992 0.51172 0.30078-0.14453 0.58203-0.33984 0.86719-0.51563 0.015624-0.011718 0.03125-0.023437 0.0625-0.050781-1.043-0.09375-2.0859-0.27344-3.0703-0.66797 1.0898 0.26172 2.2031 0.31641 3.3008 0.26172z" fill="#f8f8f8"/>
 <path d="m47.574 82.559c0.4375-0.54297 0.51562-1.0117 0.38672-1.4297-0.074219-0.24609-0.20313-0.45312-0.33203-0.65625-0.17969-0.28125-0.37891-0.54688-0.48828-0.87109 0-0.003906-0.007813-0.003906-0.015625-0.007812-0.023438 0.035156-0.050781 0.070312-0.070312 0.10938-0.33203 0.54688-0.55859 1.1133-0.57813 1.6992-0.019531 0.66406 0.28125 1.1328 0.84375 1.3711 0.019532 0.007812 0.039063 0.011718 0.085938 0.023437-0.33203-0.65234-0.39062-1.3828-0.28516-2.1367-0.007813 0.68359 0.10156 1.3477 0.45312 1.8984z" fill="#f8f8f8"/>
 <path d="m52.758 86.781c-1.0703 0.25391-2.1719 0.40625-3.2891 0.34766 1.0391 0.20703 2.0977 0.19531 3.1406 0.09375-0.027344 0.03125-0.039063 0.046875-0.054687 0.0625-0.25 0.22656-0.48828 0.47266-0.75781 0.66797-1.2148 0.89062-2.5273 0.92969-3.7305 0.17188-0.27734-0.17578-0.53125-0.39453-0.77734-0.61328-0.13672-0.12109-0.25391-0.26562-0.38672-0.41406 0.089844-0.003906 0.15234-0.007812 0.21875-0.015625 0.39062-0.035156 0.76172-0.16797 1.125-0.32422 0.48828-0.20312 0.96484-0.43359 1.4336-0.64844 0.42578-0.19531 0.85156-0.33984 1.2773-0.37109 0.50391-0.039062 0.90625 0.11328 1.2617 0.42188 0.20703 0.17578 0.375 0.37891 0.53906 0.62109zm-1.5078-1.4922c-0.44922-0.48047-0.67578-1.1094-0.79688-1.7812 0.035156 0.76172 0.22656 1.4688 0.67188 2.0508-0.046875-0.003906-0.070312-0.003906-0.089844-0.007813-0.59766-0.13281-0.98047-0.53906-1.0781-1.1953-0.089843-0.57812 0.03125-1.1758 0.25781-1.7734 0.015625-0.039062 0.035156-0.078125 0.050781-0.12109 0.011719 0.003906 0.015625 0.003906 0.019531 0.007812 0.16797 0.29688 0.41016 0.52344 0.64062 0.76562 0.16797 0.17578 0.32812 0.35547 0.44531 0.58203 0.19922 0.38672 0.20703 0.86328-0.12109 1.4727z" fill="#f8f8f8"/>
 <path d="m52.758 86.781c-0.16406-0.24219-0.33594-0.44531-0.53516-0.61719-0.35547-0.30469-0.75781-0.46094-1.2617-0.42187-0.42969 0.035156-0.85156 0.17578-1.2773 0.37109-0.47266 0.21875-0.94922 0.44531-1.4336 0.64844-0.36328 0.15234-0.73828 0.28516-1.125 0.32422-0.066406 0.007812-0.12891 0.007812-0.21875 0.015624 0.13672 0.14844 0.25 0.29688 0.38672 0.41406 0.24609 0.21875 0.5 0.4375 0.77734 0.61328 1.1992 0.75391 2.5156 0.71875 3.7305-0.17188 0.26953-0.19531 0.51172-0.44141 0.75781-0.66797 0.015625-0.011718 0.027344-0.03125 0.054687-0.0625-1.043 0.10156-2.1016 0.11328-3.1406-0.09375 1.1133 0.054688 2.2148-0.097656 3.2852-0.35156z" fill="#f8f8f8"/>
 <path d="m51.25 85.289c0.33203-0.61328 0.32031-1.0898 0.12109-1.4766-0.12109-0.22656-0.28125-0.41016-0.44531-0.58203-0.23047-0.24219-0.47266-0.46875-0.64062-0.76562 0-0.003906-0.007812-0.003906-0.019531-0.007813-0.015625 0.039063-0.035156 0.078125-0.050781 0.12109-0.22656 0.59766-0.34375 1.1953-0.25781 1.7734 0.10156 0.65625 0.48438 1.0625 1.0781 1.1953 0.019532 0.003906 0.042969 0.003906 0.089844 0.007813-0.44531-0.58203-0.63672-1.2891-0.67188-2.0508 0.11719 0.67969 0.34766 1.3047 0.79688 1.7852z" fill="#f8f8f8"/>
 <path d="m57.121 88.484c-1.0039 0.44531-2.0586 0.80078-3.168 0.94922 1.0586 0.011718 2.0977-0.19531 3.1055-0.48438-0.019532 0.035156-0.03125 0.054687-0.042969 0.070312-0.20312 0.26562-0.39453 0.55469-0.62109 0.79297-1.0312 1.1016-2.3125 1.3789-3.6367 0.85938-0.30859-0.12109-0.59375-0.28906-0.87891-0.45703-0.15625-0.09375-0.29688-0.21484-0.45703-0.33594l0.21094-0.054687c0.375-0.10547 0.71875-0.30859 1.0469-0.52344 0.44141-0.28906 0.86719-0.60156 1.293-0.90234 0.38281-0.26953 0.77344-0.49219 1.1875-0.60156 0.48828-0.13281 0.91406-0.054687 1.3164 0.17969 0.23047 0.13281 0.4375 0.30078 0.64453 0.50781zm-1.7617-1.1836c-0.52734-0.39062-0.87109-0.96484-1.1094-1.6055 0.17578 0.74219 0.49219 1.4023 1.0391 1.8906-0.046874 0.003906-0.070312 0.007812-0.089843 0.007812-0.60938-0.019531-1.0625-0.34766-1.2812-0.97656-0.19531-0.55078-0.1875-1.1641-0.074219-1.793 0.007812-0.042969 0.019531-0.085938 0.027344-0.12891 0.011718 0 0.015625 0 0.019531 0.003907 0.21875 0.26172 0.5 0.4375 0.76953 0.63281 0.19531 0.14062 0.38672 0.28906 0.54688 0.49219 0.26562 0.34766 0.36328 0.8125 0.15234 1.4766z" fill="#f8f8f8"/>
 <path d="m57.121 88.484c-0.20703-0.20703-0.41016-0.375-0.64062-0.50781-0.40234-0.23437-0.82812-0.3125-1.3164-0.17969-0.41406 0.10938-0.80469 0.33203-1.1875 0.60156-0.42578 0.30078-0.84766 0.61328-1.293 0.90234-0.32812 0.21875-0.67188 0.41797-1.0469 0.52344l-0.21094 0.054687c0.16016 0.12109 0.30078 0.24219 0.45703 0.33594 0.28516 0.16797 0.57031 0.33594 0.87891 0.45703 1.3203 0.51953 2.6055 0.24219 3.6367-0.85938 0.22656-0.24219 0.41797-0.52734 0.62109-0.79297 0.011719-0.015625 0.019531-0.035156 0.042969-0.070312-1.0039 0.29297-2.043 0.5-3.1055 0.48438 1.1016-0.14844 2.1562-0.50391 3.1641-0.94922z" fill="#f8f8f8"/>
 <path d="m55.359 87.301c0.21094-0.66406 0.11328-1.1289-0.15625-1.4727-0.16016-0.20312-0.35156-0.34766-0.54688-0.49219-0.26953-0.19531-0.55078-0.375-0.76953-0.63281-0.003907-0.003906-0.007813 0-0.019531-0.003906-0.007813 0.042969-0.019532 0.085937-0.027344 0.12891-0.11328 0.62891-0.12109 1.2383 0.074218 1.793 0.21875 0.625 0.67188 0.95312 1.2812 0.97656 0.019532 0 0.042969-0.003906 0.089844-0.007812-0.54688-0.48828-0.86328-1.1484-1.0391-1.8906 0.24609 0.63672 0.58594 1.2109 1.1133 1.6016z" fill="#f8f8f8"/>
 <path d="m61.719 89.352c-0.90625 0.625-1.875 1.168-2.9375 1.5195 1.043-0.18359 2.0273-0.57812 2.9609-1.0508-0.015626 0.039063-0.019532 0.058594-0.027344 0.074219-0.14844 0.30078-0.28516 0.61719-0.46484 0.89453-0.80859 1.2734-2.0195 1.7812-3.4141 1.5156-0.32422-0.0625-0.63672-0.17578-0.94531-0.28906-0.17188-0.0625-0.33203-0.15625-0.51172-0.24609l0.19922-0.09375c0.35156-0.17578 0.64844-0.43359 0.93359-0.70703 0.37891-0.36719 0.74219-0.75 1.1016-1.125 0.32422-0.33594 0.67188-0.625 1.0547-0.8125 0.45703-0.21875 0.88672-0.22266 1.3281-0.066406 0.25 0.09375 0.48047 0.22266 0.72266 0.38672zm-1.9492-0.83984c-0.58984-0.28516-1.0312-0.78516-1.3867-1.3711 0.30859 0.69531 0.74219 1.2852 1.3711 1.6641-0.046875 0.011718-0.066406 0.019531-0.085937 0.023437-0.60547 0.09375-1.1094-0.14453-1.4414-0.71875-0.29297-0.50781-0.39844-1.1094-0.40234-1.7461 0-0.042969 0.003906-0.085937 0.003906-0.12891 0.011719 0 0.015625-0.003906 0.019531 0 0.26562 0.21484 0.57422 0.33984 0.875 0.48047 0.21875 0.10547 0.43359 0.21094 0.62891 0.38281 0.32422 0.28516 0.50391 0.72266 0.41797 1.4141z" fill="#f8f8f8"/>
 <path d="m61.719 89.352c-0.24219-0.16406-0.47266-0.29297-0.72266-0.38281-0.44141-0.15625-0.87109-0.15234-1.3281 0.066406-0.38672 0.1875-0.73047 0.47266-1.0547 0.8125-0.35938 0.375-0.72266 0.75781-1.1016 1.125-0.28516 0.27344-0.58203 0.53516-0.93359 0.70703l-0.19922 0.09375c0.17969 0.089843 0.33984 0.18359 0.51172 0.24609 0.30859 0.10938 0.625 0.22656 0.94531 0.28906 1.3945 0.26562 2.6055-0.24219 3.4141-1.5156 0.17969-0.27734 0.31641-0.59375 0.46484-0.89453 0.007812-0.019532 0.015625-0.039063 0.027344-0.074219-0.93359 0.47266-1.918 0.86719-2.9609 1.0508 1.0625-0.35547 2.0312-0.89844 2.9375-1.5234z" fill="#f8f8f8"/>
 <path d="m59.77 88.512c0.085938-0.69141-0.097656-1.1328-0.42578-1.418-0.19531-0.16797-0.41016-0.27734-0.62891-0.38281-0.30078-0.14063-0.60938-0.26563-0.875-0.48047-0.003906-0.003907-0.007813 0-0.019532 0 0 0.042969-0.003906 0.085937-0.003906 0.12891 0.007813 0.64062 0.10938 1.2422 0.40234 1.7461 0.33203 0.57422 0.83594 0.8125 1.4414 0.71875 0.019532-0.003907 0.042969-0.011719 0.085938-0.023438-0.62891-0.37891-1.0625-0.96875-1.3711-1.6641 0.36328 0.58984 0.80469 1.0898 1.3945 1.375z" fill="#f8f8f8"/>
 <path d="m66.402 89.363c-0.77734 0.77734-1.6328 1.4883-2.6094 2.0273 0.99219-0.37109 1.8867-0.9375 2.7188-1.5742-0.007813 0.039063-0.007813 0.0625-0.011719 0.078125-0.09375 0.32422-0.16797 0.65625-0.29297 0.96484-0.56641 1.3945-1.6602 2.1211-3.0742 2.1133-0.32812 0-0.65625-0.054687-0.98047-0.10938-0.17969-0.027343-0.35547-0.09375-0.55078-0.14844l0.17969-0.12891c0.3125-0.23438 0.55859-0.54688 0.78516-0.86719 0.30469-0.42969 0.58984-0.875 0.875-1.3086 0.25781-0.39062 0.54297-0.73828 0.89062-0.99219 0.40625-0.30078 0.83203-0.38281 1.2969-0.30469 0.25391 0.046875 0.50781 0.13281 0.77344 0.25zm-2.0664-0.47266c-0.63281-0.17188-1.1602-0.58594-1.6172-1.0938 0.43359 0.62891 0.96484 1.1289 1.6523 1.3867-0.042969 0.019531-0.0625 0.03125-0.082032 0.039062-0.57812 0.20312-1.1172 0.058594-1.5469-0.44531-0.38281-0.44531-0.59375-1.0156-0.71875-1.6445-0.007813-0.042968-0.011719-0.085937-0.019532-0.12891 0.011719-0.003906 0.015625-0.007812 0.019532-0.003906 0.30078 0.16406 0.625 0.22656 0.94922 0.3125 0.23438 0.0625 0.46484 0.12891 0.6875 0.25781 0.37109 0.23047 0.63281 0.62891 0.67578 1.3203z" fill="#f8f8f8"/>
 <path d="m66.402 89.363c-0.26953-0.12109-0.51953-0.20312-0.78125-0.24609-0.46094-0.074219-0.88672 0.007812-1.2969 0.30469-0.34766 0.25391-0.63281 0.59766-0.89062 0.99219-0.28516 0.43359-0.57031 0.87891-0.875 1.3086-0.23047 0.32422-0.47266 0.63281-0.78516 0.86719l-0.17969 0.12891c0.19531 0.054688 0.36719 0.11719 0.55078 0.14844 0.32422 0.054687 0.65234 0.10547 0.98047 0.10937 1.4141 0.007813 2.5117-0.71875 3.0742-2.1133 0.125-0.30859 0.20312-0.64062 0.29297-0.96484 0.003906-0.019532 0.007812-0.039063 0.011718-0.078126-0.83203 0.63281-1.7266 1.2031-2.7188 1.5742 0.98438-0.54297 1.8398-1.25 2.6172-2.0312z" fill="#f8f8f8"/>
 <path d="m64.336 88.891c-0.042969-0.69531-0.30078-1.0938-0.67578-1.3164-0.22266-0.12891-0.45312-0.19922-0.6875-0.25781-0.32031-0.085937-0.64844-0.14844-0.94922-0.3125-0.003907 0-0.007813 0-0.019532 0.003906 0.007813 0.042969 0.011719 0.085938 0.019532 0.12891 0.125 0.62891 0.33984 1.1992 0.71875 1.6445 0.43359 0.50391 0.97266 0.64844 1.5469 0.44531 0.019532-0.007812 0.039063-0.019531 0.082032-0.039062-0.6875-0.25781-1.2227-0.75781-1.6523-1.3867 0.45312 0.50781 0.98047 0.92188 1.6172 1.0898z" fill="#f8f8f8"/>
 <path d="m71.008 88.52c-0.62109 0.91016-1.332 1.7617-2.1953 2.4727 0.91016-0.54688 1.6836-1.2695 2.3867-2.043 0 0.039062 0.003906 0.0625 0 0.082031-0.03125 0.33203-0.042969 0.67578-0.10938 1.0039-0.29688 1.4766-1.2461 2.3906-2.6406 2.6406-0.32422 0.058594-0.65625 0.066407-0.98828 0.070313-0.18359 0.003906-0.36719-0.027344-0.56641-0.046875l0.15234-0.15625c0.26562-0.28906 0.44922-0.64062 0.61719-0.99609 0.22266-0.48047 0.42188-0.96875 0.625-1.4453 0.18359-0.42969 0.40234-0.82422 0.69531-1.1367 0.34766-0.36719 0.75-0.52734 1.2148-0.53906 0.26172-0.007812 0.52344 0.027344 0.80859 0.09375zm-2.1172-0.082031c-0.65625-0.054688-1.2461-0.36328-1.7891-0.78125 0.53906 0.53906 1.1523 0.93359 1.875 1.0625-0.039062 0.027344-0.054687 0.042969-0.070312 0.054688-0.53125 0.30469-1.0859 0.26172-1.6016-0.15625-0.45703-0.36719-0.76953-0.89063-1.0039-1.4844-0.015625-0.039062-0.027343-0.082031-0.042969-0.12109 0.007813-0.003907 0.011719-0.007813 0.015626-0.007813 0.32422 0.10938 0.65625 0.10938 0.98828 0.13672 0.24219 0.019531 0.48047 0.042969 0.72266 0.12891 0.41016 0.14453 0.73828 0.49219 0.90625 1.168z" fill="#f8f8f8"/>
 <path d="m71.008 88.52c-0.28516-0.066406-0.54687-0.10547-0.8125-0.097656-0.46875 0.011719-0.87109 0.16797-1.2148 0.53906-0.29297 0.3125-0.51172 0.70703-0.69531 1.1367-0.20312 0.48047-0.40234 0.96484-0.625 1.4453-0.16797 0.35938-0.35156 0.70703-0.61719 0.99609l-0.15234 0.15625c0.19922 0.019532 0.38281 0.046876 0.56641 0.046876 0.32812-0.007813 0.66406-0.011719 0.98828-0.070313 1.3945-0.25 2.3438-1.1641 2.6406-2.6406 0.066406-0.32422 0.078124-0.66797 0.10937-1.0039v-0.082032c-0.70312 0.77734-1.4766 1.5-2.3867 2.043 0.86719-0.70312 1.582-1.5586 2.1992-2.4688z" fill="#f8f8f8"/>
 <path d="m68.891 88.438c-0.16797-0.67578-0.49609-1.0195-0.90625-1.1719-0.24219-0.089844-0.48438-0.11328-0.72266-0.12891-0.33203-0.023438-0.66406-0.027344-0.98828-0.13672-0.003907 0-0.007813 0.003906-0.015626 0.007812 0.015626 0.042969 0.027344 0.082032 0.042969 0.12109 0.23438 0.59375 0.55078 1.1172 1.0039 1.4844 0.51562 0.41797 1.0742 0.46094 1.6016 0.15625 0.019531-0.011719 0.035156-0.027343 0.070312-0.054687-0.72266-0.12891-1.3398-0.52344-1.875-1.0625 0.53906 0.42188 1.1328 0.73047 1.7891 0.78516z" fill="#f8f8f8"/>
 <path d="m75.379 86.84c-0.44141 1.0078-0.98438 1.9805-1.6992 2.8359 0.79297-0.70312 1.4219-1.5586 1.9648-2.4492 0.007813 0.039063 0.015625 0.058594 0.015625 0.078126 0.03125 0.33594 0.082032 0.67187 0.078125 1.0078-0.019531 1.5078-0.78125 2.5781-2.1055 3.082-0.30859 0.11719-0.63281 0.18359-0.95703 0.25391-0.17969 0.035156-0.36328 0.042968-0.56641 0.058593l0.12109-0.18359c0.20703-0.33203 0.32422-0.71094 0.42188-1.0938 0.12891-0.51172 0.23438-1.0273 0.34375-1.5352 0.10156-0.45703 0.24219-0.88281 0.47266-1.2461 0.27344-0.42578 0.63672-0.65625 1.0938-0.75391 0.25781-0.054687 0.52344-0.066406 0.81641-0.054687zm-2.0977 0.30859c-0.65234 0.066406-1.293-0.125-1.9023-0.4375 0.62891 0.42969 1.3047 0.70312 2.0391 0.69531-0.03125 0.035156-0.046875 0.050781-0.0625 0.066406-0.46484 0.39844-1.0195 0.45703-1.6016 0.14453-0.51562-0.27734-0.92188-0.73438-1.2617-1.2734-0.023438-0.035156-0.042969-0.074219-0.066407-0.11328 0.007813-0.007813 0.011719-0.011719 0.015625-0.011719 0.33984 0.046875 0.66406-0.011719 0.99609-0.050781 0.23828-0.027344 0.48047-0.046875 0.73438-0.003907 0.43359 0.074219 0.81641 0.35547 1.1094 0.98438z" fill="#f8f8f8"/>
 <path d="m75.379 86.84c-0.29297-0.015625-0.55859 0-0.81641 0.054687-0.45703 0.097657-0.82422 0.32812-1.0938 0.75391-0.23047 0.35937-0.37109 0.78906-0.47266 1.2461-0.10938 0.50781-0.21484 1.0234-0.34375 1.5352-0.097656 0.38281-0.21484 0.76172-0.42188 1.0938l-0.12109 0.18359c0.19922-0.019531 0.38672-0.023437 0.56641-0.058593 0.32422-0.070313 0.64844-0.13672 0.95703-0.25391 1.3281-0.50391 2.0859-1.5781 2.1055-3.082 0.003907-0.33203-0.046875-0.67188-0.078125-1.0078 0-0.019532-0.007812-0.039063-0.015625-0.078126-0.54688 0.89453-1.1719 1.7461-1.9648 2.4492 0.71484-0.85547 1.2578-1.8281 1.6992-2.8359z" fill="#f8f8f8"/>
 <path d="m73.281 87.148c-0.28906-0.63281-0.67578-0.91016-1.1055-0.98438-0.25391-0.042968-0.49609-0.019531-0.73438 0.003907-0.33203 0.035156-0.65625 0.09375-0.99609 0.050781-0.003906 0-0.007812 0.003906-0.015624 0.011719 0.023437 0.039062 0.042968 0.074219 0.066406 0.11328 0.33984 0.53906 0.74609 0.99609 1.2617 1.2734 0.58203 0.3125 1.1367 0.25391 1.6016-0.14453 0.015625-0.011718 0.027344-0.03125 0.0625-0.066406-0.73438 0.007812-1.4102-0.26562-2.0391-0.69531 0.60547 0.3125 1.2422 0.50781 1.8984 0.4375z" fill="#f8f8f8"/>
 <path d="m79.363 84.383c-0.25 1.0703-0.60156 2.125-1.1484 3.1016 0.64844-0.83594 1.1094-1.793 1.4805-2.7695 0.015626 0.039062 0.023438 0.054687 0.03125 0.074218 0.09375 0.32422 0.20313 0.64844 0.26172 0.97656 0.25781 1.4844-0.28906 2.6758-1.5 3.418-0.28125 0.17188-0.58984 0.30078-0.89453 0.42578-0.16797 0.070313-0.35156 0.10938-0.54297 0.16406l0.085938-0.20313c0.14062-0.36719 0.1875-0.75781 0.21094-1.1523 0.03125-0.52734 0.042969-1.0547 0.054688-1.5742 0.011718-0.46875 0.074218-0.91406 0.23438-1.3125 0.1875-0.46875 0.50781-0.76172 0.9375-0.94141 0.24219-0.10547 0.5-0.16797 0.78906-0.20703zm-2.0039 0.69141c-0.62891 0.1875-1.293 0.11328-1.9492-0.078125 0.69531 0.30469 1.4141 0.44922 2.1328 0.30859-0.023438 0.039062-0.035157 0.058593-0.046875 0.078124-0.38281 0.47656-0.91797 0.63672-1.5508 0.4375-0.55859-0.17969-1.0391-0.55078-1.4766-1.0195-0.027344-0.03125-0.054688-0.066406-0.085938-0.097656 0.007813-0.007813 0.007813-0.011719 0.011719-0.011719 0.33984-0.019531 0.65234-0.13672 0.96875-0.23438 0.23047-0.070312 0.46484-0.13672 0.72266-0.14062 0.4375-0.011718 0.87109 0.1875 1.2734 0.75781z" fill="#f8f8f8"/>
 <path d="m79.363 84.383c-0.28906 0.042969-0.54688 0.10156-0.79297 0.20313-0.43359 0.17969-0.75 0.47266-0.9375 0.94141-0.16016 0.39844-0.22266 0.84375-0.23437 1.3125-0.015626 0.51953-0.023438 1.0469-0.054688 1.5742-0.023438 0.39453-0.070312 0.78906-0.21094 1.1523l-0.085937 0.20312c0.19531-0.054687 0.375-0.09375 0.54297-0.16406 0.30469-0.125 0.61328-0.25391 0.89453-0.42578 1.2109-0.74219 1.7578-1.9336 1.5-3.418-0.054687-0.32812-0.16797-0.65234-0.26172-0.97656-0.003906-0.019531-0.015625-0.039062-0.03125-0.074218-0.37109 0.97656-0.83203 1.9336-1.4805 2.7695 0.55078-0.97266 0.90234-2.0273 1.1523-3.0977z" fill="#f8f8f8"/>
 <path d="m77.359 85.074c-0.40234-0.57031-0.83203-0.76953-1.2695-0.76172-0.25781 0.003906-0.49219 0.070312-0.72266 0.14062-0.31641 0.097656-0.62891 0.21484-0.96875 0.23438-0.003907 0-0.007813 0.007812-0.011719 0.011719 0.027343 0.03125 0.054687 0.066406 0.085937 0.097656 0.4375 0.46875 0.91797 0.83984 1.4766 1.0195 0.63281 0.19922 1.168 0.039063 1.5508-0.4375 0.011719-0.015625 0.023438-0.035156 0.046875-0.078125-0.71875 0.14453-1.4375 0-2.1328-0.30859 0.64844 0.19531 1.3125 0.26953 1.9453 0.082031z" fill="#f8f8f8"/>
 <path d="m82.832 81.234c-0.050781 1.0977-0.20312 2.1992-0.5625 3.2578 0.48438-0.94141 0.76172-1.9648 0.94922-2.9961 0.023438 0.035156 0.035156 0.050781 0.042969 0.066406 0.14844 0.30078 0.32031 0.60156 0.43359 0.91016 0.52344 1.4102 0.20313 2.6836-0.84766 3.6328-0.24609 0.21875-0.52344 0.40234-0.80078 0.58203-0.15234 0.10156-0.32422 0.17188-0.50391 0.26172 0.019531-0.085938 0.035156-0.14844 0.046875-0.21484 0.070312-0.38672 0.042968-0.77734-0.003906-1.1719-0.0625-0.52344-0.15234-1.0469-0.23438-1.5586-0.074218-0.46484-0.09375-0.91016-0.011718-1.332 0.097656-0.49609 0.35938-0.84375 0.75-1.0977 0.22266-0.14062 0.46484-0.24609 0.74219-0.33984zm-1.8477 1.0469c-0.58594 0.30078-1.2539 0.34766-1.9336 0.28125 0.74219 0.17188 1.4727 0.18359 2.1562-0.089844-0.015625 0.042969-0.023437 0.066406-0.03125 0.082032-0.28906 0.53906-0.78516 0.79687-1.4453 0.71484-0.58203-0.070312-1.125-0.34766-1.6367-0.73047-0.035156-0.027343-0.066406-0.054687-0.10156-0.082031 0.003906-0.007812 0.007812-0.015625 0.011718-0.015625 0.33203-0.082031 0.61719-0.25391 0.91016-0.40625 0.21484-0.11328 0.42969-0.21875 0.68359-0.27344 0.42969-0.085938 0.89062 0.035156 1.3867 0.51953z" fill="#f8f8f8"/>
 <path d="m82.832 81.234c-0.27734 0.09375-0.51953 0.19922-0.74219 0.34375-0.39062 0.25781-0.64844 0.60156-0.75 1.0977-0.082032 0.42188-0.0625 0.86719 0.011718 1.332 0.078126 0.51172 0.17188 1.0352 0.23438 1.5586 0.046874 0.39062 0.074218 0.78516 0.003906 1.1719-0.011719 0.066407-0.027344 0.12891-0.046875 0.21484 0.17969-0.089844 0.35156-0.16016 0.50391-0.26172 0.27734-0.17969 0.55469-0.36328 0.80078-0.58203 1.0547-0.94922 1.375-2.2227 0.84766-3.6328-0.11328-0.3125-0.28516-0.60937-0.43359-0.91016-0.007813-0.019531-0.019531-0.035156-0.042969-0.066406-0.1875 1.0273-0.46484 2.0508-0.94922 2.9961 0.35938-1.0586 0.51172-2.1602 0.5625-3.2617z" fill="#f8f8f8"/>
 <path d="m80.984 82.281c-0.5-0.48438-0.96094-0.60547-1.3867-0.51562-0.25 0.054687-0.46875 0.16016-0.68359 0.27344-0.29687 0.15234-0.57812 0.32422-0.91016 0.40625-0.003906 0-0.003906 0.007813-0.011718 0.015626 0.035156 0.027343 0.066406 0.054687 0.10156 0.082031 0.51562 0.38281 1.0586 0.65625 1.6367 0.73047 0.66016 0.082031 1.1523-0.17578 1.4453-0.71484 0.007813-0.019532 0.015625-0.039063 0.03125-0.082032-0.68359 0.27344-1.4141 0.26172-2.1562 0.089844 0.68359 0.066406 1.3516 0.015625 1.9336-0.28516z" fill="#f8f8f8"/>
 <path d="m85.668 77.508c0.15234 1.0898 0.20312 2.1992 0.042969 3.3047 0.30469-1.0156 0.39062-2.0703 0.38281-3.1172 0.027344 0.03125 0.042969 0.042969 0.054688 0.058594 0.20312 0.26953 0.42187 0.53125 0.59375 0.81641 0.77344 1.293 0.69141 2.6016-0.17188 3.7305-0.19922 0.26172-0.44141 0.49219-0.67969 0.71875-0.13281 0.125-0.28906 0.22656-0.44922 0.34766l0.007813-0.21875c0-0.39063-0.097657-0.77344-0.21875-1.1523-0.16016-0.50391-0.33984-1-0.51562-1.4883-0.15625-0.44141-0.25781-0.87891-0.25391-1.3086 0.007812-0.50391 0.19922-0.89453 0.53516-1.2188 0.19531-0.17969 0.41406-0.33203 0.67188-0.47266zm-1.625 1.3672c-0.51953 0.40234-1.168 0.57422-1.8477 0.62891 0.76172 0.035156 1.4805-0.089844 2.1016-0.48047-0.007813 0.046874-0.011719 0.066406-0.015625 0.089843-0.1875 0.58203-0.625 0.92578-1.2891 0.96484-0.58594 0.035156-1.168-0.14062-1.7422-0.41797-0.039062-0.019531-0.074219-0.039062-0.11328-0.0625 0.003906-0.007812 0.003906-0.015625 0.007812-0.015625 0.3125-0.14062 0.55859-0.36328 0.82031-0.56641 0.19141-0.14844 0.38281-0.29297 0.62109-0.39062 0.40234-0.17188 0.87891-0.13672 1.457 0.25z" fill="#f8f8f8"/>
 <path d="m85.668 77.508c-0.25781 0.14063-0.47656 0.29297-0.66406 0.47266-0.33594 0.32422-0.52734 0.71094-0.53516 1.2188-0.007812 0.42969 0.097656 0.86719 0.25391 1.3086 0.17188 0.49219 0.35547 0.98438 0.51562 1.4883 0.11719 0.375 0.21875 0.76172 0.21875 1.1523l-0.007812 0.21875c0.16016-0.12109 0.31641-0.22266 0.44922-0.34766 0.23828-0.22656 0.48047-0.45703 0.67969-0.71875 0.86328-1.125 0.94531-2.4375 0.17188-3.7305-0.17188-0.28516-0.39062-0.54687-0.59375-0.81641-0.011719-0.015625-0.027344-0.03125-0.054688-0.058594 0.003907 1.0469-0.082031 2.1016-0.38281 3.1172 0.15234-1.1055 0.10156-2.2148-0.050781-3.3047z" fill="#f8f8f8"/>
 <path d="m84.043 78.875c-0.57812-0.38672-1.0547-0.41797-1.457-0.25391-0.23828 0.097656-0.43359 0.24219-0.62109 0.39062-0.26172 0.20703-0.50781 0.42578-0.82031 0.56641-0.003906 0-0.003906 0.007813-0.007812 0.015625 0.039062 0.019531 0.074219 0.042969 0.11328 0.0625 0.57422 0.28125 1.1602 0.45312 1.7422 0.41797 0.66406-0.039063 1.1016-0.38281 1.2891-0.96484 0.007812-0.019531 0.007812-0.042969 0.015625-0.089844-0.62109 0.39062-1.3398 0.51562-2.1016 0.48047 0.67969-0.054688 1.3281-0.22266 1.8477-0.625z" fill="#f8f8f8"/>
 <path d="m87.766 73.324c0.35156 1.043 0.60547 2.125 0.65234 3.2422 0.11328-1.0547 0-2.1094-0.19531-3.1367 0.03125 0.023437 0.050782 0.035156 0.066406 0.046874 0.25 0.22656 0.51172 0.44531 0.73438 0.69141 1 1.125 1.1562 2.4336 0.51562 3.6992-0.14844 0.29297-0.34375 0.5625-0.53906 0.83203-0.10938 0.14844-0.24219 0.27734-0.37891 0.42578-0.011719-0.089844-0.019532-0.15234-0.035156-0.21484-0.070313-0.38672-0.23828-0.74219-0.42578-1.0938-0.25-0.46875-0.51953-0.91797-0.77734-1.3711-0.23437-0.40625-0.41406-0.81641-0.48828-1.2383-0.085937-0.5 0.03125-0.91406 0.30078-1.293 0.16016-0.21484 0.34766-0.40234 0.57031-0.58984zm-1.3438 1.6406c-0.4375 0.49219-1.043 0.77734-1.6992 0.95703 0.75391-0.10547 1.4414-0.35938 1.9766-0.85938v0.089844c-0.074219 0.60547-0.44531 1.0234-1.0898 1.1875-0.57031 0.14062-1.1719 0.078125-1.7891-0.09375-0.042968-0.011719-0.082031-0.027344-0.125-0.039063 0.003907-0.011719 0-0.015625 0.003907-0.019531 0.28125-0.19531 0.48438-0.45703 0.70312-0.70703 0.16016-0.17969 0.32422-0.35938 0.53906-0.5 0.36719-0.23438 0.83984-0.28906 1.4805-0.015625z" fill="#f8f8f8"/>
 <path d="m87.766 73.324c-0.22656 0.1875-0.41406 0.375-0.56641 0.58984-0.27344 0.37891-0.39062 0.79688-0.30078 1.293 0.074218 0.42188 0.25391 0.83203 0.48828 1.2383 0.26172 0.44922 0.53125 0.90234 0.77734 1.3711 0.1875 0.34766 0.35156 0.70703 0.42578 1.0938 0.011718 0.066406 0.019531 0.12891 0.035156 0.21484 0.13672-0.14844 0.26953-0.27734 0.37891-0.42578 0.19531-0.26562 0.38672-0.53906 0.53906-0.83203 0.64062-1.2656 0.48047-2.5703-0.51562-3.6992-0.21875-0.25-0.48438-0.46484-0.73438-0.69141-0.015625-0.011718-0.03125-0.023437-0.066407-0.046874 0.19531 1.0273 0.30859 2.082 0.19531 3.1367-0.050781-1.1172-0.30469-2.1992-0.65625-3.2422z" fill="#f8f8f8"/>
 <path d="m86.422 74.965c-0.64062-0.27344-1.1133-0.21875-1.4805 0.015625-0.21484 0.14062-0.37891 0.31641-0.53906 0.5-0.21875 0.25-0.42188 0.51172-0.70312 0.70703-0.003907 0.003906-0.003907 0.007812-0.003907 0.019531 0.042969 0.011719 0.082032 0.027344 0.125 0.039063 0.61719 0.17188 1.2227 0.23438 1.7891 0.09375 0.64453-0.16016 1.0156-0.57812 1.0898-1.1875 0.003906-0.019532 0-0.042969 0-0.089844-0.53906 0.5-1.2266 0.75391-1.9766 0.85938 0.65625-0.17969 1.2656-0.46484 1.6992-0.95703z" fill="#f8f8f8"/>
 <path d="m89.059 68.824c0.53906 0.96094 0.98828 1.9766 1.2383 3.0664-0.085937-1.0586-0.39062-2.0742-0.77344-3.0469 0.035156 0.015625 0.054687 0.023438 0.074218 0.035156 0.28516 0.17578 0.58594 0.33984 0.84766 0.54688 1.1914 0.92188 1.5898 2.1758 1.1914 3.5391-0.09375 0.31641-0.23438 0.61719-0.375 0.91797-0.078125 0.16406-0.1875 0.31641-0.29297 0.48828-0.027344-0.082032-0.050781-0.14453-0.074219-0.20703-0.14062-0.36719-0.37109-0.6875-0.62109-0.99609-0.32813-0.41406-0.67969-0.80859-1.0195-1.2031-0.30469-0.35547-0.55859-0.72656-0.71094-1.125-0.17578-0.47266-0.14062-0.90625 0.058593-1.3281 0.12109-0.24219 0.26953-0.46094 0.45703-0.6875zm-1.0156 1.8633c-0.33984 0.5625-0.87891 0.95312-1.4961 1.2539 0.72266-0.24219 1.3477-0.61719 1.7852-1.207 0.007813 0.046875 0.015625 0.066406 0.015625 0.089844 0.039063 0.60938-0.25 1.0898-0.85156 1.3672-0.53125 0.24609-1.1367 0.29297-1.7773 0.23828-0.042969-0.003907-0.085938-0.011719-0.12891-0.015626v-0.019531c0.23828-0.24219 0.39062-0.53906 0.5625-0.82422 0.12109-0.20703 0.25-0.41406 0.4375-0.58984 0.31641-0.30469 0.76953-0.44531 1.4531-0.29297z" fill="#f8f8f8"/>
 <path d="m89.059 68.824c-0.1875 0.22656-0.33594 0.44531-0.44922 0.68359-0.19922 0.42578-0.23438 0.85547-0.058594 1.3281 0.15234 0.40234 0.40234 0.77344 0.71094 1.125 0.33984 0.39453 0.6875 0.78906 1.0195 1.2031 0.24609 0.30859 0.47656 0.62891 0.62109 0.99609 0.023437 0.0625 0.042968 0.12109 0.074218 0.20703 0.10547-0.17188 0.21484-0.32031 0.29297-0.48828 0.14062-0.29688 0.28125-0.60156 0.375-0.91797 0.39844-1.3633-0.003906-2.6172-1.1914-3.5391-0.26172-0.20312-0.5625-0.36719-0.84766-0.54688-0.015625-0.011719-0.035157-0.019531-0.074219-0.035156 0.38281 0.97266 0.6875 1.9883 0.77344 3.0469-0.25781-1.0859-0.70703-2.1055-1.2461-3.0625z" fill="#f8f8f8"/>
 <path d="m88.043 70.688c-0.67969-0.14844-1.1328-0.007812-1.4492 0.28906-0.1875 0.17578-0.31641 0.38281-0.4375 0.58984-0.16797 0.28516-0.32031 0.58203-0.5625 0.82422-0.003906 0.003906 0 0.007813 0 0.019531 0.042969 0.003906 0.085938 0.011719 0.12891 0.015625 0.63672 0.054688 1.2461 0.003907 1.7773-0.23828 0.60156-0.27734 0.89062-0.75391 0.85156-1.3672 0-0.019531-0.007812-0.042968-0.015624-0.089843-0.4375 0.58984-1.0625 0.96484-1.7852 1.207 0.60938-0.29688 1.1523-0.6875 1.4922-1.25z" fill="#f8f8f8"/>
 <path d="m89.496 64.16c0.70312 0.84375 1.332 1.7617 1.7812 2.7852-0.27734-1.0234-0.76172-1.9648-1.3203-2.8516 0.039063 0.011719 0.058594 0.011719 0.078125 0.019531 0.3125 0.12109 0.64062 0.22656 0.93359 0.37891 1.3398 0.6875 1.9609 1.8438 1.8242 3.2578-0.035157 0.32812-0.11328 0.64844-0.19922 0.96875-0.046875 0.17578-0.125 0.34375-0.19531 0.53516-0.042969-0.078125-0.074219-0.13281-0.10938-0.19141-0.20703-0.33203-0.49219-0.60547-0.79297-0.86328-0.40234-0.34375-0.81641-0.66797-1.2227-0.99219-0.36719-0.29297-0.68359-0.60938-0.90625-0.97656-0.26172-0.43359-0.30469-0.86328-0.1875-1.3164 0.070312-0.25391 0.17578-0.49609 0.31641-0.75391zm-0.65625 2.0195c-0.22656 0.61719-0.69141 1.1016-1.2383 1.5078 0.66406-0.37109 1.2109-0.85938 1.5312-1.5195 0.015626 0.042969 0.027344 0.0625 0.03125 0.085937 0.14844 0.59375-0.042968 1.1172-0.58594 1.5-0.47656 0.33984-1.0664 0.5-1.7031 0.56641-0.042969 0.003907-0.085938 0.003907-0.12891 0.007813 0-0.011719-0.003906-0.015625-0.003906-0.019531 0.19141-0.28516 0.28516-0.60156 0.39844-0.91406 0.082031-0.22656 0.17188-0.45312 0.32031-0.66016 0.26172-0.35547 0.68359-0.57812 1.3789-0.55469z" fill="#f8f8f8"/>
 <path d="m89.496 64.16c-0.14062 0.25391-0.25 0.5-0.31641 0.75391-0.11719 0.45313-0.074219 0.88281 0.1875 1.3164 0.22266 0.36719 0.53906 0.68359 0.90625 0.97656 0.40625 0.32422 0.82031 0.64844 1.2227 0.99219 0.30078 0.25781 0.58594 0.53125 0.79297 0.86328 0.035157 0.054688 0.066407 0.11328 0.10938 0.19141 0.074218-0.1875 0.15234-0.35547 0.19531-0.53516 0.085938-0.32031 0.16406-0.64062 0.19922-0.96875 0.13672-1.4141-0.48438-2.5664-1.8242-3.2578-0.29297-0.15234-0.62109-0.25781-0.93359-0.37891-0.019531-0.007812-0.039062-0.011719-0.078125-0.019531 0.55469 0.88672 1.0391 1.8281 1.3203 2.8516-0.44531-1.0234-1.0742-1.9375-1.7812-2.7852z" fill="#f8f8f8"/>
 <path d="m88.84 66.18c-0.69531-0.023438-1.1172 0.19922-1.3711 0.55469-0.15234 0.21094-0.23828 0.43359-0.32031 0.66016-0.11328 0.3125-0.20703 0.63281-0.39844 0.91406-0.003906 0.003906 0 0.007812 0.003906 0.019531 0.042969-0.003906 0.085938-0.003906 0.12891-0.007813 0.63672-0.066406 1.2227-0.22656 1.7031-0.56641 0.53906-0.38281 0.73437-0.90625 0.58594-1.5-0.003906-0.019531-0.015625-0.039062-0.03125-0.085937-0.32031 0.66016-0.86719 1.1445-1.5312 1.5195 0.53906-0.40625 1.0039-0.89062 1.2305-1.5078z" fill="#f8f8f8"/>
</svg>
